<?xml version="1.0" encoding="utf-8"?>
<!-- Generator: Adobe Illustrator 26.5.1, SVG Export Plug-In . SVG Version: 6.00 Build 0)  -->
<svg version="1.1" id="Layer_1" xmlns="http://www.w3.org/2000/svg" xmlns:xlink="http://www.w3.org/1999/xlink" x="0px" y="0px"
	 viewBox="0 0 612 792" style="enable-background:new 0 0 612 792;" xml:space="preserve">
<g>
	<path style="fill:#3B373A;" d="M366.6191,676.6875c-0.709,0-1.4268-0.167-2.0908-0.5166
		c-1.9473-1.0234-2.8691-3.3047-2.1797-5.3936l25.252-76.5361l-38.6582,3.7266c-0.1465,0.0137-0.292,0.0205-0.4355,0.0205
		c-2.1865,0-4.0859-1.5869-4.4395-3.7871L327.2637,489.54l-46.7422,53.4424c-0.8696,0.9941-2.1123,1.5371-3.3877,1.5371
		c-0.4707,0-0.9453-0.0732-1.4077-0.2266l-57.8032-19.0469c-0.2407-0.0801-0.4741-0.1787-0.6978-0.2979l-50.9404-26.9795
		c-1.6646-0.8818-2.604-2.7061-2.3545-4.5732l10.8389-81.0664l-44.1152-85.5361c-0.3857-0.7476-0.5542-1.5889-0.4858-2.4277
		l13.9146-170.8408c0.0151-0.186,0.042-0.3711,0.0801-0.5542c2.3867-11.4331,4.9644-20.897,12.3628-20.897
		c3.7324,0,6.7681,2.5903,10.6118,5.8696c5.7441,4.9009,13.6113,11.6123,26.25,11.6123c3.1143,0,6.4238-0.4087,9.8364-1.2148
		l28.0845-6.6357c1.4805-0.3496,3.0205-0.5273,4.5767-0.5273c16.4224,0,33.5264,19.085,53.3315,41.1836
		c19.5474,21.8101,41.7017,46.5303,62.1479,48.8242c0.4824,0.0542,0.9775,0.0815,1.4717,0.0811
		c12.2119-0.001,27.0205-16.6079,40.085-31.2593c13.9697-15.6655,27.1641-30.4624,40.2939-30.4624
		c3.9883,0,7.7061,1.353,11.0508,4.022c0.0439,0.0352,0.0869,0.0713,0.1299,0.1079c6.7393,5.8071,12.5879,8.7515,17.3838,8.7515
		c4.4307,0,7.0957-2.5962,9.041-4.4922c1.3555-1.3203,2.7578-2.686,4.9785-2.686c1.3486,0,2.6035,0.5425,3.5312,1.5278
		c1.9385,2.0566,1.8398,3.7231,1.0703,16.6904c-0.1084,1.8218-0.2305,3.8687-0.3613,6.1626l2.3633,74.9536
		c0.0332,1.0737-0.3174,2.124-0.9912,2.9609l-81.9854,101.9844l-4.834,70.6426l41.6523,134.6084
		c0.4287,1.3867,0.1631,2.8945-0.7139,4.0508l-65.3232,86.0791C369.3311,676.0625,367.9893,676.6875,366.6191,676.6875z"/>
	<path style="fill:#4B4A53;" d="M156.5257,136.5733c6.0202,0.0034,15.048,17.4822,36.8617,17.4822
		c3.3149,0,6.9313-0.4048,10.8708-1.3356l28.0845-6.6357c1.1623-0.2746,2.3417-0.4068,3.5421-0.4066
		c30.4677,0.0041,72.9427,85.2637,114.978,89.9792c0.6572,0.0737,1.3143,0.1096,1.9745,0.1096
		c27.3309,0,57.1969-61.7283,80.3779-61.722c2.8536,0.0008,5.6094,0.937,8.2431,3.039c8.6715,7.4723,15.2955,9.8423,20.3216,9.8423
		c8.7413,0,12.6412-7.1782,14.019-7.1782c1.0724,0,0.6192,4.3526-0.2637,19.8234l2.3693,75.1526L395.033,377.8093l-4.9881,72.8903
		L431.945,586.108l-65.3234,86.0797l27.4137-83.0869l-45.5244,4.3875l-18.3235-114.1259l-53.053,60.6574l-57.8035-19.0484
		l-50.9405-26.9792l11.0266-82.4682l-44.7637-86.7932l13.9147-170.841C151.2785,140.9044,153.5277,136.5716,156.5257,136.5733
		 M156.5309,127.5732c-0.0017,0-0.0053,0-0.007,0c-3.6527,0-8.739,1.5532-12.2266,8.9525
		c-1.6121,3.4203-3.0121,8.2084-4.5393,15.525c-0.0764,0.3658-0.1299,0.736-0.1602,1.1084l-13.9147,170.841
		c-0.1366,1.6777,0.1999,3.3601,0.9715,4.856l43.467,84.2789l-10.6517,79.6643c-0.4992,3.7336,1.3795,7.3831,4.7084,9.1461
		l50.9406,26.9792c0.4475,0.2371,0.9144,0.4359,1.3954,0.5945l57.8035,19.0483c0.9248,0.3048,1.8749,0.4526,2.8156,0.4526
		c2.5518,0,5.0366-1.0869,6.7757-3.0752l40.4315-46.2268l15.2844,95.1969c0.7063,4.3995,4.5064,7.5738,8.8773,7.5738
		c0.2886,0,0.5793-0.0139,0.8723-0.0421l31.7913-3.0639l-23.0909,69.9849c-1.3784,4.1777,0.4654,8.7397,4.3596,10.7865
		c1.3286,0.6983,2.7635,1.0341,4.1825,1.0341c2.74,0,5.4221-1.2513,7.1742-3.5601l65.3234-86.0797
		c1.7545-2.3121,2.2864-5.3283,1.4285-8.1011L399.1384,449.641l4.6805-68.3964l81.0999-100.8823
		c1.3461-1.6743,2.0488-3.7752,1.9811-5.9225l-2.3567-74.7539c0.1266-2.2098,0.244-4.1875,0.3489-5.9537
		c0.2843-4.7902,0.4721-7.9547,0.52-10.2285c0.056-2.6628,0.1407-6.6869-2.8069-9.8146c-1.7618-1.8695-4.2426-2.9416-6.8064-2.9416
		c-4.0501,0-6.4983,2.3844-8.1183,3.9623c-1.9946,1.9426-3.4828,3.2159-5.9006,3.2159c-2.0754,0-6.7118-0.9952-14.4466-7.6602
		c-0.0855-0.0738-0.1725-0.1459-0.2608-0.2164c-4.1594-3.3196-8.8208-5.0035-13.855-5.0047c-0.0019,0-0.0041,0-0.006,0
		c-15.1467-0.0003-28.9921,15.5281-43.6507,31.9681c-11.8198,13.2562-26.5299,29.7539-36.7235,29.7539
		c-0.3325,0-0.6501-0.0175-0.9712-0.0535c-18.7425-2.1026-40.2898-26.1444-59.3007-47.3561
		c-20.5238-22.8997-38.2488-42.6766-56.6794-42.6792c-1.904-0.0003-3.7925,0.2176-5.613,0.6478l-28.0844,6.6357
		c-3.0735,0.7262-6.0347,1.0945-8.8013,1.0945c-10.9845,0-17.8307-5.842-23.3318-10.5361
		C165.8712,130.9489,161.9189,127.5763,156.5309,127.5732L156.5309,127.5732z"/>
</g>
<polygon style="fill:#4B4A53;" points="191.2796,222.0119 160.4783,279.9341 172.4692,302.1893 205.4955,262.1006 "/>
<polygon style="fill:#4B4A53;" points="290.1479,282.4315 249.1246,368.2731 277.0737,400.554 350.8628,375.6324 "/>
<polygon style="fill:#4B4A53;" points="206.7438,289.877 205.6007,393.8987 222.5428,393.5296 239.9241,402.5998 "/>
<line style="fill:none;stroke:#4B4A53;stroke-width:9;stroke-linejoin:round;stroke-miterlimit:10;" x1="197.9155" y1="486.3456" x2="197.9155" y2="509.49"/>
<line style="fill:none;stroke:#4B4A53;stroke-width:9;stroke-linejoin:round;stroke-miterlimit:10;" x1="233.6105" y1="493.7697" x2="226.4708" y2="525.2103"/>
<line style="fill:none;stroke:#4B4A53;stroke-width:9;stroke-linejoin:round;stroke-miterlimit:10;" x1="273.6469" y1="512.1107" x2="267.9424" y2="538.31"/>
</svg>
