<?xml version="1.0" encoding="utf-8"?>
<!-- Generator: Adobe Illustrator 26.5.1, SVG Export Plug-In . SVG Version: 6.00 Build 0)  -->
<svg version="1.1" id="Layer_1" xmlns="http://www.w3.org/2000/svg" xmlns:xlink="http://www.w3.org/1999/xlink" x="0px" y="0px"
	 viewBox="0 0 612 792" style="enable-background:new 0 0 612 792;" xml:space="preserve">
<g>
	<path style="fill:#3B373A;" d="M360.3379,750.5289c-1.4062,0-2.7627-0.6611-3.626-1.834c-1.1191-1.5234-1.168-3.585-0.1201-5.1582
		l19.5156-29.334l-19.667-22.3506c-0.2803-0.3184-0.5137-0.6738-0.6943-1.0576l-34.8281-74.0498c0,0-50.0186,1.6162-50.0669,1.6162
		c-0.4785,0-0.9536-0.0762-1.4087-0.2266l-57.8032-19.0488c-0.2402-0.0791-0.4736-0.1777-0.6973-0.2969l-50.9409-26.9795
		c-1.6646-0.8818-2.604-2.7061-2.3545-4.5732l10.7949-80.7314l-20.0259-28.6929c-0.6821-0.9775-0.9487-2.1855-0.7412-3.3589
		c0,0,7.7139-43.6416,7.7231-43.687c2.3867-11.4331,4.9644-20.8975,12.3628-20.8975c3.7329,0,6.7681,2.5908,10.6108,5.8701
		c5.7422,4.9009,13.6074,11.6123,26.2451,11.6123c0.0024,0,0.0029,0,0.0054,0c3.1167-0.0005,6.4263-0.4092,9.8364-1.2148
		l28.0845-6.6357c1.4805-0.3496,3.0205-0.5273,4.5771-0.5273c16.4219,0,33.5264,19.085,53.3315,41.1831
		c19.5469,21.8101,41.7021,46.5303,62.1484,48.8242c0.4824,0.0537,0.9785,0.0815,1.4727,0.0815
		c12.2109-0.0015,27.0195-16.6079,40.084-31.2598c13.9688-15.6655,27.1631-30.4624,40.2939-30.4624
		c3.9883,0,7.7061,1.353,11.0498,4.022c0.0449,0.0352,0.0879,0.0713,0.1309,0.1079c6.7383,5.8071,12.5879,8.7515,17.3838,8.7515
		c4.4297,0,7.0947-2.5962,9.04-4.4922c1.3555-1.3203,2.7578-2.686,4.9785-2.686c1.3486,0,2.6035,0.5425,3.5312,1.5278
		c1.9385,2.0566,1.8398,3.7231,1.0703,16.6904c-0.1064,1.7803-0.2246,3.7744-0.3525,6.0049l0.8535,8.374
		c0.1592,1.563-0.5078,3.0957-1.7607,4.0439l-97.665,73.9248L378.414,673.9879l31.2354,56.6133
		c0.6592,1.1963,0.7402,2.627,0.2197,3.8896s-1.5869,2.2207-2.8984,2.6035l-45.3711,13.2539
		C361.1826,750.4703,360.7578,750.5289,360.3379,750.5289z"/>
	<path style="fill:#4B4A53;" d="M167.7603,394.3686c6.0202,0.0034,15.048,17.4823,36.8617,17.4823
		c3.3149,0,6.9313-0.4048,10.8708-1.3356l28.0846-6.6357c1.1623-0.2746,2.3418-0.4068,3.5421-0.4066
		c30.4677,0.0041,72.9427,85.2636,114.9779,89.9792c0.6572,0.0737,1.3142,0.1096,1.9745,0.1096
		c27.331,0,57.1971-61.7283,80.378-61.722c2.8536,0.0008,5.6094,0.937,8.2431,3.039l0.0001,0.0001
		c8.6693,7.4704,15.2959,9.8422,20.3215,9.8422c8.744,0,12.641-7.1782,14.019-7.1782c1.0724,0,0.6192,4.3526-0.2637,19.8234
		l0.8892,8.7297l-99.2106,75.0948l-14.6631,133.7226l31.9239,57.8621l-45.3709,13.2531l21.428-32.2079l-21.9477-24.9406
		l-36.0877-76.729l-52.8798,1.7097l-57.8034-19.0484l-50.9405-26.9794l11.0266-82.468l-21.0284-30.1291l7.6974-43.5508
		C162.5131,398.6997,164.7623,394.3668,167.7603,394.3686 M167.7654,385.3686c-0.0017,0-0.0052,0-0.0069,0
		c-3.6527,0-8.739,1.5532-12.2266,8.9524c-1.6121,3.4203-3.0121,8.2085-4.5394,15.5251c-0.0189,0.0906-0.0364,0.1814-0.0525,0.2725
		l-7.6974,43.5508c-0.4149,2.347,0.1183,4.7629,1.4824,6.7174l19.0238,27.2569l-10.5624,78.9965
		c-0.4992,3.7336,1.3796,7.3831,4.7084,9.1461l50.9405,26.9794c0.4476,0.2371,0.9144,0.4359,1.3954,0.5945l57.8034,19.0484
		c0.9095,0.2997,1.8605,0.4521,2.8169,0.4521c0.0969,0,0.1938-0.0015,0.2908-0.0047l46.9639-1.5184l33.5686,71.3729
		c0.3607,0.767,0.8279,1.479,1.3878,2.1152l17.3868,19.7577l-17.6038,26.46c-2.0945,3.1482-1.9978,7.2698,0.242,10.3163
		c1.725,2.3463,4.4378,3.6694,7.2517,3.6694c0.8398,0,1.6886-0.1178,2.5229-0.3615l45.3709-13.2532
		c2.6224-0.766,4.7548-2.6816,5.7965-5.2072c1.0417-2.5255,0.8799-5.3875-0.4398-7.7795l-30.5471-55.3666l13.9297-127.0347
		l96.1187-72.7545c2.5054-1.8964,3.8404-4.9621,3.5219-8.0881l-0.8167-8.0176c0.1197-2.0826,0.2309-3.9559,0.3307-5.6374
		c0.2844-4.7906,0.4723-7.9555,0.5201-10.2294c0.0561-2.6629,0.1408-6.6872-2.8069-9.815
		c-1.7618-1.8694-4.2426-2.9416-6.8064-2.9416c-4.0508,0-6.4988,2.3849-8.1187,3.963c-1.9936,1.9421-3.4812,3.2152-5.9002,3.2152
		c-2.0753,0-6.7118-0.9951-14.4465-7.6601c-0.0856-0.0738-0.1725-0.1459-0.2608-0.2164c-4.1595-3.3196-8.821-5.0035-13.8551-5.0048
		c-0.0019,0-0.0042,0-0.0061,0c-15.1467-0.0003-28.9919,15.528-43.6505,31.968c-11.8199,13.2562-26.5301,29.7541-36.7238,29.7541
		c-0.3323,0-0.6499-0.0175-0.9711-0.0536c-18.7422-2.1025-40.2896-26.1443-59.3004-47.356
		c-20.5239-22.8998-38.2489-42.6768-56.6797-42.6793c-1.9043-0.0002-3.7927,0.2177-5.6129,0.6479l-28.0844,6.6357
		c-3.0738,0.7263-6.0349,1.0945-8.8013,1.0945c-10.9845,0-17.8308-5.842-23.3319-10.5361
		C177.1057,388.7442,173.1534,385.3716,167.7654,385.3686L167.7654,385.3686z"/>
</g>
<polygon style="fill:#4B4A53;" points="201.2487,463.2333 178.7401,481.0668 190.7309,503.3221 223.7573,463.2333 "/>
<polygon style="fill:#4B4A53;" points="285.8597,476.2231 244.8364,509.1702 272.7856,521.5601 346.5746,511.9948 "/>
<polygon style="fill:#4B4A53;" points="211.3085,503.3221 210.1655,551.2444 227.1075,551.0743 244.4889,555.253 "/>
<line style="fill:none;stroke:#4B4A53;stroke-width:9;stroke-linejoin:round;stroke-miterlimit:10;" x1="191.632" y1="560.1866" x2="191.632" y2="583.3309"/>
<line style="fill:none;stroke:#4B4A53;stroke-width:9;stroke-linejoin:round;stroke-miterlimit:10;" x1="227.3272" y1="567.6106" x2="220.1874" y2="599.0512"/>
<line style="fill:none;stroke:#4B4A53;stroke-width:9;stroke-linejoin:round;stroke-miterlimit:10;" x1="267.3635" y1="585.9515" x2="261.659" y2="612.1509"/>
</svg>
