<?xml version="1.0" encoding="utf-8"?>
<!-- Generator: Adobe Illustrator 26.5.1, SVG Export Plug-In . SVG Version: 6.00 Build 0)  -->
<svg version="1.1" id="Layer_1" xmlns="http://www.w3.org/2000/svg" xmlns:xlink="http://www.w3.org/1999/xlink" x="0px" y="0px"
	 viewBox="0 0 612 792" style="enable-background:new 0 0 612 792;" xml:space="preserve">
<g>
	<path style="fill:#E5F4F4;" d="M348.2559,757.9619c-0.4111,0-0.8262-0.0566-1.2373-0.1738
		c-2.1123-0.6045-3.4795-2.6436-3.2363-4.8262l20.0439-179.6436l-80.4922-13.7979c-1.5635-0.2686-2.8701-1.3389-3.4395-2.8193
		l-16.6948-43.3867l-49.4922-46.5547L98.6772,448.0264c-1.3081-0.2129-2.4556-0.9912-3.1367-2.1279s-0.8267-2.5166-0.3979-3.7705
		l30.022-87.7563l-29.3389-38.3662c-0.958-1.2529-1.1904-2.9165-0.6113-4.3843l30.6611-77.7539
		c3.21-15.2725,10.6709-44.269,24.98-69.6401c14.5635-25.8228,32.3291-41.3687,52.8027-46.2061l28.085-6.6353
		c19.5439-4.6182,46.1895-7.1611,75.0278-7.1611c17.3101,0,34.231,0.9136,50.2915,2.7153
		c32.082,3.5986,62.3867,16.1538,87.6377,36.3071c0.0449,0.0352,0.0879,0.0713,0.1309,0.1084
		c29.6689,25.5664,24.7129,66.8647,19.9189,106.8032c-1.2881,10.7363-2.5059,20.8804-3.0771,30.7446l2.3633,74.9521
		c0.043,1.3643-0.5361,2.6743-1.5732,3.5615l-74.2432,63.4912v65.6963l72.8389,27.9092c1.1719,0.4492,2.1035,1.3682,2.5693,2.5352
		c0.4648,1.166,0.4219,2.4736-0.1191,3.6064L352.3154,755.4004C351.5527,756.9961,349.9521,757.9619,348.2559,757.9619z"/>
	<path style="fill:#5D7587;" d="M306.7705,108.7245c16.5491,0.0003,33.5685,0.8674,49.7901,2.6872
		c31.2089,3.501,60.7872,15.7623,85.3326,35.3524h0.0001c35.4919,30.5835,17.9447,87.3052,15.2752,134.0801l2.3693,75.1527
		l-75.8184,64.8376v70.865l75.7287,29.0166L348.255,753.4611l20.514-183.8615l-84.6746-14.5141l-17.0636-44.3456l-51.2425-48.2005
		l-91.1633-14.8465l-25.2248-4.1081l30.8013-90.0344l-30.8013-40.2785l30.8013-78.1087
		c8.9803-43.0236,31.7185-102.6563,74.4916-112.7626l28.0845-6.6357C252.0573,111.2096,278.7462,108.7241,306.7705,108.7245
		 M306.7707,99.7245L306.7707,99.7245c-29.1745-0.0004-56.1874,2.5856-76.0626,7.2816l-28.0845,6.6357
		c-21.7458,5.138-40.4818,21.4137-55.6878,48.3749c-6.2761,11.128-17.8794,35.0338-25.3858,70.5523l-30.5223,77.4013
		c-1.1575,2.9352-0.6934,6.2623,1.2233,8.7687l27.8765,36.4538l-29.2428,85.4788c-0.8579,2.5077-0.5668,5.266,0.7955,7.5394
		c1.3623,2.2734,3.6574,3.8307,6.2733,4.2568l25.2248,4.1081l88.4477,14.4042l47.7426,44.9084l16.3261,42.429
		c1.1391,2.9604,3.7526,5.1026,6.8791,5.6385l76.3095,13.0802l-19.5729,175.4268c-0.487,4.3652,2.248,8.4444,6.4711,9.6515
		c0.822,0.235,1.6541,0.3478,2.4744,0.3478c3.3943,0,6.5949-1.9297,8.1198-5.1216l111.1931-232.745
		c1.0827-2.2663,1.1692-4.8818,0.2385-7.2146c-0.9307-2.3328-2.7938-4.1706-5.1391-5.0693l-69.9489-26.802v-60.5298l72.6677-62.1432
		c2.075-1.7744,3.2323-4.3948,3.1462-7.1236l-2.3566-74.7498c0.5682-9.664,1.7699-19.6755,3.0413-30.2674
		c2.3635-19.6914,4.8075-40.0533,3.0191-58.8863c-2.142-22.5567-10.1458-39.5215-24.4688-51.8636
		c-0.0856-0.0738-0.1725-0.1459-0.2608-0.2164c-25.9154-20.6834-57.0173-33.5683-89.9436-37.262
		C341.3405,100.6478,324.2512,99.7248,306.7707,99.7245L306.7707,99.7245z"/>
</g>
<polygon style="fill:#5D7587;" points="158.6334,243.5386 127.8321,301.4608 139.823,323.716 172.8493,283.6273 "/>
<polygon style="fill:#5D7587;" points="308.054,237.8744 267.0308,323.716 294.9799,355.9969 368.769,331.0753 "/>
<polygon style="fill:#5D7587;" points="181.2374,317.3074 157.4805,364.1591 174.4226,363.79 191.804,372.8602 "/>
<line style="fill:#E5F4F4;stroke:#5D7587;stroke-width:9;stroke-linecap:round;stroke-linejoin:round;stroke-miterlimit:10;" x1="133.2254" y1="417.094" x2="124.625" y2="447.6928"/>
<line style="fill:#E5F4F4;stroke:#5D7587;stroke-width:9;stroke-linecap:round;stroke-linejoin:round;stroke-miterlimit:10;" x1="161.0504" y1="422.5655" x2="153.9106" y2="454.006"/>
<line style="fill:#E5F4F4;stroke:#5D7587;stroke-width:9;stroke-linecap:round;stroke-linejoin:round;stroke-miterlimit:10;" x1="191.804" y1="432.3934" x2="186.0994" y2="458.5928"/>
<path style="fill:#F0D282;stroke:#EB944C;stroke-width:9;stroke-linejoin:round;stroke-miterlimit:10;" d="M109.3033,237.8744
	l-3.9905-35.6709l12.4443-3.9905c0,0,15.4473-17.9572,15.4682-24.9406c0.0209-6.9834-13.9563-78.8122-13.9563-78.8122
	l21.9582,32.9216c0,0,58.1534-2.9929,57.8621-6.9834c-0.2913-3.9905,3.7825-46.2629,5.7778-51.251
	c1.9953-4.9881,50.0891-31.5517,50.0891-31.5517s-14.9643,28.9311-13.9667,32.9216s26.0412,2.9929,26.0412,2.9929L378.6616,31.61
	c0,0-7.8138,31.9239-9.8926,34.9168c-2.0789,2.9929,9.8926,23.943,9.8926,23.943s61.8526,29.9287,64.8455,14.9643
	s9.9762-40.9025,9.9762-40.9025l24.9406-19.9525l-14.57,78.8122l14.57,52.874c0,0,49.8812,37.9097,52.874,48.8835
	c2.9929,10.9738,6.9833,93.5333,0,99.1419c-6.9833,5.6085-60.855,38.6895-60.855,38.6895l-71.8289,75.0959v41.4666l75.8194,37.9097
	L348.255,760.4445l-7.5031-177.1489l-73.7211-12.9691l-22.0507-43.8954l-35.9144-37.9097L89.3509,445.2691
	c0,0,20.9501-81.1318,20.9501-82.2888S77.3794,303.919,77.3794,303.919L109.3033,237.8744z"/>
</svg>
