<?xml version="1.0" encoding="utf-8"?>
<!-- Generator: Adobe Illustrator 26.5.1, SVG Export Plug-In . SVG Version: 6.00 Build 0)  -->
<svg version="1.1" id="Layer_2" xmlns="http://www.w3.org/2000/svg" xmlns:xlink="http://www.w3.org/1999/xlink" x="0px" y="0px"
	 viewBox="0 0 612 792" style="enable-background:new 0 0 612 792;" xml:space="preserve">
<g>
	<path style="fill:#3B373A;" d="M358.7254,750.5281c-1.4072,0-2.7627-0.6611-3.626-1.834c-1.1191-1.5234-1.168-3.585-0.1201-5.1582
		l19.5156-29.334l-17.8877-20.3271l-38.7197,9.0527c-0.2881,0.0674-0.583,0.1064-0.8789,0.1162c0,0-52.9766,1.7119-53.0249,1.7119
		c-0.478,0-0.9536-0.0762-1.4082-0.2256l-57.8037-19.0479c-0.2407-0.0801-0.4741-0.1797-0.6978-0.2979l-50.9404-26.9795
		c-1.1699-0.6191-2.0078-1.7227-2.2905-3.0166c-0.2822-1.293,0.019-2.6455,0.8242-3.6963l21.731-28.3701l-29.7173,7.3301
		c-0.3604,0.0889-0.7222,0.1318-1.0791,0.1318c-1.8081,0-3.4893-1.0947-4.1816-2.8418l-34.5781-87.2065
		c-0.3247-0.8193-0.4019-1.7158-0.2222-2.5781c2.3867-11.4331,4.9639-20.8975,12.3628-20.8975
		c3.7324,0,6.7676,2.5908,10.6108,5.8701c5.7422,4.9009,13.6074,11.6123,26.2451,11.6123c0.0024,0,0.0029,0,0.0054,0
		c3.1167-0.0005,6.4263-0.4092,9.8364-1.2148l28.0845-6.6357c1.4805-0.3501,3.0205-0.5273,4.5767-0.5273
		c16.4224,0,33.5264,19.085,53.3315,41.1831c19.5469,21.8101,41.7017,46.5308,62.1489,48.8242
		c0.4824,0.0542,0.9775,0.082,1.4717,0.082c12.2109-0.0015,27.0195-16.6079,40.084-31.2598
		c13.9697-15.666,27.1641-30.4629,40.2939-30.4629c3.9893,0,7.7061,1.353,11.0498,4.022c0.0449,0.0352,0.0879,0.0713,0.1309,0.1079
		c6.7393,5.8071,12.5879,8.7515,17.3838,8.7515c4.4307,0,7.0957-2.5962,9.041-4.4922c1.3555-1.3203,2.7578-2.686,4.9785-2.686
		c1.3486,0,2.6035,0.5425,3.5312,1.5278c1.9385,2.0566,1.8398,3.7231,1.0703,16.6904c-0.1064,1.7803-0.2246,3.7749-0.3525,6.0049
		l0.8535,8.374c0.1738,1.6982-0.6299,3.3486-2.0732,4.2607l-51.7598,32.6929l14.9209,86.6689l6.7285,14.418
		c0.5547,1.1895,0.5625,2.5625,0.0215,3.7588s-1.5781,2.0957-2.8379,2.4639l-45.3711,13.2529
		C359.5701,750.4695,359.1453,750.5281,358.7254,750.5281z"/>
	<path style="fill:#4B4A53;" d="M115.9827,521.5601c6.0202,0.0035,15.048,17.4823,36.8616,17.4823
		c3.3149,0,6.9313-0.4048,10.8708-1.3356l28.0846-6.6357c1.1623-0.2747,2.3418-0.4068,3.5421-0.4066
		c30.4677,0.0041,72.9428,85.2636,114.9781,89.9792c0.6572,0.0737,1.3142,0.1096,1.9745,0.1096
		c27.3309,0,57.1969-61.7283,80.3779-61.722c2.8536,0.0008,5.6094,0.937,8.2431,3.039c8.6693,7.4705,15.2959,9.8423,20.3216,9.8423
		c8.744,0,12.641-7.1782,14.019-7.1782c1.0724,0,0.6192,4.3526-0.2637,19.8234l0.8893,8.7297l-54.3005,34.2985l15.5321,90.2253
		l6.9834,14.9643l-45.3709,13.2532l21.4279-32.208l-21.9478-24.9406l-41.3423,9.6661l-52.8797,1.7098l-57.8035-19.0484
		l-50.9405-26.9794l29.525-38.5453l-42.1613,10.4003l-34.5782-87.2065C110.7355,525.8912,112.9847,521.5583,115.9827,521.5601
		 M115.9878,512.5601c-0.0017,0-0.0052,0-0.0069,0c-3.6527,0-8.7391,1.5532-12.2266,8.9524
		c-1.6121,3.4203-3.0121,8.2084-4.5393,15.5251c-0.3601,1.7251-0.2057,3.518,0.4438,5.1562l34.5782,87.2065
		c1.3851,3.4932,4.7474,5.684,8.3629,5.684c0.7143,0,1.4381-0.0854,2.1589-0.2632l17.2731-4.2609l-13.9371,18.1951
		c-1.6101,2.1021-2.2129,4.8064-1.6479,7.3933c0.565,2.5868,2.2404,4.7936,4.5804,6.0328l50.9405,26.9794
		c0.4476,0.2371,0.9144,0.436,1.3955,0.5945l57.8035,19.0483c0.9096,0.2997,1.8605,0.4522,2.8169,0.4522
		c0.0969,0,0.1938-0.0016,0.2907-0.0047l52.8798-1.7098c0.5923-0.0192,1.1812-0.0967,1.7582-0.2317l36.096-8.4395l13.8276,15.7132
		l-17.6038,26.46c-2.0945,3.1482-1.9978,7.2698,0.2421,10.3163c1.7249,2.3463,4.4378,3.6694,7.2517,3.6694
		c0.8398,0,1.6886-0.1179,2.5229-0.3616l45.3709-13.2532c2.5203-0.7362,4.5934-2.5363,5.6759-4.9283
		c1.0825-2.392,1.0665-5.1375-0.0438-7.5167l-6.4738-13.8724l-14.3077-83.1127l49.2172-31.0877
		c2.8871-1.8237,4.4934-5.1241,4.1474-8.5212l-0.8167-8.0178c0.1197-2.0829,0.2309-3.9564,0.3307-5.6381
		c0.2844-4.7903,0.4722-7.955,0.5201-10.2287c0.0561-2.6629,0.1407-6.687-2.8069-9.8148c-1.7617-1.8694-4.2426-2.9417-6.8064-2.9417
		c-4.0508,0-6.4988,2.3849-8.1187,3.963c-1.9936,1.9421-3.4813,3.2152-5.9003,3.2152c-2.0754,0-6.7119-0.9952-14.4465-7.6602
		c-0.0856-0.0738-0.1726-0.1459-0.2609-0.2164c-4.1592-3.3195-8.8206-5.0033-13.8547-5.0048c-0.0018,0-0.0041,0-0.0059,0
		c-15.147-0.0002-28.9923,15.5281-43.6509,31.9681c-11.8198,13.2562-26.5299,29.754-36.7236,29.754
		c-0.3326,0-0.6501-0.0175-0.9708-0.0535c-18.7427-2.1025-40.29-26.1443-59.3009-47.356
		c-20.5239-22.8998-38.2489-42.6768-56.6797-42.6793c-1.9043-0.0002-3.7927,0.2177-5.6127,0.6478l-28.0846,6.6358
		c-3.0736,0.7261-6.0348,1.0944-8.8012,1.0944c-10.9845,0-17.8307-5.842-23.3318-10.5361
		C125.3281,515.9357,121.3759,512.5632,115.9878,512.5601L115.9878,512.5601z"/>
</g>
<polygon style="fill:#4B4A53;" points="220.4597,601.8171 197.9511,619.6506 209.9419,641.9058 242.9683,601.8171 "/>
<polygon style="fill:#4B4A53;" points="295.7127,631.3373 254.6894,664.2844 282.6385,676.6743 356.4276,667.109 "/>
<polygon style="fill:#4B4A53;" points="238.7729,605.3718 237.6298,653.2942 254.5719,653.1241 271.9532,657.3027 "/>
<line style="fill:none;stroke:#4B4A53;stroke-width:9;stroke-linejoin:round;stroke-miterlimit:10;" x1="184.7646" y1="646.5817" x2="184.7646" y2="669.7261"/>
<line style="fill:none;stroke:#4B4A53;stroke-width:9;stroke-linejoin:round;stroke-miterlimit:10;" x1="220.4597" y1="654.0058" x2="213.3199" y2="685.4464"/>
<line style="fill:none;stroke:#4B4A53;stroke-width:9;stroke-linejoin:round;stroke-miterlimit:10;" x1="260.4961" y1="672.3467" x2="254.7915" y2="698.5461"/>
</svg>
