<?xml version="1.0" encoding="utf-8"?>
<!-- Generator: Adobe Illustrator 26.5.1, SVG Export Plug-In . SVG Version: 6.00 Build 0)  -->
<svg version="1.1" id="Layer_2" xmlns="http://www.w3.org/2000/svg" xmlns:xlink="http://www.w3.org/1999/xlink" x="0px" y="0px"
	 viewBox="0 0 800 600" style="enable-background:new 0 0 800 600;" xml:space="preserve">
<path style="fill:#3E131E;" d="M105.6686,38.3793l6.5065,32.5976h22.1455l29.4227-16.1081l40.2712-20.4801l18.8389-13.3016
	l6.1042,12.6366l25.1929,21.1451l13.4369-4.1568l26.468-14.9931l23.3978,23.1404l56.0478-3.9905l39.4506-23.8607l46.231-20.3138
	l63.9806,23.0293L572.248-2.8558l44.8984,18.2058c0,0,21.319-14.8804,22.0353-12.22c0.7164,2.6603,21.8838,19.9611,21.8838,19.9611
	l23.4185,22.9165l-2.9459,15.2969l9.0703-0.6651l22.3335-20.5888l1.4453-34.9254l56.4995,6.8994l-6.3156,23.6944
	c0,0,36.4664,18.3473,37.0367,19.1499c0.5703,0.8026,5.2258,29.0973,5.2258,29.0973l43.859-37.2446l35.3005-84.7611l-949.7468,5.255
	l1.3391,83.866l47.9705,45.8772l59.9761-21.9563l9.1305-49.8883L95.1959,9.1157L105.6686,38.3793z"/>
<path style="fill:#3E131E;" d="M538.433,618.4197l305.6512-7.347l-47.3393-97.3279l-154.7876,0.5856l-13.8329,31.3737
	l-38.948,21.4062l-23.7227-39.6584l-52.33,3.2919l-52.9792,23.8498c0,0-59.1075,15.4379-62.9178,15.4379
	s-76.035-6.1752-76.035-6.1752l-28.8994-29.4091h-54.3682l-8.1495,16.6177c0,0-27.5667,8.8217-31.1093,8.8217
	s-27.9783-1.7643-27.9783-1.7643l-4.1591-23.675l-33.8554,3.7034l-29.0198,3.2104l-20.7227,1.5312l-17.8981-8.445l-30.4411-6.9954
	l-19.3555,12.5859L3.2095,556.4606l-52.9957,9.6216l84.3771,29.1473l522.064-10.2453l-13.4849,7.4115L538.433,618.4197z"/>
<polyline style="fill:#281013;" points="130.2905,59.7275 146.6488,46.2582 165.0443,14.502 212.2651,5.8559 254.3005,9.8464 
	260.7988,28.4687 306.8437,17.1623 342.988,29.1338 383.3452,27.8036 454.4469,-0.7949 499.1669,2.5305 520.4742,9.8464 
	570.3398,-14.9533 597.7827,-7.7918 609.3827,-3.4553 649.9911,-4.1203 681.2269,27.1385 698.1835,22.3871 705.3231,2.5305 
	716.8334,-6.3144 772.7031,-1.46 788.321,13.8369 786.0899,28.4687 806.9313,37.422 814.6483,65.7133 834.1168,55.7371 
	857.9894,11.8416 885.9932,-38.0395 -87.6869,-48.0158 -62.4145,51.0815 -23.1739,61.0577 -9.991,77.0498 28.666,67.087 
	26.6141,49.7513 42.232,12.5067 69.636,4.5257 105.3537,-1.46 "/>
<path style="fill:#281013;" d="M6.0807,563.1868l25.1786-3.5106l5.9844-5.5842l23.5706,5.5842c0,0,22.8538,8.6364,27.2905,6.4061
	s24.3961-14.4721,24.3961-14.4721l40.5631-3.1023l6.2044,17.5744l48.9592,4.754l44.734-11.16l6.4983-11.1683l24.6261,3.1023
	l43.8947,26.2085l125.1273-1.3302l19.5083-13.9667l51.9853-18.9776h33.0207l15.1086,22.5381l28.8206,17.7221l29.6005-24.1282
	l27.3723-31.6437l43.2325,8.4797l2.2274,7.0319h24.7656l11.3787-15.5116h49.531l54.4249,83.0402
	c0,0-893.184,35.9144-889.8693,35.9144c3.3148,0-4.0011-80.9049-4.0011-80.9049l29.9629-6.4061L6.0807,563.1868z"/>
</svg>
