<?xml version="1.0" encoding="utf-8"?>
<!-- Generator: Adobe Illustrator 26.5.1, SVG Export Plug-In . SVG Version: 6.00 Build 0)  -->
<svg version="1.1" id="Layer_2" xmlns="http://www.w3.org/2000/svg" xmlns:xlink="http://www.w3.org/1999/xlink" x="0px" y="0px"
	 viewBox="0 0 612 792" style="enable-background:new 0 0 612 792;" xml:space="preserve">
<g>
	<path style="fill:#E5F4F4;" d="M369.9824,723.2363c-0.4111,0-0.8262-0.0566-1.2373-0.1738
		c-2.1123-0.6045-3.4795-2.6436-3.2363-4.8262l20.0439-179.6436l-80.4922-13.7979c-1.5635-0.2686-2.8701-1.3389-3.4395-2.8193
		l-16.6948-43.3877l-49.4927-46.5537l-115.0303-18.7344c-1.3081-0.2129-2.4556-0.9912-3.1367-2.1279s-0.8267-2.5166-0.3979-3.7705
		l30.022-87.7559l-29.3389-38.3662c-0.958-1.2529-1.1904-2.9165-0.6113-4.3843l30.6611-77.7539
		c3.2104-15.2725,10.6714-44.2695,24.9805-69.6401c14.5635-25.8223,32.3291-41.3682,52.8027-46.2056l28.0845-6.6357
		c19.5444-4.6182,46.1899-7.1611,75.0278-7.1611c17.3105,0,34.2314,0.9136,50.292,2.7153
		c32.082,3.5986,62.3867,16.1533,87.6377,36.3071c0.0449,0.0352,0.0879,0.0713,0.1309,0.1084
		c29.6699,25.5669,24.7129,66.8657,19.9189,106.8052c-1.2891,10.7358-2.5068,20.8789-3.0781,30.7427l2.3643,74.9521
		c0.043,1.3643-0.5361,2.6743-1.5732,3.5615l-74.2441,63.4902v65.6978l72.8398,27.9092c1.1719,0.4492,2.1035,1.3682,2.5693,2.5352
		c0.4648,1.166,0.4219,2.4736-0.1191,3.6064L374.042,720.6748C373.2793,722.2705,371.6787,723.2363,369.9824,723.2363z"/>
	<path style="fill:#5D7587;" d="M328.497,73.9984c16.5491,0,33.5684,0.8674,49.79,2.6872
		c31.2089,3.501,60.7871,15.7623,85.3326,35.3524c35.492,30.5835,17.9448,87.3052,15.2753,134.0802l2.3693,75.1527l-75.8184,64.8376
		v70.8649l75.7287,29.0166L369.9814,718.735l20.514-183.8615l-84.6746-14.5141l-17.0636-44.3456l-51.2425-48.2005l-91.1633-14.8465
		l-25.2248-4.108l30.8013-90.0345l-30.8013-40.2785l30.8013-78.1087c8.9803-43.0236,31.7185-102.6563,74.4916-112.7625
		l28.0845-6.6357C273.7837,76.4836,300.4727,73.9984,328.497,73.9984 M328.497,64.9984c-29.1764,0-56.1892,2.586-76.0625,7.2817
		L224.35,78.9158c-21.7457,5.1379-40.4818,21.4136-55.6878,48.3748c-6.2761,11.128-17.8793,35.0337-25.3858,70.5523
		l-30.5223,77.4013c-1.1575,2.9352-0.6934,6.2623,1.2233,8.7687l27.8765,36.4538l-29.2428,85.4789
		c-0.8579,2.5077-0.5668,5.266,0.7955,7.5394c1.3623,2.2734,3.6575,3.8308,6.2734,4.2568l25.2248,4.108l88.4476,14.4042
		l47.7426,44.9084l16.3261,42.429c1.1391,2.9604,3.7526,5.1026,6.8791,5.6385l76.3095,13.0802L361.0369,717.737
		c-0.487,4.3652,2.248,8.4444,6.4711,9.6515c0.822,0.235,1.6541,0.3478,2.4744,0.3478c3.3943,0,6.5949-1.9297,8.1198-5.1216
		l111.1931-232.745c1.0827-2.2663,1.1692-4.8818,0.2385-7.2146s-2.7938-4.1706-5.1391-5.0693l-69.9489-26.802v-60.5297
		l72.6677-62.1432c2.075-1.7744,3.2323-4.3948,3.1462-7.1236l-2.3566-74.7498c0.5682-9.6641,1.7699-19.6755,3.0413-30.2674
		c2.3635-19.6915,4.8075-40.0534,3.0191-58.8864c-2.142-22.5567-10.1459-39.5215-24.4689-51.8636
		c-0.0856-0.0738-0.1725-0.1459-0.2608-0.2164c-25.9154-20.6834-57.0173-33.5684-89.9435-37.262
		C363.0641,65.9214,345.9747,64.9984,328.497,64.9984L328.497,64.9984z"/>
</g>
<polygon style="fill:#5D7587;" points="180.3598,208.8125 149.5585,266.7347 161.5494,288.9899 194.5757,248.9012 "/>
<polygon style="fill:#5D7587;" points="329.7805,203.1483 288.7572,288.9899 316.7063,321.2709 390.4954,296.3492 "/>
<polygon style="fill:#5D7587;" points="202.9638,282.5814 179.2069,329.433 196.149,329.064 213.5303,338.1342 "/>
<line style="fill:#E5F4F4;stroke:#5D7587;stroke-width:9;stroke-linecap:round;stroke-linejoin:round;stroke-miterlimit:10;" x1="154.9518" y1="382.368" x2="146.3514" y2="412.9668"/>
<line style="fill:#E5F4F4;stroke:#5D7587;stroke-width:9;stroke-linecap:round;stroke-linejoin:round;stroke-miterlimit:10;" x1="182.7768" y1="387.8394" x2="175.637" y2="419.28"/>
<line style="fill:#E5F4F4;stroke:#5D7587;stroke-width:9;stroke-linecap:round;stroke-linejoin:round;stroke-miterlimit:10;" x1="213.5303" y1="397.6674" x2="207.8258" y2="423.8667"/>
</svg>
