<?xml version="1.0" encoding="utf-8"?>
<!-- Generator: Adobe Illustrator 26.5.1, SVG Export Plug-In . SVG Version: 6.00 Build 0)  -->
<svg version="1.1" id="Layer_1" xmlns="http://www.w3.org/2000/svg" xmlns:xlink="http://www.w3.org/1999/xlink" x="0px" y="0px"
	 viewBox="0 0 612 792" style="enable-background:new 0 0 612 792;" xml:space="preserve">
<g>
	<path style="fill:#E5F4F4;" d="M373.2031,702.7588c-0.3975,0-0.7988-0.0527-1.1982-0.1631
		c-2.1318-0.5879-3.5205-2.6387-3.2754-4.8369l19.9131-178.4766l-48.6855,3.5918c-0.1104,0.0088-0.2207,0.0127-0.3311,0.0127
		c-0.6104,0-1.2158-0.124-1.7793-0.3662L286.978,500.625c-0.481-0.207-0.9224-0.4971-1.3037-0.8564l-50.2407-47.2568
		l-115.0303-18.7344c-1.3081-0.2129-2.4556-0.9912-3.1367-2.1279s-0.8267-2.5166-0.3979-3.7705l30.022-87.7554l-29.3389-38.3667
		c-0.958-1.2529-1.1904-2.9165-0.6113-4.3843l30.6611-77.7539c3.2104-15.2725,10.6714-44.2695,24.9805-69.6396
		c14.5635-25.8228,32.3291-41.3687,52.8027-46.2061l28.0845-6.6357c19.5444-4.6182,46.1899-7.1611,75.0278-7.1611
		c17.3105,0,34.2314,0.9136,50.292,2.7153c32.0811,3.5986,62.3857,16.1533,87.6377,36.3071
		c0.0449,0.0352,0.0879,0.0713,0.1309,0.1079c29.6699,25.5674,24.7129,66.8662,19.9189,106.8057
		c-1.2891,10.7358-2.5068,20.8789-3.0781,30.7427l2.3643,74.9517c0.043,1.3647-0.5361,2.6748-1.5732,3.562l-71.4756,61.1226
		l69.6436,50.3916c1.709,1.2363,2.3291,3.4922,1.4941,5.4287l-33.2344,77.0127l-73.3193,160.999
		C376.5518,701.7598,374.9297,702.7588,373.2031,702.7588z"/>
	<path style="fill:#5D7587;" d="M328.4969,94.4761c16.5491,0,33.5685,0.8674,49.7901,2.6871
		c31.2089,3.501,60.7872,15.7623,85.3326,35.3524l0.0001,0.0001c35.4919,30.5834,17.9447,87.3051,15.2752,134.0801l2.3693,75.1527
		l-75.8184,64.8376l74.2736,53.742l-33.2338,77.0131l-73.2834,160.9161l20.5139-183.8614l-54.0899,3.9905l-50.869-21.895
		l-51.2425-48.2004l-91.1633-14.8466l-25.2248-4.108l30.8013-90.0344l-30.8013-40.2786l30.8013-78.1087
		c8.9803-43.0236,31.7185-102.6563,74.4916-112.7625l28.0845-6.6357C273.7837,96.9612,300.4727,94.4761,328.4969,94.4761
		 M328.497,85.4761c-29.1766,0-56.1895,2.586-76.0625,7.2816L224.35,99.3934c-21.7457,5.1379-40.4818,21.4136-55.6878,48.3748
		c-6.2761,11.128-17.8793,35.0337-25.3858,70.5523l-30.5223,77.4013c-1.1575,2.9352-0.6934,6.2623,1.2233,8.7687l27.8765,36.4539
		l-29.2428,85.4788c-0.8579,2.5077-0.5668,5.266,0.7955,7.5394c1.3623,2.2734,3.6575,3.8308,6.2734,4.2568l25.2248,4.108
		l88.4476,14.4043l49.2384,46.3153c0.7632,0.7178,1.6458,1.2969,2.6082,1.7112l50.869,21.895
		c1.126,0.4846,2.337,0.7332,3.5582,0.7332c0.2206,0,0.4414-0.0081,0.6622-0.0244l43.2814-3.1931l-19.3121,173.0904
		c-0.4905,4.3963,2.2865,8.4972,6.5506,9.6738c0.7969,0.2198,1.6018,0.3254,2.3955,0.3254c3.4533,0,6.6983-1.9978,8.189-5.2712
		l73.2834-160.9161c0.0248-0.0545,0.0491-0.1092,0.0728-0.1642l33.2338-77.0131c1.671-3.8721,0.4291-8.3852-2.9875-10.8574
		l-65.0118-47.0405l67.13-57.4076c2.075-1.7744,3.2323-4.3948,3.1462-7.1236l-2.3566-74.7498
		c0.5682-9.6641,1.7699-19.6755,3.0413-30.2674c2.3635-19.6915,4.8075-40.0534,3.0191-58.8864
		c-2.142-22.5567-10.1458-39.5214-24.4688-51.8635c-0.0856-0.0738-0.1725-0.1459-0.2608-0.2164
		c-25.9153-20.6834-57.0173-33.5684-89.9436-37.2621C363.0638,86.399,345.9744,85.4761,328.497,85.4761L328.497,85.4761z"/>
</g>
<polygon style="fill:#5D7587;" points="180.3598,229.2902 149.5585,287.2124 161.5494,309.4676 194.5757,269.3789 "/>
<polygon style="fill:#5D7587;" points="329.7805,223.626 288.7572,309.4676 316.7063,341.7485 390.4954,316.8269 "/>
<polygon style="fill:#5D7587;" points="202.9638,303.059 179.2069,349.9106 196.149,349.5416 213.5304,358.6118 "/>
<line style="fill:#E5F4F4;stroke:#5D7587;stroke-width:9;stroke-linecap:round;stroke-linejoin:round;stroke-miterlimit:10;" x1="154.9518" y1="402.8456" x2="146.3514" y2="433.4444"/>
<line style="fill:#E5F4F4;stroke:#5D7587;stroke-width:9;stroke-linecap:round;stroke-linejoin:round;stroke-miterlimit:10;" x1="182.7768" y1="408.317" x2="175.637" y2="439.7577"/>
<line style="fill:#E5F4F4;stroke:#5D7587;stroke-width:9;stroke-linecap:round;stroke-linejoin:round;stroke-miterlimit:10;" x1="213.5304" y1="418.145" x2="207.8258" y2="444.3444"/>
</svg>
