<?xml version="1.0" encoding="utf-8"?>
<!-- Generator: Adobe Illustrator 26.5.1, SVG Export Plug-In . SVG Version: 6.00 Build 0)  -->
<svg version="1.1" id="Layer_3" xmlns="http://www.w3.org/2000/svg" xmlns:xlink="http://www.w3.org/1999/xlink" x="0px" y="0px"
	 viewBox="0 0 612 792" style="enable-background:new 0 0 612 792;" xml:space="preserve">
<g>
	<path style="fill:#E5F4F4;" d="M369.9805,750.7354c-0.5049,0-1.0176-0.0859-1.5176-0.2646
		c-2.1465-0.7695-3.3789-3.0234-2.8662-5.2461l46.2656-200.9043l-96.0186-18.7549c-0.8076-0.1582-1.5566-0.5342-2.166-1.0879
		l-68.3955-62.2148c-0.7285-0.6631-1.2197-1.5459-1.3979-2.5137l-10.2212-55.5039l-113.2603-18.4453
		c-1.3076-0.2129-2.4551-0.9917-3.1362-2.1284s-0.8267-2.5156-0.3979-3.7695l30.022-87.7563l-29.3389-38.3667
		c-0.958-1.2529-1.1904-2.9165-0.6118-4.3843l30.6616-77.7534c3.2104-15.2729,10.6714-44.2695,24.9805-69.6401
		c14.5635-25.8223,32.3291-41.3687,52.8027-46.2061l28.0845-6.6357c19.5444-4.6177,46.1899-7.1606,75.0278-7.1606
		c17.3105,0,34.2314,0.9136,50.292,2.7153c32.082,3.5986,62.3867,16.1533,87.6367,36.3066
		c0.0449,0.0352,0.0879,0.0713,0.1309,0.1079c29.6709,25.5674,24.7139,66.8667,19.9199,106.8062
		c-1.2891,10.7354-2.5068,20.8784-3.0781,30.7417l2.3643,74.9526c0.043,1.3643-0.5361,2.6743-1.5732,3.5615l-74.2441,63.4907
		v66.9995l78.9014,83.2646c1.2998,1.3721,1.6035,3.4092,0.7617,5.1016L374.0098,748.2402
		C373.2295,749.8066,371.6455,750.7354,369.9805,750.7354z"/>
	<path style="fill:#5D7587;" d="M328.4968,46.4983c16.5491,0,33.5686,0.8674,49.7901,2.6872
		c31.2089,3.501,60.7872,15.7623,85.3327,35.3524c35.4919,30.5835,17.9448,87.3051,15.2752,134.0801l2.3693,75.1527
		l-75.8185,64.8376v70.8649l80.1346,84.5677L369.9814,746.2347l47.311-205.439l-100.5861-19.647l-68.3963-62.215l-10.7952-58.6206
		l-91.1633-14.8466l-25.2248-4.108l30.8012-90.0343l-30.8012-40.2786l30.8012-78.1088
		c8.9803-43.0236,31.7184-102.6562,74.4916-112.7624l28.0845-6.6358C273.7836,48.9833,300.4725,46.4983,328.4968,46.4983
		 M328.4969,37.4983c-29.1765,0-56.1893,2.586-76.0624,7.2816l-28.0846,6.6358c-21.7457,5.1379-40.4818,21.4136-55.6877,48.3748
		c-6.2762,11.128-17.8794,35.0335-25.3858,70.5521l-30.5223,77.4016c-1.1574,2.9352-0.6933,6.2622,1.2233,8.7686l27.8765,36.4539
		l-29.2427,85.4787c-0.8579,2.5077-0.5669,5.266,0.7954,7.5395c1.3623,2.2733,3.6574,3.8308,6.2733,4.2568l25.2248,4.108
		l84.9068,13.8277l9.6472,52.3865c0.3567,1.9366,1.3386,3.7027,2.7952,5.0277l68.3963,62.215
		c1.2174,1.1074,2.7153,1.8599,4.3307,2.1754l91.4525,17.863L361.211,744.215c-1.0237,4.4451,1.44,8.9531,5.734,10.4921
		c0.9993,0.3582,2.0247,0.5292,3.0348,0.5292c3.3301,0,6.4985-1.8574,8.0584-4.9904L493.6371,518.052
		c1.6843-3.3832,1.0756-7.4583-1.5239-10.2016l-77.6674-81.9641V362.754l72.6678-62.1433c2.0749-1.7744,3.2322-4.3948,3.1462-7.1236
		l-2.3567-74.7511c0.5684-9.6634,1.77-19.6747,3.0412-30.2659c2.3636-19.6916,4.8076-40.0536,3.0191-58.8864
		c-2.142-22.5568-10.1458-39.5216-24.4688-51.8637c-0.0855-0.0738-0.1725-0.1459-0.2608-0.2164
		c-25.9153-20.6833-57.0173-33.5683-89.9435-37.262C363.0644,38.4213,345.9751,37.4983,328.4969,37.4983L328.4969,37.4983z"/>
</g>
<polygon style="fill:#5D7587;" points="180.3598,181.3123 149.5585,239.2345 161.5493,261.4897 194.5757,221.401 "/>
<polygon style="fill:#5D7587;" points="329.7804,175.6481 288.7571,261.4897 316.7063,293.7707 390.4953,268.8491 "/>
<polygon style="fill:#5D7587;" points="202.9638,255.0811 179.2069,301.9328 196.149,301.5638 213.5303,310.634 "/>
<line style="fill:#E5F4F4;stroke:#5D7587;stroke-width:9;stroke-linecap:round;stroke-linejoin:round;stroke-miterlimit:10;" x1="154.9518" y1="354.8677" x2="146.3514" y2="385.4666"/>
<line style="fill:#E5F4F4;stroke:#5D7587;stroke-width:9;stroke-linecap:round;stroke-linejoin:round;stroke-miterlimit:10;" x1="182.7768" y1="360.3392" x2="175.637" y2="391.7798"/>
<line style="fill:#E5F4F4;stroke:#5D7587;stroke-width:9;stroke-linecap:round;stroke-linejoin:round;stroke-miterlimit:10;" x1="213.5303" y1="370.1672" x2="207.8258" y2="396.3665"/>
</svg>
