<?xml version="1.0" encoding="utf-8"?>
<!-- Generator: Adobe Illustrator 26.5.1, SVG Export Plug-In . SVG Version: 6.00 Build 0)  -->
<svg version="1.1" id="Layer_3" xmlns="http://www.w3.org/2000/svg" xmlns:xlink="http://www.w3.org/1999/xlink" x="0px" y="0px"
	 viewBox="0 0 612 792" style="enable-background:new 0 0 612 792;" xml:space="preserve">
<g>
	<path style="fill:#E0493B;" d="M135.8657,740.0225c-8.3398,0-15.9868-3.8252-20.9795-10.4941
		c-4.1924-5.5996-5.9531-12.4961-4.958-19.4199s4.627-13.0449,10.2261-17.2373l50.4766-37.79
		c-15.5962-16.5801-24.1299-38.0488-24.1299-60.959c0-26.9414,12.4067-52.4619,33.0557-69.2539H58.4775
		c-5.2358,0-9.4951-4.2598-9.4951-9.4951V70.3711c0-5.2354,4.2593-9.4951,9.4951-9.4951h1.5781l47.833,44.707h385.3486
		l55.3887-44.707h1.4131c5.2354,0,9.4951,4.2598,9.4951,9.4951v445.002c0,5.2354-4.2598,9.4951-9.4951,9.4951H398.4814
		c20.6484,16.792,33.0557,42.3125,33.0557,69.2539c0,23.1924-9.124,45.5312-25.2021,62.1035l58.1455,33.5713
		c6.0576,3.4971,10.3906,9.1445,12.2012,15.9004c1.8105,6.7568,0.8818,13.8135-2.6162,19.8711
		c-4.6641,8.0791-13.3613,13.0977-22.6982,13.0977c-4.5732,0-9.0938-1.2148-13.0732-3.5127c0,0-90.1592-52.0547-90.2295-52.0957
		c-2.0449,0.1357-3.9092,0.2021-5.666,0.2021H235.6387c-4.5488,0-9.1841-0.3662-13.8042-1.0889l-70.291,52.626
		C146.9771,738.2148,141.5562,740.0225,135.8657,740.0225z"/>
	<path style="fill:#42161A;" d="M550.0392,64.8759c3.035,0,5.4952,2.4603,5.4952,5.4952v445.0016
		c0,3.0349-2.4602,5.4952-5.4952,5.4952h-164.261c24.9951,14.8339,41.7585,42.0802,41.7585,73.2538v0.0001
		c0,24.9274-10.7151,47.3502-27.788,62.9204l62.732,36.2183c10.6118,6.1268,14.2477,19.696,8.121,30.3077l-0.0001,0.0001
		c-4.1096,7.1181-11.5667,11.0971-19.235,11.0971c-3.7637,0-7.5791-0.9592-11.0728-2.9762l-90.0189-51.9724
		c-0.4081-0.2357-0.8023-0.486-1.1897-0.7431c-2.2088,0.1718-4.4338,0.2861-6.6866,0.2861h-106.76
		c-5.063,0-10.014-0.4672-14.8342-1.3146l-71.6587,53.6494c-3.9885,2.9861-8.6535,4.4274-13.28,4.4274
		c-6.7515,0-13.4201-3.0706-17.7778-8.891v-0.0001c-7.3438-9.809-5.3453-23.714,4.4637-31.0578l54.1517-40.5422
		c-16.1398-15.4937-26.2027-37.2695-26.2027-61.4091v-0.0001c0-31.1736,16.7634-58.4199,41.7585-73.2538H58.4777
		c-3.0349,0-5.4952-2.4603-5.4952-5.4952V70.3711c0-3.0349,2.4603-5.4952,5.4952-5.4952l47.833,44.707h388.3401L550.0392,64.8759
		 M550.0392,56.8759h-2.8257l-2.1989,1.7748l-53.1896,42.9322H109.4672L63.9404,59.0314l-2.3061-2.1554h-3.1566
		c-7.4413,0-13.4952,6.0539-13.4952,13.4952v445.0016c0,7.4413,6.0539,13.4952,13.4952,13.4952h110.7281
		c-5.4388,5.5338-10.1916,11.7409-14.1122,18.4739c-8.2382,14.1476-12.5928,30.3238-12.5928,46.7799
		c0,22.4374,7.8339,43.5527,22.2336,60.3765l-46.9771,35.1708c-13.3246,9.9758-16.0489,28.932-6.0732,42.2565
		c5.6708,7.5745,14.7108,12.0966,24.1819,12.0966c6.5612,0,12.8113-2.0829,18.0747-6.0234l68.9584-51.6277
		c4.2669,0.5905,8.5384,0.889,12.7398,0.889h106.76c1.4854,0,3.0401-0.0449,4.7048-0.1364l89.1903,51.494
		c4.5868,2.6482,9.7989,4.048,15.0728,4.048c10.7616,0,20.7868-5.7849,26.1632-15.0971c8.3225-14.415,3.366-32.9133-11.0491-41.236
		l-53.8268-31.0769c14.6492-16.8591,22.8828-38.61,22.8828-61.1336c0-16.4561-4.3546-32.6324-12.5928-46.78
		c-3.9206-6.7329-8.6735-12.9401-14.1122-18.4739h141.2075c7.4413,0,13.4952-6.0539,13.4952-13.4952V70.3711
		C563.5345,62.9298,557.4806,56.8759,550.0392,56.8759L550.0392,56.8759z"/>
</g>
<g>
	<rect x="372.2908" y="225.2292" style="fill:#42161A;" width="138.17" height="93.78"/>
</g>
<g>
	<rect x="97.4508" y="225.2292" style="fill:#42161A;" width="138.67" height="93.78"/>
</g>
</svg>
