<?xml version="1.0" encoding="utf-8"?>
<!-- Generator: Adobe Illustrator 26.5.1, SVG Export Plug-In . SVG Version: 6.00 Build 0)  -->
<svg version="1.1" id="Layer_3" xmlns="http://www.w3.org/2000/svg" xmlns:xlink="http://www.w3.org/1999/xlink" x="0px" y="0px"
	 viewBox="0 0 800 600" style="enable-background:new 0 0 800 600;" xml:space="preserve">
<polygon style="fill:#A43F68;" points="138.2057,371.7218 150.2538,307.0191 138.2057,298.0945 138.2057,285.6003 
	130.1736,276.6757 133.2972,267.7512 138.2057,272.6597 143.2658,282.4767 146.2377,288.7238 150.2538,283.3691 150.2538,269.9824 
	146.2377,236.5154 150.2538,236.5154 156.358,269.9824 162.4622,270.8748 162.4622,233.8381 168.4022,236.5154 168.4022,268.6437 
	172.1188,268.6437 173.5373,237.8541 179.2584,240.5315 176.8599,271.7672 181.4895,269.0899 186.5506,251.6871 190.414,255.2569 
	183.505,278.9069 176.8599,308.3577 168.4022,312.82 156.358,396.2642 133.2972,405.6349 "/>
<polygon style="fill:#A43F68;" points="644.9653,330.2228 657.0134,265.5201 644.9653,256.5956 644.9653,244.1013 
	645.8577,237.4079 648.9813,228.4834 653.8898,233.3919 650.0254,240.9777 652.9973,247.2249 657.0134,241.8701 657.0134,228.4834 
	655.0127,211.8111 647.6426,203.0485 651.6586,203.0485 659.9073,210.8827 663.1176,228.4834 669.2218,229.3758 669.2218,209.0219 
	663.8671,198.14 669.8071,200.8174 675.1618,209.6154 675.1618,227.1447 678.8784,227.1447 679.6307,210.8159 681.6356,200.3712 
	687.3567,203.0485 685.0197,212.0329 683.6195,230.2683 688.2491,227.5909 690.6509,219.3323 689.2942,211.5268 693.1576,215.0966 
	694.8014,221.8782 690.2645,237.4079 683.6195,266.8588 675.1618,271.321 663.1176,354.7652 640.0568,364.1359 "/>
<polygon style="fill:#A43F68;" points="507.7623,347.514 495.7143,282.8113 507.7623,273.8868 512.812,263.1774 512.812,255.1454 
	510.5808,245.3284 504.7799,247.1133 506.5648,255.1454 499.7303,264.5161 495.7143,259.1614 495.8554,245.7746 496.8225,231.7797 
	503.7463,226.5869 499.7303,226.5869 491.9279,230.8513 489.61,245.7746 483.5058,246.6671 483.5058,226.3131 485.2907,221.6784 
	479.3507,224.3558 477.5658,226.9066 477.5658,244.4359 473.8492,244.4359 473.0969,228.1071 474.6618,223.0171 468.9407,225.6945 
	467.7079,229.3241 469.1081,247.5595 464.4785,244.8822 462.0767,236.6235 463.4334,228.818 459.57,232.3878 457.9262,239.1695 
	462.463,254.6991 469.1081,284.15 477.5658,288.6123 489.61,372.0564 512.6708,381.4272 "/>
<path style="fill:#C75729;" d="M648.9375,384.3154L648.9375,384.3154c1.4402-1.9248-0.5894-4.5169-2.8035-3.5803l-8.2218,3.4781
	c-0.0971,0.0411-0.1875,0.0861-0.2781,0.14c-0.8964,0.5339-6.4629,3.6633-6.9572-0.6441
	c-0.5378-4.6861,8.6884-18.8979,9.8097-22.937c0.7927-2.8559,6.8423-25.5645,10.3186-38.6238
	c0.6318-2.3734-2.3362-4.0069-4.0048-2.2046l-12.8896,13.923c-0.1105,0.1194-0.2084,0.2499-0.292,0.3895l-7.5389,12.5814
	c-1.0058,1.6785-3.501,1.4697-4.2139-0.3526l-9.8912-25.2865c-0.0658-0.1682-0.112-0.3433-0.1378-0.522l3.8574-53.0566
	c-0.0787-0.5463-0.3469-1.0476-0.7576-1.4164l-41.676-3.9767c-0.4408-0.3958-1.0146-0.611-1.607-0.6026l-36.5507-37.7514
	l-9.0258,12.3089c0.1801,0.3264,0.28,0.6884,0.2917,1.061c0.1674,5.2928,25.4805,89.64,22.0359,95.3302
	c-2.9744,4.9134-21.0262,7.8559-27.8765,8.8078c-1.402,0.1949-2.6506-0.8855-2.6707-2.3008l-0.3299-23.2925
	c-0.0081-0.5683-0.2213-1.1146-0.6005-1.538l-8.1931-9.1486c-1.3822-1.5434-3.9403-0.6787-4.1026,1.3868l-2.2692,28.8775
	c-0.0598,0.7614-0.4851,1.4464-1.1408,1.8379l-11.9016,7.1046c-1.1122,0.664-2.5519,0.3051-3.2224-0.8032l-3.5169-5.813
	c-0.0651-0.1077-0.1215-0.2204-0.1686-0.337l-10.8398-26.8344c-0.0885-0.2191-0.2065-0.4196-0.3557-0.6029
	c-2.057-2.5265-17.7412-21.4174-24.7443-18.8147c-6.5984,2.4524-55.541-39.3407-57.7436-39.1503
	c-0.3043,0.0263-0.5958,0.1096-0.8673,0.2496c-2.8716,1.4805,14.3011,30.8625,6.8272,21.7496
	c-8.1541-9.9425-11.2477-28.6736-11.8044-34.7005c-0.422-4.5682-0.0157,17.7795,0.6377,9.8568
	c0.1504-1.8233-31.2985-13.3752-32.9403-12.568l20.5853,14.6727c-0.8165,0.4014-1.3288,1.2373-1.3159,2.147l-32.6646,20.0563
	c0.0008,0.0564-0.0002,0.1096-0.0035,0.1658c-0.1037,1.799,37.5064,75.5911,37.0765,77.5505
	c-0.4428,2.0179-7.8788,9.4991-10.6875,10.8799c-2.8087,1.3809-20.6318,7.6681-22.0457,7.6881
	c-1.4138,0.02-39.5875,0.5607-42.8769,1.2778c-3.2895,0.7171-3.2455-29.4575-3.2929-32.8094
	c-0.5529-39.0382,10.8541,7.6108-11.5002-14.4315c-0.3145-0.3101-0.7123-0.5354-1.1428-0.6342l-6.9185-1.5881
	c-2.1515-0.4938-13.4091-5.0948-12.0702-3.3398c0.5435,0.7124,10.6179,8.4247,10.734,8.8904
	c0.4438,1.78,5.7303,12.8929,6.2226,17.8831c0.062,0.6286-3.1954,12.5176-3.6003,13.0025l-12.0176,17.787
	c0,0-26.5083,18.4818-29.0047,19.1877c-2.2576,0.6384-13.7025-30.807-19.2035-31.8775c-0.6041-0.1176-1.138-0.4641-1.4847-0.9725
	c-2.1596-3.167-25.5842,8.1911-18.5796-10.8802c8.1697-22.2433,20.0289-30.0192,20.0148-32.7011
	c-0.0141-2.6819,26.1825-19.432,26.154-21.4432c-0.0285-2.0112,20.2529-13.2881,20.2529-13.2881l-34.2643,8.2563
	c0.1798,0.7532-0.0221,1.5467-0.54,2.1224l-24.0008,26.6742c-0.1501,0.1668-24.0119-5.7741-24.2029-5.6563
	c-2.7504,1.6967-24.632,15.3531-26.7509,21.6657c-2.1896,6.5232,0.4038,38.7507,0.5708,40.7927
	c0.0058,0.071,0.0144,0.1365,0.0267,0.2067l2.0591,11.8117c0.2534,1.4537-0.8771,2.7798-2.3526,2.7596l-19.882-0.2729
	c-0.8212-0.0113-1.5773-0.4495-1.9952-1.1565l-15.5692-26.3372c-0.4114-0.6959-1.1509-1.1322-1.959-1.1558l-9.7369-0.2833
	c-1.8864-0.0549-3.0668,2.0174-2.0591,3.613c2.9438,4.6612,7.5064,12.1811,7.2049,13.5548c-0.3365,1.5333-2.7949,6.968-3.9563,9.49
	c-0.3695,0.8024-1.1556,1.3263-2.0383,1.3635l-43.6346,1.8358c-1.5214,0.064-2.7041-1.3042-2.4118-2.7987
	c1.9637-10.0403,8.3568-42.6476,9.1131-45.4913c0.8951-3.3654,34.9947-25.3053,36.3515-29.3477
	c1.2721-3.7898,7.0969-67.6453,5.9845-70.5173c-0.0752-0.1942-0.1761-0.3773-0.2998-0.5448L84.6173,211.509
	c-1.4476-1.9601-4.5546-0.7007-4.2288,1.7141l1.6252,12.0472c0.1711,1.2685-0.6968,2.4401-1.9609,2.6405
	c-6.3881,1.0125-24.0721,3.6662-24.0955,2.0183c-0.0285-2.0112,1.1669-36.835,2.0945-41.5419
	c0.9276-4.7069-24.5647-25.1127-28.3634-27.0705s-3.6753,6.7574-4.0801,11.4568c-0.4048,4.6995-2.1081,44.2242-3.0222,46.2488
	c-0.6382,1.4135-6.3771,3.7218-8.4528,8.9786c-0.6762,1.7124-2.9273,2.078-4.0619,0.6281l-13.5937-17.3705
	c-1.2243-1.5645-3.7164-1.0038-4.1527,0.9343l-4.9101,21.8114c-0.1332,0.5916-0.033,1.2118,0.2796,1.7314l-20.7097,64.59
	c-46.8073-23.4901,66.541-76.7497,7.1396,22.7575c-2.717,4.5514,7.0804,20.6646,3.1236,25.8811
	c-4.6273,6.1003-5.866,12.5673-7.0424,29.3473c-1.0255,14.6265,8.8501,40.307,11.4017,46.6575
	c0.354,0.8811,1.1993,1.4602,2.1488,1.4747l862.8169,13.1499c1.2382,0.0189,2.2795-0.9243,2.383-2.1583l7.0521-84.143
	c0.0149-0.1773,0.0099-0.3534-0.0154-0.5295c-0.5891-4.0956-7.9066-54.6897-10.1949-56.5874
	c-1.6471-1.366-27.5892-7.0263-41.4117-19.2325c-1.9951-1.7618-4.9194,0.6228-3.6015,2.9352l15.3218,6.7307
	c0.2215,0.3885,0.3278,0.8321,0.3064,1.2788l-0.951,19.8853c-0.0601,1.2562-1.0966,2.2436-2.3542,2.2428l-41.383-0.0271
	c-0.977-0.0006-1.8521-0.6044-2.1996-1.5174l19.8069-14.7122c-0.2575-0.6765-0.1904-1.4327,0.1834-2.0527
	c3.4784-5.7685,6.6672-46.6307,9.4636-48.4833c2.8006-1.8553,4.7399-39.0608,7.4335-45.0829
	c0.2858-0.6389,0.2831-1.3615-0.0191-1.9929l-5.3358-11.1483c-1.0778-2.2519-4.4585-1.4997-4.4797,0.9968l-0.0809,9.5021
	c-0.0061,0.7171-0.3386,1.3898-0.902,1.8336c-2.4513,1.9309-9.5613,7.1834-16.4119,8.9104
	c-8.4545,2.1313-46.9889-14.3287-53.0965-12.9011c-5.6508,1.3208-30.781,69.9722-33.632,75.5155
	c-0.2304,0.448-0.3104,0.9559-0.2294,1.4531c0.8345,5.1227,0.8114,20.3959,1.3018,24.67c0.5378,4.6861-6.6765,61.113-8.0998,60.4626
	c-0.7715-0.3525-17.6408,16.4644-32.9306,31.942C650.4359,389.4699,647.1807,386.6632,648.9375,384.3154z"/>
<polygon style="fill:#A02121;" points="160.2938,362.351 160.2938,349.8567 160.2938,341.8246 166.9872,331.9783 187.5136,370.8293 
	162.9712,369.9369 "/>
<polygon style="fill:#A02121;" points="452.5715,314.054 454.8026,347.1794 491.3545,358.7812 491.3931,350.3029 466.4045,334.2388 
	459.2649,300.3257 "/>
<polygon style="fill:#A02121;" points="507.9035,315.9436 504.4331,342.2709 497.1941,348.9643 497.1941,358.7812 
	510.5244,358.7812 504.4331,355.1509 "/>
<polygon style="fill:#A02121;" points="510.5244,337.9202 510.3577,351.7072 521.2902,361.0124 526.645,347.0365 518.5013,350.3029 
	"/>
<polygon style="fill:#A02121;" points="507.9035,315.9436 510.5244,329.3303 513.7044,322.637 "/>
<polygon style="fill:#A02121;" points="549.1022,271.7674 562.419,280.7411 556.9883,306.2655 574.3911,293.1861 "/>
<polygon style="fill:#A02121;" points="551.7035,267.702 573.1223,267.702 593.4686,279.3326 599.4503,294.1531 570.8912,274.8416 
	"/>
<polygon style="fill:#A02121;" points="560.1818,276.6265 534.7469,246.7294 568.3045,299.384 "/>
<path style="fill:#A02121;" d="M593.6494,294.1531c1.3387,2.008,15.816-20.344,15.816-20.344l-6.9621,42.1344l-21.4188,2.625
	l20.7725-30.034L593.6494,294.1531z"/>
<polygon style="fill:#A02121;" points="574.3911,293.1861 566.359,304.3417 566.359,327.3223 551.6335,342.2709 572.6061,370.9898 
	574.3911,337.9202 "/>
<polygon style="fill:#A02121;" points="556.5421,323.6314 556.5421,327.3223 563.0123,323.6314 "/>
<polygon style="fill:#A02121;" points="584.4312,325.4769 599.4023,322.637 607.4099,350.3029 588.2241,365.7805 587.3316,380.353 
	578.4071,375.4853 "/>
<path style="fill:#A02121;" d="M607.4099,323.6314l5.3566,18.6395L607.4099,323.6314z"/>
<polygon style="fill:#A02121;" points="227.2694,301.486 211.2053,317.2575 223.6996,312.349 "/>
<polygon style="fill:#A02121;" points="231.2854,287.2215 237.3897,299.2696 207.5937,322.637 199.5617,332.088 187.5136,322.637 
	202.6415,353.3742 "/>
<polygon style="fill:#A02121;" points="33.5298,167.1096 45.4985,182.2812 51.2943,243.0541 39.3256,238.1457 36.5372,190.3133 "/>
<path style="fill:#A02121;" d="M31.2987,182.7275c0,0-0.8976,33.1069-1.3438,34.4456c-0.4462,1.3387,7.1396-6.6934,7.1396-6.6934
	L31.2987,182.7275z"/>
<polygon style="fill:#A02121;" points="703.3502,332.9511 692.1946,362.7972 675.238,374.38 692.1946,369.0444 "/>
<polygon style="fill:#A02121;" points="679.2541,379.9769 692.1946,374.38 692.1946,380.353 "/>
<polygon style="fill:#A02121;" points="731.9087,327.3223 753.7737,349.4165 725.2153,382.8774 727.8926,370.3831 
	743.9567,355.0999 "/>
<polygon style="fill:#A02121;" points="714.8606,306.2655 739.4945,355.0999 727.8926,365.7805 725.2153,342.2709 
	706.0276,353.6656 714.8606,325.4769 "/>
<polygon style="fill:#A02121;" points="696.2106,327.3223 703.3502,322.637 706.0276,329.3303 710.4305,319.7365 711.8732,286.7002 
	721.4706,243.7535 771.7452,244.1102 777.9924,221.7989 745.3994,257.2493 729.6218,197.1386 726.2751,211.4178 718.7932,236.1676 
	701,272.4209 704.5698,304.103 "/>
<polygon style="fill:#A02121;" points="733.0724,245.5384 765.0518,254.3734 794.459,282.0131 757.746,299.8531 715.8445,295.4172 
	717.0641,293.8398 "/>
<polygon style="fill:#A02121;" points="783.3471,223.5838 777.9924,241.4328 780.6697,258.5399 791.6022,244.1102 "/>
<polygon style="fill:#A02121;" points="776.5795,211.9836 779.48,220.9082 794.8748,202.6129 "/>
<polygon style="fill:#A02121;" points="740.8065,209.4133 743.1683,248.3248 767.283,221.7989 "/>
<polygon style="fill:#A02121;" points="31.2841,243.0541 27.7048,256.4409 43.829,298.5408 "/>
<polygon style="fill:#A02121;" points="62.0831,235.0221 54.9435,244.8391 62.0831,250.4169 49.1837,298.5408 82.1658,229.3741 "/>
<path style="fill:#EFA63B;" d="M196.4959,407.6734l-24.1445-37.3955l-1.5355-7.4807c0.0004,0.0002,5.5421,2.9837,5.5424,2.9833
	c2.6892-4.9909-8.0749-8.1184-7.5376-12.8003c0.5377-4.6861,16.0969,6.9224,14.9757,2.8833
	c-1.1212-4.0391,1.208-51.5219,1.208-51.5219l5.5341,24.7961l25.0597-4.5343l-3.191-8.5666l19.0604-46.0156
	c0.0788-0.5463,0.3469-1.0476,0.7576-1.4164l22.1994,15.1181c0.4408-0.3958,1.0146-0.611,1.607-0.6026l35.2494-22.9142
	l24.608-9.6748c-0.0043,0.0079-10.0662,34.603-10.0614,34.6106c1.4637,2.3105-33.5137,36.6348-29.9496,42.5224
	c2.9734,4.9118,23.3918-17.4326,30.2471-16.4796c1.4032,0.195,2.6573-0.8834,2.6773-2.2999l-0.7833-11.5234
	c0.008-0.5683,0.2213-1.1146,0.6005-1.538l8.1931-9.1485c1.3823-1.5435,3.9403-0.6787,4.1026,1.3868l3.3824,17.1084
	c0.0598,0.7614,0.4851,1.4464,1.1408,1.8379l5.3791-25.6815l13.3597,26.0082l8.5334-1.7232
	c0.0885-0.2191,7.343-2.1399,7.4922-2.3232c2.057-2.5265,10.6047-19.6971,17.6078-17.0944
	c6.5958,2.4514,22.5238-16.2495,24.7313-16.0586c0.3041,0.0263,6.9207,14.9642,7.192,15.1041
	c2.8687,1.4791,7.6731,14.7583,15.1477,5.6443c8.1542-9.9425,3.7083-6.7561,4.2651-12.783
	c0.5567-6.0269-1.8817-33.5533-1.8817-33.5533l12.7064,6.2469c0.8165,0.4014,3.0191,16.5874,3.0063,17.4971l7.3943,3.0295
	c-0.0008,0.0563-2.6814,40.0226-2.6781,40.0789c0.1012,1.7547-11.0538,24.0016-10.6235,25.9625
	c0.4428,2.0179,21.1343-1.3809,23.943,0c2.8087,1.3808,20.3294,27.409,21.7433,27.429c1.4138,0.02,18.3871-10.3576,21.6765-9.6405
	c3.2895,0.7171,24.4459-18.5391,24.4933-21.8911c0.0418-2.9492-1.3525-14.5783,0.1514-17.3162
	c5.3163-9.6781,8.1992-15.5201,8.6255-15.6179l3.2208-17.4007c2.1515-0.4938,5.0068,19.971,3.6678,21.726
	c-0.5435,0.7124,5.3483,17.0399,5.2321,17.5057c-0.4438,1.78-5.7303,12.8929-6.2226,17.8831
	c-0.062,0.6287,3.1955,12.5176,3.6003,13.0026l26.3394,0.6233c0,0,12.4956,27.1449,14.7245,28.4723
	c8.8196,5.2528,7.1356-27.4018,12.6365-28.4723c0.6041-0.1176,7.4528,3.2404,8.0101,3.5015
	c8.2103,3.8453,37.4886,13.9326,30.4839-5.1387c-8.1697-22.2433-12.3215-36.5154-12.3075-39.1973
	c0.0141-2.6819,10.9625,0.2376,10.991-1.7736s1.9952-14.3392,1.9952-14.3392l9.5328-14.2317l12.2157,48.7317
	c5.3966,27.2036,55.0298-3.4447,26.5807,6.9476c89.8799-32.8327-44.0137,73.2664-18.1544,34.6451l-2.5653,14.7154l39.2474-28.9995
	l-21.2076,11.3637l35.7797-19.769c3.7612,7.6286-7.4252,23.3102-6.9824,25.3281c0.4428,2.0179,4.5609,10.7931,4.5609,10.7931
	l12.2684-1.5901c0,0,10.6005-11.3967,9.7054-14.7621c-0.8951-3.3653-11.8068-28.8938-13.1636-32.9362
	c-1.31-3.9027-10.3234-33.483-10.0568-35.4107c0.0013-0.0095,0.0044-0.016,0.0101-0.0237l4.9806-12.2175l20.3062,10.5092
	c-0.171,1.2681,8.3406-16.6083,9.6044-16.4081c6.3893,1.0127,27.4324,3.4042,27.4324,1.7563
	c0-23.2037-10.3009-33.3634-11.2286-38.0703c-0.9276-4.7069,17.4025-12.7994,29.8389-68.0084
	c0.9391-4.1691,4.431,41.0019,4.8358,45.7014c0.4048,4.6995,7.9039,41.0144,8.8179,43.039
	c0.9141,2.0245,7.7364,19.555,7.7364,19.555l19.2025-24.5377l6.0011,26.6579c0.1332,0.5916,0.033,1.2118-0.2795,1.7314
	l6.0253,23.8288c27.0095-13.5547-1.4062,2.3715-0.9608,3.1177c2.7169,4.5514-7.0804,20.6646-3.1236,25.8811
	c4.6273,6.1003,5.866,12.5673,7.0424,29.3473c1.1765,16.78-11.9943,48.1084-11.9943,48.1084l-866.5723,13.2071l-7.2582-86.6015
	c0,0,0,0,0,0c0-0.0002,7.8478-54.8725,10.2326-56.8503c2.3849-1.9778,24.2375-7.2925,24.2375-7.2925l5.1147-1.6792l35.9917,23.1622
	l24.7859-25.4348l-0.7257-10.958c0,0-37.6193,7.3283-40.7221,5.2728c-3.1028-2.0555-17.7773-33.1514-17.7773-33.1514
	l-2.2852-28.5105l29.0722,31.3941c0,0,53.6288-40.385,62.1451-38.5156c5.9269,1.301-1.4286,20.9759,4.679,22.4035
	c5.6507,1.3208,21.1817-16.6114,19.5091-10.6065c-5.4035,19.3994,2.2075,32.0445,2.1265,32.5418
	c-0.8345,5.1227,6.6098,35.9042,6.1193,40.1782c-0.5378,4.6861,6.6764,61.113,8.0998,60.4626
	c1.4227-0.6501-0.1897,28.8543,23.2741,30.8938C181.9406,383.1491,175.4714,394.9255,196.4959,407.6734z"/>
<path style="fill:#FEC573;" d="M33.9374,268.4034l31.8486-21.0856l12.0685,20.3618l-9.6299,31.2929l-33.0407,32.9076l44.298-24.5424
	l17.9302-44.723c0,0-6.362-24.748-5.4662-26.5329S33.9374,268.4034,33.9374,268.4034z"/>
<path style="fill:#FEC573;" d="M52.3073,413.5493l11.8893-36.9191l13.5455-5.6404c0,0-39.7267-37.3759-38.8342-38.7146
	s64.978-46.02,64.978-46.02l-14.21,44.4377l9.4851,11.5779l19.3038,22.3113l-5.4708,23.2037l5.4708,25.7634H52.3073z"/>
<path style="fill:#FEC573;" d="M232.9272,405.3002l16.6127-18.7415c0,0,7.2047-9.9422,7.6509-10.9951
	s-14.5728-38.0897-14.5728-38.0897l14.051-24.0962l-1.7735,26.2979l13.9667,7.169c0,0,13.3173,53.1008,13.3173,54.4395
	c0,1.3387-13.833,18.9071-13.833,18.9071L232.9272,405.3002z"/>
<polygon style="fill:#FEC573;" points="381.3723,329.5534 358.2413,323.6314 358.4179,361.3997 364.9396,345.3944 
	397.2396,338.8948 424.4593,314.1587 399.6816,328.4379 409.7339,308.804 "/>
<polygon style="fill:#FEC573;" points="437.7638,261.8029 434.7225,285.6003 424.0131,298.5408 439.1848,292.2936 
	445.3496,288.5764 "/>
<polygon style="fill:#FEC573;" points="226.8193,295.4891 235.2597,276.0064 235.2597,290.7318 235.2597,305.4573 264.2342,297.087 
	257.1556,286.5334 239.6775,296.1542 "/>
<polygon style="fill:#FEC573;" points="187.5136,332.2752 184.1175,375.4853 199.1776,371.9005 195.6078,345.3552 "/>
<polygon style="fill:#FEC573;" points="220.3721,328.1176 196.8042,332.088 208.1636,370.8149 224.4658,333.3464 "/>
<polygon style="fill:#FEC573;" points="421.782,365.7805 404.1205,375.4853 427.6004,413.8711 434.2763,377.2996 419.1984,377.3665 
	434.2763,352.0878 "/>
<polygon style="fill:#FEC573;" points="382.5141,350.2441 366.8864,366.8133 371.8047,382.8774 387.0278,363.6897 
	416.8735,346.2869 403.4343,346.2869 "/>
<polygon style="fill:#FEC573;" points="311.0868,300.4254 318.85,316.0919 298.7333,342.2709 280.3327,352.9803 291.4841,388.2321 
	299.9624,399.834 298.1775,385.6568 306.5977,340.6343 344.5626,316.9843 335.8066,297.7967 324.6509,312.0759 317.7376,294.45 "/>
<polygon style="fill:#FEC573;" points="350.9789,346.2056 319.212,342.5472 323.1196,391.8019 342.6394,353.1885 365.2415,387.589 
	352.8266,352.0878 "/>
<polygon style="fill:#FEC573;" points="445.3496,296.979 428.646,306.2655 426.8212,323.0832 414.4576,336.023 424.0131,342.2709 
	439.1848,319.7365 "/>
<polygon style="fill:#FEC573;" points="230.6732,287.3588 219.8022,319.0671 227.2276,332.4245 216.5182,360.9128 
	207.5937,385.1085 213.698,393.1406 219.8022,377.2996 243.8906,373.9529 236.1521,356.5501 243.5315,321.4997 264.149,295.4025 
	230.8773,312.3738 "/>
<polygon style="fill:#FEC573;" points="287.2903,266.4933 264.5951,284.0933 271.7718,294.6484 258.826,312.82 258.826,327.3223 
	267.979,336.4699 279.436,346.7331 287.9143,342.2709 271.2432,322.637 293.1909,285.1419 290.5383,286.8891 307.4645,258.1981 "/>
<polygon style="fill:#FEC573;" points="112.9939,300.8703 94.6987,320.5042 99.1609,337.0146 112.9939,344.6004 122.8109,351.2938 
	125.4882,365.1268 121.4722,379.6291 133.9665,373.3193 144.6759,368.1101 133.0741,363.2423 128.6118,318.2731 112.9939,325.4127 
	105.8543,318.2731 "/>
<polygon style="fill:#FEC573;" points="100.3922,264.5105 116.2336,255.7949 118.3486,291.0468 102.2845,275.4289 94.6987,247.3167 
	96.9298,235.7148 24.1509,260.253 11.0498,227.2206 41.8653,252.4937 62.0831,235.0221 99.2087,211.0806 "/>
<polygon style="fill:#FEC573;" points="113.8639,229.7308 108.7974,274.96 122.4154,275.7833 119.7145,258.0847 104.7166,264.0934 
	105.3006,239.707 "/>
<polygon style="fill:#FEC573;" points="412.5332,358.3254 394.9485,370.3831 387.8688,394.9255 402.5419,370.9898 424.4593,356.045 
	"/>
<polygon style="fill:#FEC573;" points="464.1734,365.7805 487.2666,380.2 480.2375,394.9255 475.72,382.9795 "/>
<polygon style="fill:#FEC573;" points="449.8942,365.7805 439.1848,391.8019 454.3564,397.1566 475.72,393.1406 469.9743,382.9795 
	458.8187,382.9795 457.4524,362.7972 "/>
<polygon style="fill:#FEC573;" points="439.1848,350.3029 439.1848,362.7972 459.6831,353.6656 "/>
<polygon style="fill:#FEC573;" points="494.2743,362.7972 526.645,347.0365 529.0778,370.981 508.3497,394.9255 507.011,379.9769 
	"/>
<path style="fill:#F7954E;" d="M494.5167,382.9795l2.6773,8.8224c0,0-5.3547,0.8925-5.8009,0S494.5167,382.9795,494.5167,382.9795z"
	/>
<polygon style="fill:#FEC573;" points="541.9316,293.1861 532.1771,319.6249 531.512,364.2867 548.9063,380.7227 544.3702,358.3254 
	543.7052,323.0832 "/>
<polygon style="fill:#FEC573;" points="550.4064,364.5822 572.3037,358.3254 557.0999,381.4559 "/>
<polygon style="fill:#FEC573;" points="572.4849,375.5993 591.2482,392.1985 602.5033,359.8528 626.1754,365.7805 
	611.1066,379.0916 602.6283,411.6852 579.8708,405.438 "/>
<polygon style="fill:#FEC573;" points="636.4164,365.7805 623.9221,374.38 627.4919,391.8019 "/>
<polygon style="fill:#F7954E;" points="615.1844,382.9795 615.1844,391.8019 619.0607,391.8019 "/>
<path style="fill:#FEC573;" d="M647.3909,289.5568l-7.6936,23.8891l-6.0515,3.5767l11.9938,30.9897l-11.9044,2.2906l26.1874-12.137
	c0,0-12.5019-8.4489-14.283-9.3413C643.8585,327.9322,647.3909,289.5568,647.3909,289.5568z"/>
<path style="fill:#FEC573;" d="M647.4658,324.5613l10.1538,2.3077l-3.7996-8.2739c0,0-3.0991-9.5159-4.4339-11.3008
	C648.0512,305.5093,647.4658,324.5613,647.4658,324.5613z"/>
<polygon style="fill:#FEC573;" points="666.616,346.9719 708.6469,346.7468 664.5286,382.9795 657.4342,364.1359 "/>
<polygon style="fill:#FEC573;" points="642.2173,346.7331 663.3528,340.8433 654.7117,350.3029 652.5569,361.3997 
	660.8362,393.1406 633.5777,398.9415 647.2069,382.6543 "/>
<polygon style="fill:#F7954E;" points="681.9314,393.1406 692.1946,403.85 673.0069,403.85 "/>
<polygon style="fill:#FEC573;" points="722.3412,361.1078 693.7564,369.5417 700.6646,374.38 712.9441,390.7374 721.0604,394.9255 
	726.1595,371.1406 "/>
<polygon style="fill:#FEC573;" points="360.2029,314.054 370.9123,293.1861 377.6056,293.1861 402.5419,283.8153 402.5419,304.3417 
	"/>
<polygon style="fill:#FEC573;" points="-13.6237,378.8662 -5.1454,331.1392 -15.1855,295.4411 -2.9143,277.369 -0.5537,291.1781 
	16.2951,298.5408 33.6762,309.7203 9.1338,342.4063 "/>
<polygon style="fill:#FEC573;" points="13.0394,379.7538 20.179,342.7171 36.6894,342.7171 60.1805,366.3671 36.6894,356.5501 "/>
<polygon style="fill:#FAAB5D;" points="22.2939,381.2862 40.2592,364.5822 48.7374,393.3899 "/>
<polygon style="fill:#FAAB5D;" points="314.3878,349.0935 304.8709,388.6783 319.1501,394.9255 312.0105,384.6527 "/>
<polygon style="fill:#FEC573;" points="349.6616,316.9843 315.9641,339.2956 346.9622,341.498 "/>
<polygon style="fill:#FEC573;" points="738.6302,304.8792 727.6863,296.9619 731.3509,338.9559 758.2672,377.3665 
	758.3356,356.5942 "/>
<polygon style="fill:#FEC573;" points="758.3356,295.4231 755.5275,298.5408 764.5143,315.9436 "/>
<polygon style="fill:#FEC573;" points="760.0209,323.0832 796.6581,337.3624 812.5332,355.0999 771.6227,370.9898 
	789.0255,349.4662 "/>
<polygon style="fill:#F7954E;" points="765.3755,344.4319 767.1605,358.3254 781.8859,358.3254 "/>
<polygon style="fill:#FEC573;" points="767.452,295.4231 767.1605,315.9436 784.1171,327.3223 775.6388,301.5528 "/>
<polygon style="fill:#FEC573;" points="798.7798,205.2411 775.7072,245.8921 788.6477,287.6141 775.7072,303.4551 
	792.8184,332.4245 794.0024,303.4551 813.6364,285.1599 792.5878,249.9574 "/>
<polygon style="fill:#FEC573;" points="800.2338,217.7799 796.2224,245.4458 809.1016,275.7398 "/>
<polygon style="fill:#FEC573;" points="831.3738,283.9471 806.856,322.637 802.0776,334.8109 820.1498,349.0902 814.795,369.1703 
	829.5205,380.9252 832.1978,391.9278 834.8752,350.8751 825.0582,361.5845 826.8431,336.7074 812.5639,331.2411 "/>
<polygon style="fill:#FEC573;" points="835.433,297.2021 819.8151,327.3223 827.624,334.2388 829.632,342.2709 "/>
<linearGradient id="SVGID_1_" gradientUnits="userSpaceOnUse" x1="619.0607" y1="418.9267" x2="714.8606" y2="418.9267">
	<stop  offset="0" style="stop-color:#562C48"/>
	<stop  offset="0.0904" style="stop-color:#65354C"/>
	<stop  offset="0.2168" style="stop-color:#753E4F"/>
	<stop  offset="0.368" style="stop-color:#814551"/>
	<stop  offset="0.5671" style="stop-color:#884952"/>
	<stop  offset="1" style="stop-color:#8A4A53"/>
</linearGradient>
<ellipse style="fill:url(#SVGID_1_);" cx="666.9606" cy="418.9267" rx="47.8999" ry="1.2409"/>
</svg>
