<?xml version="1.0" encoding="utf-8"?>
<!-- Generator: Adobe Illustrator 26.5.1, SVG Export Plug-In . SVG Version: 6.00 Build 0)  -->
<svg version="1.1" id="Layer_2" xmlns="http://www.w3.org/2000/svg" xmlns:xlink="http://www.w3.org/1999/xlink" x="0px" y="0px"
	 viewBox="0 0 800 600" style="enable-background:new 0 0 800 600;" xml:space="preserve">
<polygon style="fill:#A43F68;" points="126.2973,385.2554 138.3454,320.5527 126.2973,311.6282 126.2973,299.1339 
	118.2653,290.2094 121.3888,281.2849 126.2973,286.1934 131.3574,296.0103 134.3294,302.2575 138.3454,296.9028 138.3454,283.516 
	134.3294,250.0491 138.3454,250.0491 144.4496,283.516 150.5538,284.4084 150.5538,247.3717 156.4938,250.0491 156.4938,282.1773 
	160.2104,282.1773 161.629,251.3878 167.3501,254.0651 164.9515,285.3009 169.5812,282.6236 174.6423,265.2208 178.5057,268.7906 
	171.5966,292.4405 164.9515,321.8914 156.4938,326.3537 144.4496,409.7978 121.3888,419.1685 "/>
<polygon style="fill:#A43F68;" points="633.0569,343.7564 645.105,279.0537 633.0569,270.1292 633.0569,257.6349 633.9493,250.9415 
	637.0729,242.017 641.9814,246.9255 638.1171,254.5114 641.089,260.7585 645.105,255.4038 645.105,242.017 643.1043,225.3448 
	635.7343,216.5822 639.7503,216.5822 647.999,224.4164 651.2092,242.017 657.3135,242.9095 657.3135,222.5555 651.9587,211.6737 
	657.8987,214.3511 663.2534,223.1491 663.2534,240.6784 666.97,240.6784 667.7224,224.3495 669.7273,213.9048 675.4484,216.5822 
	673.1114,225.5665 671.7111,243.8019 676.3408,241.1246 678.7426,232.8659 677.3859,225.0605 681.2493,228.6303 682.8931,235.4119 
	678.3562,250.9415 671.7111,280.3924 663.2534,284.8547 651.2092,368.2989 628.1484,377.6696 "/>
<polygon style="fill:#A43F68;" points="501.2108,328.9963 489.1627,264.2936 501.2108,255.3691 506.2604,244.6597 
	506.2604,236.6276 504.0293,226.8107 498.2283,228.5956 500.0132,236.6276 493.1787,245.9984 489.1627,240.6437 489.3038,227.2569 
	490.2709,213.262 497.1947,208.0692 493.1787,208.0692 485.3763,212.3336 483.0584,227.2569 476.9542,228.1494 476.9542,207.7954 
	478.7391,203.1607 472.7992,205.8381 471.0143,208.3889 471.0143,225.9182 467.2976,225.9182 466.5453,209.5894 468.1102,204.4994 
	462.3892,207.1768 461.1563,210.8064 462.5565,229.0418 457.9269,226.3645 455.5251,218.1058 456.8818,210.3003 453.0184,213.8701 
	451.3746,220.6518 455.9115,236.1814 462.5565,265.6323 471.0143,270.0945 483.0584,353.5387 506.1193,362.9095 "/>
<path style="fill:#C75729;" d="M635.9492,386.3587L635.9492,386.3587c1.4402-1.9248-0.5894-4.5169-2.8035-3.5803l-8.2218,3.4781
	c-0.0971,0.0411-0.1875,0.0861-0.2781,0.14c-0.8964,0.5339-6.4629,3.6634-6.9572-0.6441c-0.5378-4.6861,8.6884-18.898,9.8096-22.937
	c0.7928-2.8559,6.8424-25.5645,10.3187-38.6238c0.6318-2.3734-2.3362-4.0069-4.0048-2.2046l-12.8896,13.923
	c-0.1105,0.1194-0.2084,0.2499-0.292,0.3895l-7.5389,12.5814c-1.0058,1.6785-3.501,1.4697-4.2139-0.3526l-9.8912-25.2866
	c-0.0658-0.1681-0.112-0.3433-0.1378-0.5219l3.8574-53.0566c-0.0787-0.5463-0.3469-1.0476-0.7576-1.4164l-80.7036-81.4054
	c-0.4408-0.3958-1.0146-0.611-1.607-0.6026l-48.955-25.1578l42.4061,77.144c0.1801,0.3264,0.28,0.6884,0.2917,1.061
	c0.1674,5.2928,25.4805,89.64,22.0359,95.3302c-2.9744,4.9134-21.0263,7.8559-27.8765,8.8078
	c-1.402,0.1948-2.6506-0.8855-2.6707-2.3008l-0.3299-23.2925c-0.0081-0.5683-0.2213-1.1146-0.6005-1.538l-8.1931-9.1485
	c-1.3823-1.5435-3.9403-0.6787-4.1026,1.3868l-2.2692,28.8776c-0.0598,0.7614-0.4851,1.4464-1.1408,1.8379l-11.9016,7.1046
	c-1.1122,0.664-2.5519,0.3051-3.2224-0.8032l-3.5169-5.813c-0.0651-0.1077-0.1215-0.2204-0.1686-0.337l-10.8398-26.8344
	c-0.0885-0.2191-0.2065-0.4196-0.3557-0.6028c-2.057-2.5265-17.7412-21.4174-24.7443-18.8147
	c-6.5984,2.4524-36.8259-17.197-39.0284-17.0065c-0.3043,0.0263-0.5958,0.1096-0.8673,0.2496
	c-2.8716,1.4805-20.392,9.9724-27.8658,0.8594c-8.1542-9.9425-11.2477-28.6736-11.8044-34.7005
	c-0.422-4.5682-0.0157,17.7795,0.6378,9.8568c0.1504-1.8233-31.2985-13.3752-32.9403-12.568l20.5854,14.6727
	c-0.8165,0.4014-1.3288,1.2373-1.3159,2.147l2.0285,40.9465c0.0008,0.0563-0.0002,0.1096-0.0035,0.1658
	c-0.1037,1.7991,18.7913,53.4474,18.3614,55.4068c-0.4428,2.0179-7.8788,9.499-10.6875,10.8799
	c-2.8087,1.3808-20.6318,7.6681-22.0457,7.6881c-1.4138,0.02-39.5875,0.5607-42.8769,1.2778
	c-3.2895,0.7171-3.2455-29.4575-3.2929-32.8094c-0.5529-39.0382,10.8541,7.6108-11.5002-14.4315
	c-0.3145-0.3101-0.7123-0.5354-1.1428-0.6342l-6.9185-1.5881c-2.1515-0.4938-13.4091-5.0948-12.0701-3.3398
	c0.5435,0.7124,10.6178,8.4247,10.734,8.8905c0.4438,1.78,5.7303,12.8929,6.2226,17.8831
	c0.062,0.6287-3.1955,12.5176-3.6003,13.0026l-12.0176,17.787c0,0-26.5083,18.4818-29.0047,19.1877
	c-2.2576,0.6384-13.7025-30.807-19.2035-31.8775c-0.6041-0.1176-1.138-0.464-1.4848-0.9725
	c-2.1596-3.167-25.5842,8.1911-18.5796-10.8801c8.1697-22.2433,20.0289-30.0192,20.0148-32.7011
	c-0.0141-2.6819,27.1187-55.747,27.0902-57.7582c-0.0285-2.0112,20.2529-13.2881,20.2529-13.2881l-34.2643,8.2562
	c0.1799,0.7532-0.022,1.5468-0.54,2.1224l-24.0008,26.6742c-0.1501,0.1668-24.9481,30.5409-25.1391,30.6588
	c-2.7503,1.6967-24.632,15.3531-26.7509,21.6657c-2.1896,6.5232,0.4038,38.7507,0.5708,40.7927
	c0.0058,0.071,0.0144,0.1365,0.0267,0.2067l2.0591,11.8116c0.2534,1.4538-0.8771,2.7798-2.3526,2.7596l-19.882-0.2729
	c-0.8212-0.0113-1.5773-0.4495-1.9952-1.1565l-15.5692-26.3372c-0.4114-0.6959-1.1509-1.1322-1.959-1.1557l-9.7369-0.2833
	c-1.8864-0.0549-3.0668,2.0174-2.0591,3.613c2.9438,4.6612,7.5064,12.1811,7.2049,13.5548c-0.3365,1.5333-2.7949,6.9681-3.9563,9.49
	c-0.3695,0.8024-1.1556,1.3263-2.0383,1.3634l-43.6345,1.8358c-1.5214,0.064-2.7041-1.3042-2.4118-2.7987
	c1.9637-10.0403,8.3568-42.6476,9.1131-45.4913c0.8951-3.3653,34.9946-25.3053,36.3515-29.3477
	c1.2721-3.7898-7.5874-26.8841-8.6998-29.7561c-0.0752-0.1942-0.1761-0.3773-0.2998-0.5448l-24.2524-32.8386
	c-1.4476-1.9601-4.5546-0.7007-4.2288,1.7141l1.6252,12.0472c0.1711,1.2685-0.6968,2.4401-1.9609,2.6405
	c-6.3881,1.0125-24.0721,3.6662-24.0955,2.0183c-0.0285-2.0112,1.1669-36.835,2.0945-41.5419
	c0.9276-4.7069-24.5647-25.1127-28.3634-27.0705s-3.6753,6.7574-4.0801,11.4568s-2.1081,44.2242-3.0222,46.2488
	c-0.6382,1.4134-6.3771,3.7218-8.4528,8.9786c-0.6762,1.7124-2.9273,2.078-4.0619,0.6281l-13.5937-17.3705
	c-1.2243-1.5645-3.7164-1.0038-4.1527,0.9343l-4.9101,21.8114c-0.1332,0.5916-0.033,1.2118,0.2796,1.7314l-6.0254,23.8288
	c-27.0095-13.5547,7.585,22.0113,7.1396,22.7575c-2.717,4.5514,7.0804,20.6647,3.1236,25.8811
	c-4.6273,6.1003-5.866,12.5673-7.0424,29.3472c-1.0255,14.6265,8.8501,40.307,11.4017,46.6575
	c0.354,0.8811,1.1993,1.4602,2.1488,1.4747l862.8169,13.1499c1.2382,0.0189,2.2795-0.9243,2.3829-2.1583l7.0522-84.143
	c0.0149-0.1773,0.0099-0.3534-0.0154-0.5295c-0.5891-4.0955-7.9066-54.6897-10.1949-56.5874
	c-1.6472-1.366-24.2426-21.3055-38.065-33.5117c-1.9951-1.7617-4.9194,0.6228-3.6014,2.9352l11.9751,21.0099
	c0.2214,0.3885,0.3277,0.8321,0.3063,1.2788l-0.9509,19.8853c-0.0601,1.2562-1.0966,2.2437-2.3542,2.2428l-41.383-0.0271
	c-0.977-0.0006-1.8521-0.6044-2.1997-1.5175l19.807-14.7121c-0.2575-0.6765-0.1904-1.4328,0.1834-2.0527
	c3.4784-5.7685-11.3043-53.7793-8.5079-55.6318c2.8006-1.8554,4.7399-39.0608,7.4335-45.0829
	c0.2858-0.6389,0.2831-1.3615-0.0191-1.9929l-5.3359-11.1483c-1.0778-2.2519-4.4584-1.4997-4.4797,0.9968l-0.0809,9.5021
	c-0.0061,0.7171-0.3386,1.3898-0.902,1.8336c-2.4513,1.9309-9.5613,7.1834-16.4119,8.9104
	c-8.4545,2.1313-25.6707-21.4594-31.7783-20.0318c-5.6508,1.3208-38.9171,70.2109-41.768,75.7543
	c-0.2304,0.448-0.3104,0.9559-0.2294,1.4531c0.8345,5.1227,5.6008,34.4364,6.0912,38.7104
	c0.5377,4.6861-6.6765,61.113-8.0998,60.4626c-0.7715-0.3525-17.6408,16.4644-32.9307,31.9419
	C637.4476,391.5132,634.1924,388.7066,635.9492,386.3587z"/>
<polygon style="fill:#A02121;" points="147.3055,364.3944 147.3055,351.9001 147.3055,343.868 153.9989,334.0216 174.5253,372.8727 
	149.9829,371.9802 "/>
<polygon style="fill:#A02121;" points="439.5832,316.0974 441.8144,349.2227 478.3662,360.8246 478.4048,352.3463 
	453.4162,336.2822 446.2766,302.369 "/>
<polygon style="fill:#A02121;" points="494.9152,317.9869 491.4448,344.3142 484.2058,351.0076 484.2058,360.8246 
	497.5361,360.8246 491.4448,357.1942 "/>
<polygon style="fill:#A02121;" points="497.5361,339.9635 497.3694,353.7505 508.3019,363.0557 513.6567,349.0798 505.513,352.3463 
	"/>
<polygon style="fill:#A02121;" points="494.9152,317.9869 497.5361,331.3737 500.7161,324.6803 "/>
<polygon style="fill:#A02121;" points="497.0863,196.3821 549.4307,282.7845 544,308.3088 561.4028,295.2294 "/>
<polygon style="fill:#A02121;" points="499.6876,192.3167 521.1064,192.3167 592.8846,268.7823 535.0302,231.3614 
	518.8753,199.4563 "/>
<polygon style="fill:#A02121;" points="508.1659,201.2412 482.731,171.3441 516.2886,223.9987 "/>
<path style="fill:#A02121;" d="M529.2292,231.3614c1.3387,2.008,67.2479,44.4911,67.2479,44.4911l-6.9621,42.1344l-21.4188,2.625
	l20.7725-30.034L529.2292,231.3614z"/>
<polygon style="fill:#A02121;" points="561.4028,295.2294 553.3707,306.3851 553.3707,329.3657 538.6453,344.3142 
	559.6179,373.0332 561.4028,339.9635 "/>
<polygon style="fill:#A02121;" points="543.5538,325.6748 543.5538,329.3657 550.024,325.6748 "/>
<polygon style="fill:#A02121;" points="571.4429,327.5202 586.4141,324.6803 594.4216,352.3463 575.2358,367.8239 
	574.3433,382.3964 565.4188,377.5286 "/>
<path style="fill:#A02121;" d="M594.4216,325.6748l5.3566,18.6395L594.4216,325.6748z"/>
<polygon style="fill:#A02121;" points="215.2173,267.2143 199.1532,282.9858 211.6475,278.0773 "/>
<polygon style="fill:#A02121;" points="219.2333,252.9498 225.3376,264.9979 194.6054,324.6803 186.5734,334.1313 
	174.5253,324.6803 190.5894,319.1025 "/>
<polygon style="fill:#A02121;" points="5.8572,209.9141 17.8259,225.0858 23.6217,285.8587 11.653,280.9502 8.8646,233.1178 "/>
<path style="fill:#A02121;" d="M3.6261,225.532c0,0-0.8976,33.1069-1.3438,34.4456c-0.4462,1.3387,7.1396-6.6934,7.1396-6.6934
	L3.6261,225.532z"/>
<polygon style="fill:#A02121;" points="690.3619,334.9945 679.2063,364.8406 662.2498,376.4234 679.2063,371.0878 "/>
<polygon style="fill:#A02121;" points="666.2657,382.0203 679.2063,376.4234 679.2063,382.3964 "/>
<polygon style="fill:#A02121;" points="718.9204,329.3657 740.7854,351.4598 712.227,384.9207 714.9044,372.4265 730.9684,357.1432 
	"/>
<polygon style="fill:#A02121;" points="701.8723,308.3088 726.5062,357.1432 714.9044,367.8239 712.227,344.3142 693.0393,355.7089 
	701.8723,327.5202 "/>
<polygon style="fill:#A02121;" points="683.2224,329.3657 690.3619,324.6803 693.0393,331.3737 697.4423,321.7798 
	697.4423,260.4238 707.0396,217.4772 740.7854,239.005 747.0326,216.6937 730.9684,230.973 719.9802,184.9027 716.6335,199.1819 
	704.3623,209.8913 683.2224,260.4238 686.7922,292.1059 "/>
<polygon style="fill:#A02121;" points="718.6415,219.2621 734.092,249.2682 763.4992,276.9079 744.7578,301.8965 702.8563,297.4606 
	702.6332,267.5634 "/>
<polygon style="fill:#A02121;" points="752.3873,218.4787 747.0326,236.3277 749.71,253.4347 760.6425,239.005 "/>
<polygon style="fill:#A02121;" points="745.6198,206.8785 748.5202,215.803 763.915,197.5077 "/>
<polygon style="fill:#A02121;" points="731.1649,197.1775 728.7374,222.0484 736.3232,216.6937 "/>
<polygon style="fill:#A02121;" points="3.6115,285.8587 0.0322,299.2455 30.8407,300.5841 "/>
<polygon style="fill:#A02121;" points="34.4105,277.8266 27.2709,287.6436 34.4105,293.2214 36.1954,300.5841 54.4932,272.1786 "/>
<path style="fill:#EFA63B;" d="M183.5076,409.7168l-24.1445-37.3955l-1.5355-7.4807c0.0004,0.0002,5.5421,2.9837,5.5423,2.9833
	c2.6892-4.9909-8.0749-8.1184-7.5376-12.8003c0.5378-4.6861,16.0969,6.9224,14.9757,2.8833s1.208-51.5219,1.208-51.5219
	l5.5341,24.7961l25.0597-4.5343l-3.191-8.5666l19.0604-46.0156c0.0788-0.5463,0.3469-1.0476,0.7576-1.4164l48.4958-9.2419
	c0.4408-0.3958,1.0146-0.611,1.607-0.6026l35.2494-22.9142l24.608-9.6748c-0.0043,0.0079-36.3626,58.963-36.3578,58.9706
	c1.4637,2.3105-33.5137,36.6348-29.9496,42.5224c2.9734,4.9118,21.0146,7.8539,27.8698,8.8069
	c1.4032,0.1951,2.6573-0.8834,2.6774-2.2999l-0.7833-11.5234c0.008-0.5683,0.2213-1.1146,0.6005-1.538l8.1931-9.1486
	c1.3822-1.5434,3.9403-0.6787,4.1026,1.3868l3.3824,17.1084c0.0598,0.7614,0.4851,1.4464,1.1408,1.8379l5.3791-25.6815
	l13.3597,26.0082l10.9106-27.0097c0.0885-0.2191,7.343-2.14,7.4922-2.3232c2.057-2.5265,10.6047-19.6971,17.6078-17.0944
	c6.5958,2.4514,22.5238-16.2495,24.7313-16.0586c0.3041,0.0263,6.9207,14.9642,7.192,15.1041
	c2.8687,1.4791,7.6731,14.7583,15.1477,5.6443c8.1542-9.9425,3.7083-6.756,4.2651-12.783
	c0.5567-6.0269-1.8817-33.5533-1.8817-33.5533l12.7064,6.2469c0.8165,0.4014,3.0191,16.5874,3.0063,17.4971l7.3943,3.0295
	c-0.0008,0.0563-2.6814,40.0226-2.6781,40.0789c0.1012,1.7547-11.0538,24.0016-10.6235,25.9625
	c0.4428,2.0179,21.1343-1.3809,23.943,0c2.8087,1.3808,20.3294,27.409,21.7433,27.429c1.4138,0.02,18.3871-10.3576,21.6765-9.6405
	c3.2895,0.7171,24.4459-18.5391,24.4933-21.8911c0.0418-2.9492-1.3525-14.5784,0.1514-17.3162
	c5.3163-9.6781,8.1992-15.5201,8.6255-15.6179l3.2208-17.4008c2.1515-0.4938,5.0068,19.971,3.6678,21.726
	c-0.5435,0.7124,5.3483,17.04,5.2322,17.5057c-0.4438,1.78-5.7303,12.8929-6.2226,17.8831
	c-0.062,0.6287,3.1954,12.5176,3.6003,13.0026l26.3394,0.6233c0,0,12.4956,27.1449,14.7245,28.4724
	c8.8196,5.2528,7.1356-27.4018,12.6365-28.4724c0.6041-0.1176,7.4528,3.2404,8.0101,3.5015
	c8.2103,3.8453,25.5843,8.1911,18.5796-10.8801c-8.1697-22.2433-12.3215-36.5154-12.3075-39.1973
	c0.0141-2.6819,10.9625,0.2376,10.991-1.7736s1.9952-14.3392,1.9952-14.3392l9.5328-14.2317l12.2157,48.7317
	c0,0,3.0812,15.5319,26.5807,6.9476c6.6754-2.4385-6.2501,40.3866-6.2501,40.3866l-2.5653,14.7154l17.7429-32.0847l0.2969,14.4488
	l14.2751-22.8542c3.7612,7.6286,14.0793,26.3954,14.5222,28.4132c0.4428,2.0179,4.5609,10.7931,4.5609,10.7931l12.2684-1.5901
	c0,0,10.6005-11.3968,9.7054-14.7621c-0.8951-3.3654-11.8068-28.8938-13.1636-32.9362c-1.31-3.9027,1.7001-54.4939,1.9667-56.4216
	c0.0013-0.0095,0.0045-0.016,0.0101-0.0237l4.9806-12.2175l14.4614,11.8803c-0.1711,1.2681,8.3406-16.6083,9.6044-16.408
	c6.3893,1.0127,27.4323,3.4042,27.4323,1.7563c0-23.2037-10.3009-33.3634-11.2285-38.0703
	c-0.9277-4.7069,17.4025-12.7994,29.8389-68.0084c0.9391-4.1691,4.431,41.0019,4.8358,45.7014
	c0.4048,4.6995,7.9038,41.0144,8.8179,43.039c0.9141,2.0245,7.7365,19.555,7.7365,19.555l19.2025-24.5377l6.0011,26.658
	c0.1332,0.5916,0.0331,1.2118-0.2795,1.7314l6.0254,23.8288c27.0095-13.5547-7.5851,22.0113-7.1396,22.7575
	c2.717,4.5514-7.0804,20.6647-3.1235,25.8811c4.6273,6.1003,5.866,12.5673,7.0424,29.3473s-11.9943,48.1085-11.9943,48.1085
	l-866.5724,13.2071l-7.2582-86.6014c0,0,0,0,0,0c0-0.0002,7.8478-54.8725,10.2326-56.8503
	c2.3849-1.9778,40.3458-50.4637,40.3458-50.4637l-10.9936,41.492l35.9917,23.1622l24.7859-25.4349l-0.7257-10.958
	c0,0-21.511-35.8429-24.6138-37.8984s-17.7773-33.1514-17.7773-33.1514l-2.2852-28.5105l29.0722,31.3941
	c0,0,37.5205,2.7862,46.0368,4.6556c5.9269,1.301,12.958-13.6207,19.0657-12.1932c5.6507,1.3208,21.1817-16.6114,19.5091-10.6065
	c-5.4035,19.3994-12.1792,66.6412-12.2602,67.1384c-0.8345,5.1227,6.6098,35.9042,6.1193,40.1782
	c-0.5377,4.6861,6.6764,61.113,8.0998,60.4626c1.4228-0.6501-0.1897,28.8543,23.2741,30.8938
	C168.9523,385.1925,162.4831,396.9688,183.5076,409.7168z"/>
<path style="fill:#FEC573;" d="M32.4991,226.0884l15.7403,22.0856l12.0685,20.3618l-9.6299,31.2929l-33.0407,32.9076l44.298-24.5424
	l17.9301-44.723c0,0-6.362-24.748-5.4662-26.5329C75.295,235.1531,32.4991,226.0884,32.4991,226.0884z"/>
<path style="fill:#FEC573;" d="M39.319,415.5927l11.8893-36.9191l13.5455-5.6404c0,0-39.7267-37.3759-38.8342-38.7146
	c0.8925-1.3387,64.978-46.02,64.978-46.02l-14.21,44.4377l9.4851,11.578l19.3038,22.3113l-5.4708,23.2037l5.4708,25.7635H39.319z"/>
<path style="fill:#FEC573;" d="M219.9389,407.3436l16.6127-18.7415c0,0,7.2047-9.9422,7.6509-10.9951
	s-14.5728-38.0897-14.5728-38.0897l14.051-24.0962l-1.7735,26.2979l13.9667,7.169c0,0,13.3173,53.1008,13.3173,54.4395
	s-13.833,18.9072-13.833,18.9072L219.9389,407.3436z"/>
<polygon style="fill:#FEC573;" points="368.3841,331.5968 345.2531,325.6748 345.4297,363.4431 351.9514,347.4378 
	384.2513,340.9381 411.471,316.202 386.6934,330.4812 396.7456,310.8473 "/>
<polygon style="fill:#FEC573;" points="424.7755,263.8463 421.7342,287.6436 411.0248,300.5841 426.1965,294.337 432.3613,290.6198 
	"/>
<polygon style="fill:#FEC573;" points="240.1274,273.1725 222.2714,278.0497 222.2714,292.7752 222.2714,307.5006 
	277.5423,274.7704 270.4638,264.2168 252.9857,273.8376 "/>
<polygon style="fill:#FEC573;" points="174.5253,334.3186 171.1292,377.5286 186.1893,373.9438 182.6195,347.3985 "/>
<polygon style="fill:#FEC573;" points="207.3838,330.1609 183.8159,334.1313 195.1753,372.8583 211.4775,335.3897 "/>
<polygon style="fill:#FEC573;" points="408.7937,367.8239 391.1321,377.5286 414.6121,415.9145 421.288,379.3429 406.2101,379.4099 
	421.288,354.1312 "/>
<polygon style="fill:#FEC573;" points="369.5258,352.2875 353.8981,368.8566 358.8164,384.9207 374.0395,365.7331 
	403.8852,348.3303 390.446,348.3303 "/>
<polygon style="fill:#FEC573;" points="295.7212,327.7552 303.4845,343.4218 285.745,344.3142 267.3444,355.0236 278.4958,390.2755 
	286.9741,401.8773 285.1892,387.7002 291.2321,367.9642 329.197,344.3142 320.441,325.1265 309.2854,339.4058 302.372,321.7798 "/>
<polygon style="fill:#FEC573;" points="335.6133,373.5355 303.8464,369.8771 310.1313,393.8453 327.2739,380.5184 
	352.2532,389.6324 339.8383,354.1312 "/>
<polygon style="fill:#FEC573;" points="432.3613,299.0223 415.6577,308.3088 413.8329,325.1265 401.4693,338.0664 
	411.0248,344.3142 426.1965,321.7798 "/>
<polygon style="fill:#FEC573;" points="217.6849,289.4022 206.8139,321.1105 214.2394,334.4679 203.53,362.9561 194.6054,387.1519 
	200.7097,395.1839 206.8139,379.3429 230.9023,375.9962 223.1639,358.5934 230.5432,323.5431 251.1607,297.4459 217.889,314.4171 
	"/>
<polygon style="fill:#FEC573;" points="300.5985,244.1766 277.9032,261.7766 285.0799,272.3318 245.8377,314.8633 
	245.8377,329.3657 254.9907,338.5133 266.4478,348.7765 274.926,344.3142 258.2549,324.6803 280.2026,287.1852 303.8464,264.5724 
	320.7726,235.8814 "/>
<polygon style="fill:#FEC573;" points="100.0056,302.9137 81.7104,322.5476 86.1726,339.0579 100.0056,346.6438 109.8226,353.3371 
	112.4999,367.1701 108.4839,381.6725 120.9782,375.3627 131.6876,370.1534 120.0858,365.2857 115.6235,320.3165 100.0056,327.4561 
	92.866,320.3165 "/>
<polygon style="fill:#FEC573;" points="101.7905,231.9572 103.2453,257.8383 105.3603,293.0901 89.2962,277.4722 81.7104,249.36 
	83.9415,237.7581 27.2709,219.1252 14.1698,186.0928 44.9853,211.3659 62.2774,208.0405 86.2204,213.1239 "/>
<polygon style="fill:#FEC573;" points="115.2623,197.1775 110.1958,242.4067 109.4272,277.8266 106.7263,260.1281 106.115,231.54 
	106.699,207.1537 "/>
<polygon style="fill:#FEC573;" points="399.5449,360.3688 381.9602,372.4265 374.8805,396.9688 389.5536,373.0332 411.471,358.0884 
	"/>
<polygon style="fill:#FEC573;" points="451.1851,367.8239 474.2784,382.2434 467.2492,396.9688 462.7317,385.0228 "/>
<polygon style="fill:#FEC573;" points="436.9059,367.8239 426.1965,393.8453 441.3681,399.2 462.7317,395.1839 456.986,385.0228 
	445.8304,385.0228 444.4641,364.8406 "/>
<polygon style="fill:#FEC573;" points="426.1965,352.3463 426.1965,364.8406 446.6949,355.7089 "/>
<polygon style="fill:#FEC573;" points="481.286,364.8406 513.6567,349.0798 516.0895,373.0244 495.3614,396.9688 494.0227,382.0203 
	"/>
<path style="fill:#F7954E;" d="M481.5284,385.0228l2.6774,8.8224c0,0-5.3547,0.8924-5.8009,0
	C477.9586,392.9528,481.5284,385.0228,481.5284,385.0228z"/>
<polygon style="fill:#FEC573;" points="528.9434,295.2294 519.1888,321.6683 518.5237,366.33 535.918,382.7661 531.382,360.3688 
	530.7169,325.1265 "/>
<polygon style="fill:#FEC573;" points="537.4182,366.6255 559.3154,360.3688 544.1116,383.4992 "/>
<polygon style="fill:#FEC573;" points="559.4966,377.6427 578.2599,394.2419 589.515,361.8961 613.1871,367.8239 598.1183,381.135 
	589.64,413.7285 566.8825,407.4814 "/>
<polygon style="fill:#FEC573;" points="623.4281,367.8239 610.9338,376.4234 614.5036,393.8453 "/>
<polygon style="fill:#F7954E;" points="602.1961,385.0228 602.1961,393.8453 606.0724,393.8453 "/>
<path style="fill:#FEC573;" d="M622.4982,285.8587l-7.6936,23.8891l-6.0515,3.5767l11.9938,30.9897v8.032l14.283-17.8784
	c0,0-12.5019-8.4489-14.283-9.3413C618.9659,324.2341,622.4982,285.8587,622.4982,285.8587z"/>
<path style="fill:#FEC573;" d="M622.5732,320.8632l10.1538,2.3077l-3.7996-8.2739c0,0-3.0991-9.5159-4.4339-11.3008
	C623.1586,301.8112,622.5732,320.8632,622.5732,320.8632z"/>
<polygon style="fill:#FEC573;" points="641.7234,343.2738 662.2498,339.9635 651.5403,385.0228 644.4459,366.1793 "/>
<polygon style="fill:#FEC573;" points="629.2291,348.7765 638.4602,337.1452 641.7234,352.3463 639.5687,363.4431 
	647.8478,395.1839 620.5894,400.9849 634.2186,384.6976 "/>
<polygon style="fill:#F7954E;" points="668.9431,395.1839 679.2063,405.8933 660.0186,405.8933 "/>
<polygon style="fill:#FEC573;" points="687.8484,360.066 680.7681,371.585 687.6763,376.4234 699.9558,392.7807 708.0721,396.9688 
	691.6667,370.0988 "/>
<polygon style="fill:#FEC573;" points="347.2145,316.0974 357.924,295.2294 364.6173,295.2294 389.5536,285.8587 389.5536,306.3851 
	"/>
<polygon style="fill:#FEC573;" points="-26.612,380.9095 -18.1337,333.1825 -28.1737,297.4845 -15.9025,279.4123 -13.5419,293.2214 
	3.3068,300.5841 20.6879,311.7637 -3.8545,344.4497 "/>
<polygon style="fill:#FEC573;" points="0.0511,381.7972 7.1907,344.7605 23.7011,344.7605 47.1922,368.4104 23.7011,358.5934 "/>
<polygon style="fill:#FAAB5D;" points="9.3056,383.3296 27.2709,366.6255 35.7492,395.4333 "/>
<polygon style="fill:#FAAB5D;" points="299.0222,376.4234 291.8826,390.7217 306.1618,396.9688 299.0222,386.6961 "/>
<polygon style="fill:#FEC573;" points="334.296,344.3142 300.5985,366.6255 331.5966,368.8279 "/>
<polygon style="fill:#FEC573;" points="731.8207,287.2827 726.7216,277.9943 718.3626,340.9993 745.2789,379.4099 751.526,338.9978 
	"/>
<polygon style="fill:#FEC573;" points="751.526,277.8266 742.5392,300.5841 751.526,317.9869 "/>
<polygon style="fill:#FEC573;" points="747.0326,325.1265 783.6698,339.4058 799.5449,357.1432 758.6345,373.0332 
	776.0372,351.5096 "/>
<polygon style="fill:#F7954E;" points="752.3873,346.4752 754.1722,360.3688 768.8976,360.3688 "/>
<polygon style="fill:#FEC573;" points="760.6425,277.8266 754.1722,317.9869 771.1288,329.3657 762.6505,303.5962 "/>
<polygon style="fill:#FEC573;" points="791.9702,187.6446 768.8976,228.2956 781.8382,270.0177 768.8976,285.8587 
	779.8301,334.4679 787.1929,285.8587 806.8268,267.5634 785.7782,232.361 "/>
<polygon style="fill:#FEC573;" points="793.4243,200.1834 789.4129,227.8494 802.2921,258.1433 "/>
<polygon style="fill:#FEC573;" points="824.5643,266.3507 793.8677,324.6803 789.0894,336.8543 807.1615,351.1335 
	801.8068,371.2137 816.5322,382.9685 819.2095,393.9712 821.8869,352.9184 812.0699,363.6278 813.8549,338.7508 799.5756,333.2845 
	"/>
<polygon style="fill:#FEC573;" points="822.4447,299.2455 806.8268,329.3657 814.6357,336.2822 816.6437,344.3142 "/>
<linearGradient id="SVGID_1_" gradientUnits="userSpaceOnUse" x1="606.0724" y1="420.97" x2="701.8723" y2="420.97">
	<stop  offset="0" style="stop-color:#562C48"/>
	<stop  offset="0.0904" style="stop-color:#65354C"/>
	<stop  offset="0.2168" style="stop-color:#753E4F"/>
	<stop  offset="0.368" style="stop-color:#814551"/>
	<stop  offset="0.5671" style="stop-color:#884952"/>
	<stop  offset="1" style="stop-color:#8A4A53"/>
</linearGradient>
<ellipse style="fill:url(#SVGID_1_);" cx="653.9724" cy="420.97" rx="47.8999" ry="1.2409"/>
</svg>
