<?xml version="1.0" encoding="utf-8"?>
<!-- Generator: Adobe Illustrator 26.5.1, SVG Export Plug-In . SVG Version: 6.00 Build 0)  -->
<svg version="1.1" id="Layer_1" xmlns="http://www.w3.org/2000/svg" xmlns:xlink="http://www.w3.org/1999/xlink" x="0px" y="0px"
	 viewBox="0 0 595.2756 841.8898" style="enable-background:new 0 0 595.2756 841.8898;" xml:space="preserve">
<g>
	<path style="fill:#CE4327;" d="M331.8132,509.6384c-8.0596,0-16.1553-0.8271-24.0615-2.46
		c-10.5303-2.1738-18.5063-3.6289-25.5435-4.9121c-17.4849-3.1895-28.0391-5.1152-54.2783-13.8721
		c-12.7227-4.2471-22.2573-8.3662-30.6699-12.002c-17.2119-7.4375-30.8071-13.3125-58.6309-14.2432
		c-2.8267-0.0947-5.5093-0.1426-7.9746-0.1426c-30.4419,0-37.1011,7.627-49.1895,21.4727
		c-0.2852,0.3271-0.5713,0.6553-0.8604,0.9854l9.8271-23.5918c11.8525-28.4531,30.0034-54.417,52.4912-75.085l27.0151-24.8301
		c0.3218-0.2964,0.6147-0.6235,0.874-0.9775l6.4673-5.6562c6.5-5.6846,11.1372-13.3896,13.0571-21.6958
		c0.4492-1.9458,0.6328-3.2559,0.3062-4.334c-1.0396-5.2637-5.5781-9.0728-10.8999-9.0991l-0.3291-0.001
		c-0.3804,0-9.353,0.0156-11.7661,1.3687l-2.6968,1.5112c0.7847-1.2954,1.5918-2.6445,2.4175-4.0254
		c3.7939-6.3418,8.0942-13.5303,10.7021-16.0317c14.8677-14.2612,19.8291-15.7539,22.7935-16.6455
		c0.8701-0.2617,1.7671-0.5317,2.7178-0.9995c0.0928-0.0273,0.2129-0.0625,0.3564-0.1045c1.7451-0.5103,7.0562-2.064,11.1533-3.5806
		l4.1055-1.5249c17.1675-6.3857,34.9194-12.9888,53.2437-14.7202l56.3291-5.3267c0.061-0.0059,0.2881-0.0381,0.2881-0.0381
		l0.1064-0.0234c8.1074-1.8081,16.4175-2.7246,24.6997-2.7246c10.1343,0,20.2856,1.3687,30.1724,4.0688
		c62.2285,16.9946,99.333,82.6333,82.7109,146.3188c-8.3369,31.9404-29.4912,59.165-58.0391,74.6943l-0.7334,0.3994l-0.4219,0.7197
		c-0.0527,0.0918-0.1104,0.1631-0.165,0.208c-21.4219,17.3447-48.2656,26.9004-75.5742,26.9004
		C331.8117,509.6384,331.8151,509.6384,331.8132,509.6384z"/>
	<path style="fill:#492C1A;" d="M353.8641,259.3289c9.8672,0,19.7524,1.3333,29.3812,3.9629
		c60.6516,16.5638,96.8081,80.5641,80.5988,142.6675c-4.1547,15.9183-11.3484,30.4307-21.381,43.1341
		c-9.6844,12.2625-21.5235,22.2492-35.1885,29.683l-1.4679,0.7985l-0.6462,1.1046c-20.8374,16.7443-46.8662,25.9592-73.3475,25.9592
		c-7.8563,0-15.7475-0.8068-23.4545-2.398c-10.5657-2.1814-18.5606-3.6397-25.6143-4.9264
		c-17.3537-3.1655-27.8282-5.0761-53.8642-13.7659c-12.6013-4.2059-22.0735-8.2988-30.4306-11.9099
		c-17.5034-7.5633-31.3286-13.5372-59.7201-14.4874c-2.8593-0.0957-5.5771-0.1442-8.0779-0.1442
		c-22.1035,0-32.0303,3.6176-40.9994,11.5404l3.5493-8.5207c11.6863-28.0547,29.5817-53.6541,51.7519-74.0305l27.0161-24.8304
		c0.3774-0.3471,0.7266-0.7234,1.0444-1.1251l6.241-5.4584c7.0717-6.1849,11.9146-14.2345,14.0051-23.2788
		c0.4536-1.9627,0.8043-3.8836,0.2999-5.7211c-1.3647-6.5951-7.0918-11.3541-13.8006-11.387l-0.3451-0.0008
		c-2.0513,0-4.9779,0.0672-7.6588,0.3729c3.1004-5.1446,6.4606-10.5328,8.3922-12.3856
		c14.3465-13.7615,18.8753-15.1239,21.5812-15.9378c0.8787-0.2644,1.8567-0.5585,2.9308-1.0618
		c0.0388-0.0114,0.0799-0.0234,0.1233-0.0361c1.77-0.5177,7.1563-2.0933,11.3505-3.6461c1.3699-0.5071,2.7391-1.0165,4.1081-1.5257
		c17.7677-6.609,34.5501-12.8515,52.4817-14.5464l56.1465-5.3069l0.3183-0.0301l0.0445-0.0091
		c0.0446-0.0055,0.0893-0.0114,0.1341-0.0178l0.2271-0.0327l0.2239-0.05C337.7104,260.2213,345.8009,259.3289,353.8641,259.3289
		 M353.8641,253.3289c-8.6134,0-17.1055,0.9574-25.3528,2.7965c-0.069,0.0099-0.1374,0.0083-0.2065,0.0224l-56.1465,5.3069
		c-20.1658,1.9061-39.0653,9.3687-58.1082,16.4186c-4.8851,1.8085-11.5153,3.6637-11.5946,3.7056
		c-3.8391,2.0278-7.0509-0.3462-26.4616,18.2729c-4.3093,4.1335-11.5853,17.7905-16.8208,25.8153
		c-0.6693,1.0258,0.1358,2.2376,1.1581,2.2376c0.2223,0,0.4546-0.0572,0.6845-0.186l8.0991-4.5393
		c0.9604-0.5383,5.8889-0.9848,10.2991-0.9848c0.1053,0,0.2098,0.0002,0.3145,0.0008c3.9513,0.0193,7.3275,2.9124,8.0107,6.8934
		c0.1713,0.3029,0.0158,1.3879-0.3253,2.8637c-1.8148,7.8514-6.1145,14.8705-12.1092,20.1135l-6.7537,5.9068
		c-0.1789,0.2875-0.3952,0.5486-0.6429,0.7764l-27.0151,24.8294c-22.9615,21.1039-41.13,47.0921-53.2303,76.1409L75.03,490.0458
		c-0.5568,1.3366,0.505,2.5159,1.6439,2.5159c0.4396,0,0.8907-0.1757,1.2646-0.5858
		c16.6734-18.2828,19.3881-26.9692,52.7128-26.9692c2.4546,0,5.0726,0.0471,7.8772,0.1409
		c40.5583,1.3573,49.2876,13.0204,88.4519,26.092c36.9656,12.3377,43.2981,11.2655,80.1649,18.8771
		c8.1881,1.6906,16.4541,2.5219,24.6676,2.5219c27.8837,0,55.2313-9.5687,77.4661-27.5727v-0.0001
		c0.3553-0.2877,0.6393-0.637,0.8627-1.0189c28.3337-15.4133,50.577-42.3554,59.5079-76.5724
		c17.0627-65.3731-20.9141-132.5173-84.8237-149.9708C374.4801,254.6782,364.0871,253.3289,353.8641,253.3289L353.8641,253.3289z"/>
</g>
<ellipse transform="matrix(0.9749 -0.2227 0.2227 0.9749 -76.0618 85.6733)" style="fill:#F68B1F;" cx="341.8441" cy="380.0941" rx="121.9084" ry="96.2569"/>
<ellipse transform="matrix(0.9904 -0.138 0.138 0.9904 -47.8352 53.1582)" style="fill:#F5D95F;stroke:#DABC20;stroke-miterlimit:10;" cx="359.3872" cy="371.5015" rx="85.2561" ry="74.0594"/>
</svg>
