<?xml version="1.0" encoding="utf-8"?>
<!-- Generator: Adobe Illustrator 26.5.0, SVG Export Plug-In . SVG Version: 6.00 Build 0)  -->
<svg version="1.1" id="Layer_1" xmlns="http://www.w3.org/2000/svg" xmlns:xlink="http://www.w3.org/1999/xlink" x="0px" y="0px"
	 viewBox="0 0 1920 1080" style="enable-background:new 0 0 1920 1080;" xml:space="preserve">
<polygon style="fill:#600B32;" points="344,772 371,627 344,607 344,579 326,559 333,539 344,550 355.3398,572 362,586 371,574 
	371,544 362,469 371,469 384.6797,544 398.3594,546 398.3594,463 411.671,469 411.671,541 420,541 423.179,472 436,478 
	430.6248,548 441,542 452.342,503 461,511 445.5166,564 430.6248,630 411.671,640 384.6797,827 333,848 "/>
<polygon style="fill:#600B32;" points="1462,692 1489,547 1462,527 1462,499 1464,484 1471,464 1482,475 1473.3398,492 1480,506 
	1489,494 1489,464 1484.5165,426.6371 1468,407 1477,407 1495.4854,424.5565 1502.6797,464 1516.3594,466 1516.3594,420.3863 
	1504.3594,396 1517.671,402 1529.671,421.7165 1529.671,461 1538,461 1539.6859,424.4068 1544.179,401 1557,407 1551.7628,427.1341 
	1548.6249,468 1559,462 1564.3824,443.4922 1561.342,426 1570,434 1573.6837,449.1978 1563.5166,484 1548.6249,550 1529.671,560 
	1502.6797,747 1451,768 "/>
<polygon style="fill:#600B32;" points="1163.6837,599 1136.6837,454 1163.6837,434 1175,410 1175,392 1170,370 1157,374 1161,392 
	1145.6837,413 1136.6837,401 1137,371 1139.1672,339.6371 1154.6837,328 1145.6837,328 1128.1984,337.5565 1123.004,371 
	1109.3243,373 1109.3243,327.3863 1113.3243,317 1100.0127,323 1096.0127,328.7165 1096.0127,368 1087.6837,368 1085.9978,331.4068 
	1089.5048,320 1076.6837,326 1073.9209,334.1341 1077.0588,375 1066.6837,369 1061.3013,350.4922 1064.3417,333 1055.6837,341 
	1052,356.1978 1062.1671,391 1077.0588,457 1096.0127,467 1123.004,654 1174.6837,675 "/>
<path style="fill:#C6562A;" d="M1489.0599,739.2225l0.0001-0.0001c3.2275-4.3135-1.321-10.1224-6.2826-8.0235l-18.4253,7.7944
	c-0.2181,0.0922-0.4255,0.1962-0.6289,0.3173c-2.0269,1.2064-14.4788,8.197-15.5854-1.4468
	c-1.2051-10.5017,19.4709-42.3507,21.9836-51.4023c1.7767-6.4003,15.3348-57.2941,23.1251-86.5598
	c1.4158-5.3188-5.2365-8.9764-8.9756-4.9375l-28.886,31.2018c-0.2477,0.2676-0.467,0.5601-0.6544,0.8728l-16.8949,28.1951
	c-2.254,3.7615-7.8459,3.2936-9.4434-0.7902l-22.1664-56.6677c-0.1473-0.3768-0.251-0.7693-0.3087-1.1697l-13.907-96.4768
	c-0.1765-1.2243-0.7775-2.3478-1.6978-3.1742l-95.002-124.2256c-0.9878-0.8871-2.2737-1.3692-3.6013-1.3504L1182,315
	l76.8296,142.8812c0.4036,0.7315,0.6274,1.5427,0.6538,2.3777c0.3751,11.8612,12.0009,150.2557,4.2815,163.0075
	c-6.6635,11.0075-47.0941,17.6009-62.4568,19.7365c-3.1447,0.4371-5.9551-1.9797-6-5.1542l-0.7393-52.199
	c-0.0181-1.2736-0.4961-2.4977-1.3458-3.4466l-18.361-20.5021c-3.0977-3.4589-8.8303-1.5211-9.1941,3.1078l-5.0853,64.7151
	c-0.134,1.7062-1.087,3.2415-2.5566,4.1187l-26.6718,15.9215c-2.4926,1.4879-5.7189,0.6838-7.2216-1.8l-7.8813-13.027
	c-0.146-0.2413-0.2723-0.4938-0.3781-0.7553l-24.2922-60.1365c-0.1973-0.4884-0.4629-0.9406-0.7954-1.3491
	c-4.6035-5.6544-39.7583-47.9995-55.4541-42.166c-14.7872,5.4958-36.1593,7.5979-41.0953,8.0247
	c-0.682,0.059-1.3353,0.2457-1.9437,0.5593c-6.4353,3.3178-45.6989,22.3483-62.4479,1.926
	c-18.2736-22.2813-25.2063-64.2581-26.4539-77.7645c-0.9457-10.2375-0.0351,39.8441,1.4291,22.0892
	c0.337-4.0861-70.1405-29.974-73.8198-28.1651l46.1322,32.8818c-1.8299,0.8996-2.9779,2.7727-2.949,4.8116l4.546,91.7619
	c0.0018,0.1263-0.0005,0.2455-0.0078,0.3716c-0.2325,4.0317-4.2564,73.64-5.22,78.0309
	c-0.9923,4.5221-17.6566,21.2875-23.9509,24.382c-6.2943,3.0945-46.2363,17.1843-49.4048,17.2292
	c-3.1685,0.0449-88.7163,1.2565-96.0881,2.8635c-7.3717,1.6071-7.2731-66.0147-7.3795-73.5266
	c-0.0936-6.6075-20.8222-27.4562-25.8116-32.38c-0.6967-0.6876-1.5675-1.1635-2.5215-1.3824l-15.5046-3.5588
	c-4.8215-1.1068-30.05-11.4175-27.0495-7.4846c1.218,1.5965,23.7948,18.8799,24.0551,19.9237
	c0.9945,3.989,12.8418,28.8932,13.9449,40.0763c0.139,1.4088-7.1611,28.0522-8.0684,29.139L628.7909,720c0,0-59.4055,41.4181-65,43
	c-5.0593,1.4306-30.7076-69.0391-43.0354-71.438c-1.3537-0.2635-2.5504-1.0399-3.3273-2.1794
	c-4.8397-7.0973-57.3348,18.3565-41.6372-24.3826c18.3085-49.8476,44.8852-67.2736,44.8537-73.2839
	c-0.0315-6.0103,5.5819-57.1808,5.5181-61.6879c-0.0381-2.6957-16.0217-26.1301-28.863-44.531
	c-3.3363-4.7807-10.8168-1.4242-9.4629,4.2462l6.9263,29.0085c0.403,1.688-0.0494,3.4662-1.2102,4.7563l-53.7863,59.7774
	c-0.3364,0.3739-0.7175,0.6934-1.1456,0.9575c-6.1636,3.8023-55.2008,34.4066-59.9493,48.5533
	c-4.9053,14.6138,0.901,86.7935,1.2788,91.4128c0.0131,0.1595,0.0327,0.3101,0.0602,0.4678l4.6144,26.4702
	c0.568,3.2579-1.9656,6.2296-5.2723,6.1843l-44.5559-0.6115c-1.8404-0.0253-3.5347-1.0073-4.4713-2.5917l-34.8909-59.0221
	c-0.9219-1.5596-2.5793-2.5374-4.3902-2.59l-21.8206-0.635c-4.2258-0.123-6.8749,4.5179-4.6175,8.0922
	c6.597,10.4455,16.825,27.3023,16.1494,30.3812c-0.7538,3.4352-6.2604,15.6088-8.864,21.2625
	c-0.8283,1.7986-2.5916,2.977-4.57,3.0602l-97.7859,4.114c-3.4096,0.1434-6.0586-2.9296-5.4036-6.2788
	c4.4024-22.5085,18.7265-95.5678,20.4213-101.9399c2.0059-7.5418,78.4237-56.7097,81.4645-65.7689
	c2.851-8.4937-17.0072-60.2574-19.4971-66.6857c-0.1697-0.438-0.3942-0.8441-0.6733-1.2219l-54.348-73.5891
	c-3.2442-4.3927-10.2069-1.5704-9.4768,3.8414l3.6422,26.998c0.3834,2.8418-1.5654,5.469-4.3976,5.9179
	c-14.3185,2.2694-53.943,8.2152-53.9953,4.5226c-0.0638-4.5071,15.6034-75.3548,17.6823-85.903
	c2.0789-10.5482-55.05-56.278-63.563-60.6654s-8.2364,15.1434-9.1436,25.675s-17.7127,91.9141-19.7611,96.4511
	c-1.434,3.1761-14.3604,8.3685-18.9803,20.2163c-1.4822,3.8011-6.5511,4.5255-9.0655,1.3125l-30.4636-38.9277
	c-2.7437-3.506-8.3285-2.2495-9.3062,2.0938l-11.0036,48.8798c-0.2985,1.3258-0.074,2.7157,0.6265,3.8802L-39.2091,551
	c-60.5287-30.3762,16.9982,49.3278,16,51c-6.0888,10.1997,15.8674,46.3099,7,58c-10.37,13.671-13.1457,28.1635-15.7822,65.7678
	c-2.2981,32.7772,19.8317,90.3247,25.5509,104.5589c0.793,1.9736,2.6892,3.2738,4.816,3.3062l1933.5895,29.4691
	c2.7749,0.0423,5.1085-2.0714,5.3403-4.8369l15.8041-188.5661c0.0332-0.3975,0.0223-0.7907-0.0344-1.1855
	c-1.3188-9.1698-17.7188-122.5616-22.847-126.8146c-3.691-3.061-54.3226-47.7415-85.2994-75.0961
	c-4.4709-3.9482-11.0295,1.3914-8.0759,6.5734l26.8365,47.0837c0.4962,0.8707,0.7344,1.8648,0.6865,2.8659l-2.1312,44.5634
	c-0.1346,2.8152-2.4573,5.028-5.2756,5.0261l-92.7401-0.0607c-2.1895-0.0014-4.1506-1.3544-4.9296-3.4006l-28.514-74.9113
	c-0.5771-1.5161-0.4269-3.2108,0.4109-4.6001c7.7952-12.9274,47.5688-78.5794,53.8356-82.7309
	c6.2803-4.1606,37.7941-73.6475,43.8365-87.0616c0.6384-1.4173,0.6166-3.0379-0.0544-4.44l-11.9578-24.9836
	c-2.4154-5.0466-9.9916-3.3608-10.0392,2.2338l-0.1813,21.2944c-0.0137,1.605-0.7568,3.1129-2.0177,4.1061
	c-5.49,4.3249-21.4275,16.1003-36.783,19.9713c-18.9468,4.7764-116.0697,9.1573-129.7571,12.3564
	c-12.6635,2.9599-55.8389,86.0997-62.2279,98.5225c-0.5164,1.004-0.6954,2.1421-0.5139,3.2565
	c1.8701,11.48,12.5513,77.1726,13.6504,86.7508c1.2051,10.5017-14.962,136.9554-18.1517,135.4979
	c-1.7289-0.79-39.5315,36.8951-73.7955,71.5798C1492.4208,750.7711,1485.123,744.4841,1489.0599,739.2225z"/>
<path style="fill:#F2BC51;" d="M427.731,728.2225L427.731,728.2225c-3.2277-4.3135,1.3209-10.1224,6.2826-8.0236l18.4253,7.7944
	c0.2181,0.0922,0.4254,0.1962,0.6289,0.3173c2.0268,1.2064,14.4787,8.197,15.5854-1.4468
	c1.2051-10.5017-19.471-42.3507-21.9837-51.4023c-1.7767-6.4003-15.3348-57.2941-23.125-86.5598
	c-1.4158-5.3188,5.2364-8.9764,8.9756-4.9375l28.886,31.2018c0.2477,0.2676,0.467,0.5601,0.6544,0.8728l16.8949,28.1951
	c2.2539,3.7615,7.8459,3.2936,9.4433-0.7902l22.1664-56.6677c0.1474-0.3768,0.2509-0.7693,0.3087-1.1697l13.907-96.4768
	c0.1765-1.2243,0.7774-2.3478,1.6978-3.1742l133.0019-93.2256c0.9879-0.8871,2.2737-1.3692,3.6013-1.3504l71.1758,1.008
	c3.9842,0.0564,6.4716,4.3383,4.547,7.8273l-42.8431,77.6667c-0.4035,0.7315-0.6274,1.5427-0.6538,2.3777
	c-0.3751,11.8612-50.0008,119.2557-42.2814,132.0075c6.6635,11.0075,47.0941,17.6009,62.4568,19.7365
	c3.1446,0.4371,5.955-1.9797,6-5.1542l-18.2607-12.199c0.0181-1.2736,0.496-2.4977,1.3458-3.4466l18.3609-20.5021
	c3.0977-3.4589,8.8303-1.5211,9.1941,3.1078l24.0854,24.7151c0.134,1.7062,1.087,3.2415,2.5566,4.1187l26.6718,15.9215
	c2.4926,1.4879,5.7189,0.6838,7.2216-1.8l7.8813-13.027c0.1459-0.2413,0.2723-0.4938,0.378-0.7553l24.2922-60.1365
	c0.1973-0.4884,0.4629-0.9406,0.7955-1.3491c4.6035-5.6544,39.7582-47.9995,55.454-42.166
	c14.7872,5.4958,36.1594,7.5979,41.0954,8.0247c0.682,0.059,1.3352,0.2457,1.9437,0.5593
	c6.4353,3.3178,45.6989,22.3483,62.4479,1.926c18.2737-22.2813,25.2063-64.2581,26.454-77.7645
	c0.9457-10.2375-1.9649-48.1559-3.4292-65.9108c-0.337-4.0861,3.9103-6.9731,7.5897-5.1642l20.098,9.8809
	c1.83,0.8996,2.9779,2.7727,2.9491,4.8116l-2.546,179.7619c-0.0017,0.1263,0.0006,0.2455,0.0078,0.3716
	c0.2325,4.0317,4.2565,73.64,5.22,78.0309c0.9923,4.5221,17.6566,21.2875,23.9509,24.382s46.2363,17.1843,49.4048,17.2292
	c3.1685,0.0449,88.7163,1.2565,96.0881,2.8635c7.3717,1.6071,7.2731-66.0147,7.3794-73.5266
	c0.0936-6.6075,20.8223-27.4562,25.8116-32.38c0.6967-0.6876,1.5675-1.1635,2.5215-1.3824l15.5046-3.5588
	c4.8215-1.1068,30.05-11.4175,27.0494-7.4846c-1.218,1.5965-23.7948,18.8799-24.0551,19.9237
	c-0.9945,3.989-12.8418,28.8932-13.9449,40.0763c-0.1389,1.4088,7.1611,28.0522,8.0684,29.139L1288,709c0,0,59.4055,41.4181,65,43
	c5.0593,1.4306,30.7076-69.0391,43.0354-71.438c1.3538-0.2635,2.5504-1.0399,3.3274-2.1794
	c4.8397-7.0973,57.3347,18.3565,41.6372-24.3826c-18.3085-49.8476-44.8851-67.2736-44.8536-73.2839
	c0.0315-6.0103-5.5819-57.1808-5.5181-61.6879c0.0381-2.6957,16.0217-26.1301,28.863-44.531
	c3.3363-4.7807,10.8168-1.4242,9.4629,4.2462l-6.9264,29.0085c-0.403,1.688,0.0494,3.4663,1.2102,4.7563l53.7864,59.7774
	c0.3364,0.3739,0.7175,0.6934,1.1455,0.9575c6.1636,3.8023,55.2009,34.4066,59.9493,48.5533
	c4.9053,14.6138-0.901,86.7935-1.2788,91.4128c-0.0131,0.1595-0.0327,0.3101-0.0602,0.4678l-4.6145,26.4702
	c-0.5679,3.2579,1.9656,6.2296,5.2723,6.1843l44.5559-0.6115c1.8403-0.0253,3.5347-1.0073,4.4713-2.5917l34.8909-59.0221
	c0.922-1.5596,2.5793-2.5374,4.3903-2.59l21.8207-0.635c4.2257-0.123,6.8749,4.5179,4.6174,8.0922
	c-6.5969,10.4455-16.825,27.3023-16.1493,30.3812c0.7538,3.4352,6.2604,15.6088,8.864,21.2625
	c0.8282,1.7986,2.5916,2.977,4.5699,3.0602l97.7859,4.114c3.4097,0.1434,6.0587-2.9296,5.4036-6.2788
	c-4.4023-22.5085-18.7264-95.5678-20.4213-101.9399c-2.0059-7.5418-92.1967-65.5133-95.2374-74.5724
	c-2.851-8.4937,30.7802-51.4539,33.27-57.8821c0.1697-0.438,0.3942-0.8441,0.6732-1.2219l54.348-73.5891
	c3.2441-4.3927,10.2069-1.5704,9.4768,3.8414l-3.6421,26.998c-0.3834,2.8418,1.5653,5.469,4.3976,5.9179
	C1749.842,471.3335,1791.9478,487.6927,1792,484c0.0638-4.5071-18.0846-85.7681-20.1635-96.3163
	c-2.0789-10.5482,60.05-71.278,68.5631-75.6654c8.5129-4.3875,8.2363,15.1434,9.1436,25.675s17.7126,91.9141,19.7611,96.4511
	c1.4335,3.1748,9.35,23.3643,13.9747,35.202c1.4877,3.8081,6.5514,4.5465,9.071,1.3268l30.4636-38.9277
	c2.7438-3.506,8.3285-2.2495,9.3063,2.0938l11.0035,48.8798c0.2985,1.3258,0.0741,2.7157-0.6266,3.8802L1956,540
	c60.5287-30.3762-16.9982,49.3278-16,51c6.0887,10.1997-15.8674,46.3099-7,58c10.37,13.671,13.1458,28.1635,15.7822,65.7678
	c2.2981,32.7772-19.8317,90.3247-25.5509,104.5589c-0.793,1.9736-2.6892,3.2738-4.816,3.3062L-15.1742,852.102
	c-2.7748,0.0423-5.1085-2.0714-5.3403-4.8369l-15.804-188.5661c-0.0333-0.3975-0.0224-0.7907,0.0343-1.1855
	c1.3188-9.1698,17.7188-122.5616,22.8471-126.8146c3.691-3.061,54.3225-47.7415,85.2994-75.0961
	c4.471-3.9482,11.0295,1.3914,8.0759,6.5734l-26.8365,47.0837c-0.4963,0.8708-0.7344,1.8648-0.6866,2.8659l2.1312,44.5634
	c0.1346,2.8152,2.4573,5.028,5.2757,5.0261l92.74-0.0607c2.1895-0.0014,4.1507-1.3544,4.9296-3.4006l28.5141-74.9113
	c0.5771-1.5161,0.4268-3.2108-0.4109-4.6001c-7.7952-12.9274-47.5689-78.5794-53.8356-82.7309
	c-6.9534-4.6065-39.8392-74.2929-39.8392-74.2929L57,197l53.1766,108.5455c0,0,88.3323-39.5562,75.8234-24.5455
	c-30,36,64.3127,65.8008,78,69c12.6634,2.9599,32.611-45.4229,39-33c0.5164,1.004,38.6366,123.1533,38.455,124.2677
	c-1.8701,11.48-12.5513,77.1726-13.6504,86.7508c-1.2051,10.5017,14.9621,136.9554,18.1518,135.4979
	c1.7289-0.79,39.5315,36.8951,73.7955,71.5798C424.3701,739.7711,431.6679,733.4841,427.731,728.2225z"/>
<path style="fill:#F7944B;" d="M166.6364,371L195,427v79l-51.2121,76l-36.2424,43l99.2727-55l56.7273-83c0,0-40.2572-86-38.2498-90
	S166.6364,371,166.6364,371z"/>
<path style="fill:#F7944B;" d="M152,804.7364L178.6442,722L209,709.3597c0,0-59-81.3597-57-84.3597s136-117,136-117l-68,101l37,36
	l43.2602,50L288,747l12.2602,57.7364H152z"/>
<path style="fill:#F7944B;" d="M559.6248,776l37.2294-42c0,0,16.1458-22.2806,17.1458-24.6403S581.342,624,581.342,624L592,586
	l-1,36l68,64c0,0,11,78,11,81s-31,42.3713-31,42.3713L559.6248,776z"/>
<polygon style="fill:#F7944B;" points="879,587 826.2305,664 838,687.8682 852.6152,652 925,637.4341 986,582 930.4728,614 918,582 
	"/>
<polygon style="fill:#F7944B;" points="1019,481 1009,518 985,547 1002,540 1019,514 "/>
<polygon style="fill:#F7944B;" points="643.8542,433 549,481 549,514 549,547 619.9271,491 657,450 701,416 "/>
<polygon style="fill:#F7944B;" points="462,675.8682 467,697.6857 478,697.6857 470,686.7769 "/>
<polygon style="fill:#F7944B;" points="527.3594,602 500,657 500,697.6857 513.6797,662 "/>
<polygon style="fill:#F7944B;" points="980,697.6857 953,740 993.0392,805.4575 993.0392,776 1002,727 1008,667 "/>
<polygon style="fill:#F7944B;" points="892,662.8682 856.978,700 868,736 902.1152,693 969,654 938.8826,654 "/>
<polygon style="fill:#F7944B;" points="710,626 736,637 729,658 693,675.8682 680,742 699,768 695,736.2288 708.5424,692 
	758,686.7769 799,655 766,654 745,622.9341 "/>
<polygon style="fill:#F7944B;" points="807,714 762,741 762,756 779,749 813,749 837.6042,691 "/>
<polygon style="fill:#F7944B;" points="1008,570 1008,616 980,631 953,653 985,645 1019,629 "/>
<polygon style="fill:#F7944B;" points="527.3594,551 527.3594,593 544,622.9341 520,686.7769 500,741 513.6797,759 527.3594,723.5 
	581.342,716 564,677 567,602 581.342,570 552.179,578 "/>
<polygon style="fill:#F7944B;" points="641,508 590,535 601.5,551 614.8124,579 614.8124,611.5 635.3246,632 661,655 680,645 
	648,635 630.671,586 647,544 712,432 "/>
<polygon style="fill:#F7944B;" points="288,547 247,591 257,628 288,645 310,660 316,691 307,723.5 335,709.3597 359,697.6857 
	333,686.7769 323,586 288,602 272,586 "/>
<polygon style="fill:#F7944B;" points="292,371 295.2602,429 300,508 264,473 247,410 252,384 184,370 108,332 163,305 204,345 
	233,350 "/>
<polygon style="fill:#F7944B;" points="300,350 328.1822,432 328.1822,496 303,560 300.2602,526 314.2212,489.5 "/>
<polygon style="fill:#F7944B;" points="924.4728,709.3597 904,736.2288 904,763 924.4728,742 986,675.8682 "/>
<polygon style="fill:#F7944B;" points="1075,697.6857 1126.7524,730 1111,763 1100.8762,736.2288 "/>
<polygon style="fill:#F7944B;" points="1043,697.6857 1019,756 1053,768 1100.8762,759 1088,736.2288 1063,736.2288 1059.9381,691 
	"/>
<polygon style="fill:#F7944B;" points="1019,663 1019,691 1036,686.7769 "/>
<polygon style="fill:#F7944B;" points="1136,708 1221,708 1203,729.5 1174,763 1171,729.5 "/>
<path style="fill:#F7944B;" d="M1143,736.2288L1149,756c0,0-12,2-13,0S1143,736.2288,1143,736.2288z"/>
<polygon style="fill:#F7944B;" points="1248,602 1225,635.25 1236.5,708 1262,730.3428 1243.5,697.6857 1243.5,630 "/>
<polygon style="fill:#F7944B;" points="1262,697.6857 1304,736.2288 1277,735.5 "/>
<polygon style="fill:#F7944B;" points="1337,756 1362,763 1404,697.6857 1454.9915,682 1407,716.9572 1388,790 1337,776 "/>
<polygon style="fill:#F7944B;" points="1461,697.6857 1433,716.9572 1441,756 "/>
<polygon style="fill:#F7944B;" points="1413.4187,736.2288 1413.4187,756 1422.1055,756 "/>
<path style="fill:#F7944B;" d="M1413.4187,514L1403,560l34,51.5l17.9915,33.5v18L1487,622.9341c0,0-28.0171-18.9341-32.0085-20.9341
	S1413.4187,514,1413.4187,514z"/>
<path style="fill:#F7944B;" d="M1469,586l11,2.5l-9,13.5c0,0-13.0171-15-16.0085-19S1469,586,1469,586z"/>
<polygon style="fill:#F7944B;" points="1502,611.5 1529.4502,628 1524,736.2288 1510,667 "/>
<polygon style="fill:#F7944B;" points="1474,655 1491,645 1497,675.8682 1515.7251,708 1515.7251,759 1454.6384,772 
	1485.1818,735.5 "/>
<polygon style="fill:#F7944B;" points="1563,759 1586,783 1543,783 "/>
<polygon style="fill:#F7944B;" points="1626.8671,697.6857 1611,723.5 1626.8671,756 1654,771 1666,759 1626.8671,736.2288 "/>
<polygon style="fill:#F7944B;" points="842,581.7654 866,535 881,535 936.8826,551 889.4413,551 "/>
<polygon style="fill:#F7944B;" points="19,729.9572 38,623 15.5,543 43,502.5 27.5,553 69,582 125,575 70,648.25 "/>
<polygon style="fill:#F7944B;" points="64,729 80,646 117,646 169.6442,699 117,677 "/>
<polygon style="fill:#F7944B;" points="84.7395,732.4341 125,695 144,759.5588 "/>
<polygon style="fill:#F7944B;" points="734,716.9572 718,749 750,763 734,739.9786 "/>
<polygon style="fill:#F7944B;" points="789,682 757,716.9572 807,697.6857 "/>
<polygon style="fill:#F7944B;" points="1723,461 1689,506 1653,557 1738,626.9341 1710,562.3827 "/>
<polygon style="fill:#F7944B;" points="1744.1396,496 1724,547 1744.1396,586 "/>
<polygon style="fill:#F7944B;" points="1738,602 1856,667 1831,709.3597 1764,709.3597 1804,680.9786 "/>
<polygon style="fill:#F7944B;" points="1750,649.8428 1754,680.9786 1787,680.9786 "/>
<polygon style="fill:#F7944B;" points="1768.5,496 1754,586 1792,611.5 1773,553.75 "/>
<polygon style="fill:#F7944B;" points="1836,338 1787,385 1816,478.5 1787,514 1811.5,622.9341 1828,514 1872,496 1797,388 "/>
<polygon style="fill:#F7944B;" points="1837,359 1816,384 1861.4122,436 "/>
<polygon style="fill:#F7944B;" points="1907,473 1841,530 1827.5,631 1868,663 1856,708 1889,734.3428 1895,759 1901,667 1879,691 
	1883,635.25 1851,623 "/>
<polygon style="fill:#F7944B;" points="1907,544 1872,611.5 1889.5,627 1894,645 "/>
<linearGradient id="SVGID_1_" gradientUnits="userSpaceOnUse" x1="955" y1="1080.0309" x2="955" y2="709.3597">
	<stop  offset="0" style="stop-color:#995E69"/>
	<stop  offset="0.4125" style="stop-color:#9B6169"/>
	<stop  offset="0.6625" style="stop-color:#A36968"/>
	<stop  offset="0.8686" style="stop-color:#B07766"/>
	<stop  offset="1" style="stop-color:#BC8565"/>
</linearGradient>
<polygon style="fill:url(#SVGID_1_);" points="1901.3335,776 1894.7001,741.5753 1733.5488,709.3597 1704.8433,776 1331.1707,776 
	1319.2375,755.2991 1224.3271,724.6315 1180.6451,776 436.5938,776 437.0018,771.606 347.36,728.494 251.224,755.3155 249.3032,776 
	107.2831,776 108.585,765.4517 26.2397,728.4119 -19.1705,776 -36,776 -36,1080.0309 1946,1080.0309 1946,776 "/>
<linearGradient id="SVGID_00000021077051142063532170000011998495150309535924_" gradientUnits="userSpaceOnUse" x1="328.1822" y1="890.9456" x2="328.1822" y2="846.4505">
	<stop  offset="0" style="stop-color:#552B48"/>
	<stop  offset="0.0619" style="stop-color:#61324A"/>
	<stop  offset="0.1922" style="stop-color:#733C4E"/>
	<stop  offset="0.3482" style="stop-color:#7F4350"/>
	<stop  offset="0.5535" style="stop-color:#874852"/>
	<stop  offset="1" style="stop-color:#894952"/>
</linearGradient>
<ellipse style="fill:url(#SVGID_00000021077051142063532170000011998495150309535924_);" cx="328.1822" cy="868.698" rx="231.4427" ry="22.2475"/>
<linearGradient id="SVGID_00000078028497585474387720000010219716013588541063_" gradientUnits="userSpaceOnUse" x1="527.3594" y1="956.2976" x2="635.3246" y2="956.2976">
	<stop  offset="0" style="stop-color:#552B48"/>
	<stop  offset="0.0619" style="stop-color:#61324A"/>
	<stop  offset="0.1922" style="stop-color:#733C4E"/>
	<stop  offset="0.3482" style="stop-color:#7F4350"/>
	<stop  offset="0.5535" style="stop-color:#874852"/>
	<stop  offset="1" style="stop-color:#894952"/>
</linearGradient>
<ellipse style="fill:url(#SVGID_00000078028497585474387720000010219716013588541063_);" cx="581.342" cy="956.2976" rx="53.9826" ry="8.8063"/>
<linearGradient id="SVGID_00000152251782580979882640000017572444681755417531_" gradientUnits="userSpaceOnUse" x1="708.5424" y1="828.3744" x2="1165.2228" y2="828.3744">
	<stop  offset="0" style="stop-color:#552B48"/>
	<stop  offset="0.0619" style="stop-color:#61324A"/>
	<stop  offset="0.1922" style="stop-color:#733C4E"/>
	<stop  offset="0.3482" style="stop-color:#7F4350"/>
	<stop  offset="0.5535" style="stop-color:#874852"/>
	<stop  offset="1" style="stop-color:#894952"/>
</linearGradient>
<ellipse style="fill:url(#SVGID_00000152251782580979882640000017572444681755417531_);" cx="936.8826" cy="828.3744" rx="228.3402" ry="23.638"/>
<linearGradient id="SVGID_00000138553323405528986850000007800977618096540040_" gradientUnits="userSpaceOnUse" x1="924.4728" y1="1042.5067" x2="1126.7524" y2="1042.5067">
	<stop  offset="0" style="stop-color:#552B48"/>
	<stop  offset="0.0619" style="stop-color:#61324A"/>
	<stop  offset="0.1922" style="stop-color:#733C4E"/>
	<stop  offset="0.3482" style="stop-color:#7F4350"/>
	<stop  offset="0.5535" style="stop-color:#874852"/>
	<stop  offset="1" style="stop-color:#894952"/>
</linearGradient>
<ellipse style="fill:url(#SVGID_00000138553323405528986850000007800977618096540040_);" cx="1025.6125" cy="1042.5067" rx="101.1398" ry="12.5142"/>
<linearGradient id="SVGID_00000075873131460940085110000016772162695092470454_" gradientUnits="userSpaceOnUse" x1="820.2305" y1="948.65" x2="854.978" y2="948.65">
	<stop  offset="0" style="stop-color:#552B48"/>
	<stop  offset="0.0619" style="stop-color:#61324A"/>
	<stop  offset="0.1922" style="stop-color:#733C4E"/>
	<stop  offset="0.3482" style="stop-color:#7F4350"/>
	<stop  offset="0.5535" style="stop-color:#874852"/>
	<stop  offset="1" style="stop-color:#894952"/>
</linearGradient>
<ellipse style="fill:url(#SVGID_00000075873131460940085110000016772162695092470454_);" cx="837.6042" cy="948.65" rx="17.3737" ry="7.6476"/>
<linearGradient id="SVGID_00000036236170356522179660000018405807392292574378_" gradientUnits="userSpaceOnUse" x1="552.179" y1="809.3713" x2="596.8542" y2="809.3713">
	<stop  offset="0" style="stop-color:#552B48"/>
	<stop  offset="0.0619" style="stop-color:#61324A"/>
	<stop  offset="0.1922" style="stop-color:#733C4E"/>
	<stop  offset="0.3482" style="stop-color:#7F4350"/>
	<stop  offset="0.5535" style="stop-color:#874852"/>
	<stop  offset="1" style="stop-color:#894952"/>
</linearGradient>
<ellipse style="fill:url(#SVGID_00000036236170356522179660000018405807392292574378_);" cx="574.5166" cy="809.3713" rx="22.3376" ry="4.6349"/>
<linearGradient id="SVGID_00000170256807170943294240000013289593995848634807_" gradientUnits="userSpaceOnUse" x1="178.6442" y1="984.1071" x2="300.2602" y2="984.1071">
	<stop  offset="0" style="stop-color:#552B48"/>
	<stop  offset="0.0619" style="stop-color:#61324A"/>
	<stop  offset="0.1922" style="stop-color:#733C4E"/>
	<stop  offset="0.3482" style="stop-color:#7F4350"/>
	<stop  offset="0.5535" style="stop-color:#874852"/>
	<stop  offset="1" style="stop-color:#894952"/>
</linearGradient>
<ellipse style="fill:url(#SVGID_00000170256807170943294240000013289593995848634807_);" cx="239.4522" cy="984.1071" rx="60.808" ry="19.0031"/>
<linearGradient id="SVGID_00000098917146734567907270000002713427178246924936_" gradientUnits="userSpaceOnUse" x1="1178.8735" y1="928.0247" x2="1731.1094" y2="928.0247">
	<stop  offset="0" style="stop-color:#552B48"/>
	<stop  offset="0.0619" style="stop-color:#61324A"/>
	<stop  offset="0.1922" style="stop-color:#733C4E"/>
	<stop  offset="0.3482" style="stop-color:#7F4350"/>
	<stop  offset="0.5535" style="stop-color:#874852"/>
	<stop  offset="1" style="stop-color:#894952"/>
</linearGradient>
<ellipse style="fill:url(#SVGID_00000098917146734567907270000002713427178246924936_);" cx="1454.9915" cy="928.0247" rx="276.1179" ry="19.4666"/>
<linearGradient id="SVGID_00000137092697671778455600000007666644384539412911_" gradientUnits="userSpaceOnUse" x1="1422.1055" y1="816.7871" x2="1636.7949" y2="816.7871">
	<stop  offset="0" style="stop-color:#552B48"/>
	<stop  offset="0.0619" style="stop-color:#61324A"/>
	<stop  offset="0.1922" style="stop-color:#733C4E"/>
	<stop  offset="0.3482" style="stop-color:#7F4350"/>
	<stop  offset="0.5535" style="stop-color:#874852"/>
	<stop  offset="1" style="stop-color:#894952"/>
</linearGradient>
<ellipse style="fill:url(#SVGID_00000137092697671778455600000007666644384539412911_);" cx="1529.4502" cy="816.7871" rx="107.3447" ry="2.7809"/>
<linearGradient id="SVGID_00000168111582364906472230000017864556283913915026_" gradientUnits="userSpaceOnUse" x1="1342.6829" y1="872.4059" x2="1413.4187" y2="872.4059">
	<stop  offset="0" style="stop-color:#552B48"/>
	<stop  offset="0.0619" style="stop-color:#61324A"/>
	<stop  offset="0.1922" style="stop-color:#733C4E"/>
	<stop  offset="0.3482" style="stop-color:#7F4350"/>
	<stop  offset="0.5535" style="stop-color:#874852"/>
	<stop  offset="1" style="stop-color:#894952"/>
</linearGradient>
<ellipse style="fill:url(#SVGID_00000168111582364906472230000017864556283913915026_);" cx="1378.0508" cy="872.4059" rx="35.3679" ry="3.7079"/>
<linearGradient id="SVGID_00000088823409613234202410000012540791212442881694_" gradientUnits="userSpaceOnUse" x1="1626.8671" y1="1036.9449" x2="1861.4122" y2="1036.9449">
	<stop  offset="0" style="stop-color:#552B48"/>
	<stop  offset="0.0619" style="stop-color:#61324A"/>
	<stop  offset="0.1922" style="stop-color:#733C4E"/>
	<stop  offset="0.3482" style="stop-color:#7F4350"/>
	<stop  offset="0.5535" style="stop-color:#874852"/>
	<stop  offset="1" style="stop-color:#894952"/>
</linearGradient>
<ellipse style="fill:url(#SVGID_00000088823409613234202410000012540791212442881694_);" cx="1744.1396" cy="1036.9449" rx="117.2726" ry="18.0761"/>
<polygon style="fill:#A01E10;" points="394,690 394,662 394,644 409,621.9341 455,709 400,707 "/>
<polygon style="fill:#A01E10;" points="1049,581.7654 1054,656 1135.9135,682 1136,663 1080,627 1064,551 "/>
<polygon style="fill:#A01E10;" points="1173,586 1165.2228,645 1149,660 1149,682 1178.8735,682 1165.2228,673.8644 "/>
<polygon style="fill:#A01E10;" points="1178.8735,635.25 1178.5,666.1469 1203,687 1215,655.6798 1196.75,663 "/>
<polygon style="fill:#A01E10;" points="1173,586 1178.8735,616 1186,601 "/>
<polygon style="fill:#A01E10;" points="1241.1704,394.1106 1295.1704,507.1106 1283,564.3112 1322,535 "/>
<polygon style="fill:#A01E10;" points="1247,385 1295,385 1370,498.1556 1308,442.5 1290,401 "/>
<polygon style="fill:#A01E10;" points="1266,405 1209,338 1266,426 "/>
<path style="fill:#A01E10;" d="M1295,442.5c3,4.5,83.0508,71.5,83.0508,71.5L1385,586l-48,5.8827L1361,547L1295,442.5z"/>
<polygon style="fill:#A01E10;" points="1322,535 1304,560 1304,611.5 1271,645 1318,709.3597 1322,635.25 "/>
<polygon style="fill:#A01E10;" points="1282,603.2286 1282,611.5 1296.5,603.2286 "/>
<polygon style="fill:#A01E10;" points="1344.5,607.3643 1378.0508,601 1395.9957,663 1353,697.6857 1351,730.3428 1331,719.4341 "/>
<path style="fill:#A01E10;" d="M1395.9957,603.2286L1408,645L1395.9957,603.2286z"/>
<polygon style="fill:#A01E10;" points="491,539.967 455,575.3112 483,564.3112 "/>
<polygon style="fill:#A01E10;" points="500,508 513.6797,535 500,601 482,622.1798 455,601 491,588.5 "/>
<polygon style="fill:#A01E10;" points="90,351 116.8221,385 116.8221,514 90,503 96.7395,403 "/>
<path style="fill:#A01E10;" d="M85,386c0,0-15,67-16,70s16-15,16-15V386z"/>
<polygon style="fill:#A01E10;" points="1611,624.1143 1586,691 1548,716.9572 1586,705 "/>
<polygon style="fill:#A01E10;" points="1557,729.5 1586,716.9572 1586,730.3428 "/>
<polygon style="fill:#A01E10;" points="1675,611.5 1724,661.0134 1660,736 1666,708 1702,673.75 "/>
<polygon style="fill:#A01E10;" points="1636.7949,564.3112 1692,673.75 1666,697.6857 1660,645 1617,670.5358 1636.7949,607.3643 
	"/>
<polygon style="fill:#A01E10;" points="1595,611.5 1611,601 1617,616 1626.8671,594.5 1626.8671,457 1617,432 1724,409 1738,359 
	1702,391 1646,359 1638.5,391 1611,415 1595,457 1603,528 "/>
<polygon style="fill:#A01E10;" points="1643,436 1709,432 1702,452 1660,508 1639,540 1638.5,473 "/>
<polygon style="fill:#A01E10;" points="1750,363 1738,403 1744,441.3373 1768.5,409 "/>
<polygon style="fill:#A01E10;" points="1762,351 1768.5,371 1803,330 "/>
<polygon style="fill:#A01E10;" points="1673.75,359 1697,371 1714,359 "/>
<polygon style="fill:#A01E10;" points="71.9788,514 63.9576,544 133,547 "/>
<polygon style="fill:#A01E10;" points="141,496 125,518 141,530.5 145,547 186.0058,483.3428 "/>
</svg>
