<?xml version="1.0" encoding="utf-8"?>
<!-- Generator: Adobe Illustrator 26.5.0, SVG Export Plug-In . SVG Version: 6.00 Build 0)  -->
<svg version="1.1" id="Layer_1" xmlns="http://www.w3.org/2000/svg" xmlns:xlink="http://www.w3.org/1999/xlink" x="0px" y="0px"
	 viewBox="0 0 1920 1080" style="enable-background:new 0 0 1920 1080;" xml:space="preserve">
<polygon style="fill:#600B32;" points="365,718 392,573 365,553 365,525 347,505 354,485 365,496 376.3398,518 383,532 392,520 
	392,490 383,415 392,415 405.6797,490 419.3594,492 419.3594,409 432.671,415 432.671,487 441,487 444.179,418 457,424 
	451.6248,494 462,488 473.342,449 482,457 466.5166,510 451.6248,576 432.671,586 405.6797,773 354,794 "/>
<polygon style="fill:#600B32;" points="1481,650 1508,505 1481,485 1481,457 1483,442 1490,422 1501,433 1492.3398,450 1499,464 
	1508,452 1508,422 1503.5165,384.6371 1487,365 1496,365 1514.4854,382.5565 1521.6797,422 1535.3594,424 1535.3594,378.3863 
	1523.3594,354 1536.671,360 1548.671,379.7165 1548.671,419 1557,419 1558.6859,382.4068 1563.179,359 1576,365 1570.7628,385.1341 
	1567.6249,426 1578,420 1583.3824,401.4922 1580.342,384 1589,392 1592.6837,407.1978 1582.5166,442 1567.6249,508 1548.671,518 
	1521.6797,705 1470,726 "/>
<polygon style="fill:#600B32;" points="1170.6837,638 1143.6837,493 1170.6837,473 1182,449 1182,431 1177,409 1164,413 1168,431 
	1152.6837,452 1143.6837,440 1144,410 1146.1672,378.6371 1161.6837,367 1152.6837,367 1135.1984,376.5565 1130.004,410 
	1116.3243,412 1116.3243,366.3863 1120.3243,356 1107.0127,362 1103.0127,367.7165 1103.0127,407 1094.6837,407 1092.9978,370.4068 
	1096.5048,359 1083.6837,365 1080.9209,373.1341 1084.0588,414 1073.6837,408 1068.3013,389.4922 1071.3417,372 1062.6837,380 
	1059,395.1978 1069.1671,430 1084.0588,496 1103.0127,506 1130.004,693 1181.6837,714 "/>
<path style="fill:#C6562A;" d="M1489.0599,739.2225l0.0001-0.0001c3.2275-4.3135-1.321-10.1224-6.2826-8.0235l-18.4253,7.7944
	c-0.2181,0.0922-0.4255,0.1962-0.6289,0.3173c-2.0269,1.2064-14.4788,8.197-15.5854-1.4468
	c-1.2051-10.5017,19.4709-42.3507,21.9836-51.4023c1.7767-6.4003,15.3348-57.2941,23.1251-86.5598
	c1.4158-5.3188-5.2365-8.9764-8.9756-4.9375l-28.886,31.2018c-0.2477,0.2676-0.467,0.5601-0.6544,0.8728l-16.8949,28.1951
	c-2.254,3.7615-7.8459,3.2936-9.4434-0.7902l-22.1664-56.6677c-0.1473-0.3768-0.251-0.7693-0.3087-1.1697l-13.907-96.4768
	c-0.1765-1.2243-0.7775-2.3478-1.6978-3.1742l-95.002-124.2256c-0.9878-0.8871-2.2737-1.3692-3.6013-1.3504l-71.1758,1.008
	c-3.9841,0.0564-6.4716,4.3383-4.547,7.8273l42.8431,77.6667c0.4036,0.7315,0.6274,1.5427,0.6538,2.3777
	c0.3751,11.8612,12.0009,150.2557,4.2815,163.0075c-6.6635,11.0075-47.0941,17.6009-62.4568,19.7365
	c-3.1447,0.4371-5.9551-1.9797-6-5.1542l-0.7393-52.199c-0.0181-1.2736-0.4961-2.4977-1.3458-3.4466l-18.361-20.5021
	c-3.0977-3.4589-8.8303-1.5211-9.1941,3.1078l-5.0853,64.7151c-0.134,1.7062-1.087,3.2415-2.5566,4.1187l-26.6718,15.9215
	c-2.4926,1.4879-5.7189,0.6838-7.2216-1.8l-7.8813-13.027c-0.146-0.2413-0.2723-0.4938-0.3781-0.7553l-24.2922-60.1365
	c-0.1973-0.4884-0.4629-0.9406-0.7954-1.3491c-4.6035-5.6544-39.7583-47.9995-55.4541-42.166
	c-14.7825,5.4941-36.1457,7.5966-41.0906,8.0243c-0.6849,0.0593-1.3412,0.2468-1.9523,0.5618
	c-6.4473,3.3235-45.6984,22.3422-62.444,1.924c-18.2736-22.2813-25.2063-64.2581-26.4539-77.7645
	c-0.9457-10.2375-0.0351,39.8441,1.4291,22.0892c0.337-4.0861-70.1405-29.974-73.8198-28.1651l46.1322,32.8818
	c-1.8299,0.8996-2.9779,2.7727-2.949,4.8116l4.546,91.7619c0.0018,0.1263-0.0005,0.2455-0.0078,0.3716
	c-0.2325,4.0317-4.2564,73.64-5.22,78.0309c-0.9923,4.5221-17.6566,21.2875-23.9509,24.382
	c-6.2943,3.0945-46.2363,17.1843-49.4048,17.2292c-3.1685,0.0449-88.7163,1.2565-96.0881,2.8635
	c-7.3717,1.6071-7.2731-66.0147-7.3795-73.5266c-0.0936-6.6075-20.8222-27.4562-25.8116-32.38
	c-0.6967-0.6876-1.5675-1.1635-2.5215-1.3824l-15.5046-3.5588c-4.8215-1.1068-30.05-11.4175-27.0495-7.4846
	c1.218,1.5965,23.7948,18.8799,24.0551,19.9237c0.9945,3.989,12.8418,28.8932,13.9449,40.0763
	c0.139,1.4088-7.1611,28.0522-8.0684,29.139L628.7909,720c0,0-59.4055,41.4181-65,43c-5.0593,1.4306-30.7076-69.0391-43.0354-71.438
	c-1.3537-0.2635-2.5504-1.0399-3.3273-2.1794c-4.8397-7.0973-57.3348,18.3565-41.6372-24.3826
	c18.3085-49.8476,44.8852-67.2736,44.8537-73.2839c-0.0315-6.0103,5.5819-57.1808,5.5181-61.6879
	c-0.0381-2.6957-16.0217-26.1301-28.863-44.531c-3.3363-4.7807-10.8168-1.4242-9.4629,4.2462l6.9263,29.0085
	c0.403,1.688-0.0494,3.4662-1.2102,4.7563l-53.7863,59.7774c-0.3364,0.3739-0.7175,0.6934-1.1456,0.9575
	c-6.1636,3.8023-55.2008,34.4066-59.9493,48.5533c-4.9053,14.6138,0.901,86.7935,1.2788,91.4128
	c0.0131,0.1595,0.0327,0.3101,0.0602,0.4678l4.6144,26.4702c0.568,3.2579-1.9656,6.2296-5.2723,6.1843l-44.5559-0.6115
	c-1.8404-0.0253-3.5347-1.0073-4.4713-2.5917l-34.8909-59.0221c-0.9219-1.5596-2.5793-2.5374-4.3902-2.59l-21.8206-0.635
	c-4.2258-0.123-6.8749,4.5179-4.6175,8.0922c6.597,10.4455,16.825,27.3023,16.1494,30.3812
	c-0.7538,3.4352-6.2604,15.6088-8.864,21.2625c-0.8283,1.7986-2.5916,2.977-4.57,3.0602l-97.7859,4.114
	c-3.4096,0.1434-6.0586-2.9296-5.4036-6.2788c4.4024-22.5085,18.7265-95.5678,20.4213-101.9399
	c2.0059-7.5418,78.4237-56.7097,81.4645-65.7689c2.851-8.4937-17.0072-60.2574-19.4971-66.6857
	c-0.1697-0.438-0.3942-0.8441-0.6733-1.2219l-54.348-73.5891c-3.2442-4.3927-10.2069-1.5704-9.4768,3.8414l3.6422,26.998
	c0.3834,2.8418-1.5654,5.469-4.3976,5.9179c-14.3185,2.2694-53.943,8.2152-53.9953,4.5226
	c-0.0638-4.5071,15.6034-75.3548,17.6823-85.903c2.0789-10.5482-55.05-56.278-63.563-60.6654s-8.2364,15.1434-9.1436,25.675
	s-17.7127,91.9141-19.7611,96.4511c-1.4334,3.1748-14.35,8.3643-18.9747,20.202c-1.4877,3.8081-6.5514,4.5465-9.0711,1.3268
	l-30.4636-38.9277c-2.7437-3.506-8.3285-2.2495-9.3062,2.0938l-11.0036,48.8798c-0.2985,1.3258-0.074,2.7157,0.6265,3.8802
	L-39.2091,551c-60.5287-30.3762,16.9982,49.3278,16,51c-6.0888,10.1997,15.8674,46.3099,7,58
	c-10.37,13.671-13.1457,28.1635-15.7822,65.7678c-2.2981,32.7772,19.8317,90.3247,25.5509,104.5589
	c0.793,1.9736,2.6892,3.2738,4.816,3.3062l1933.5895,29.4691c2.7749,0.0423,5.1085-2.0714,5.3403-4.8369l15.8041-188.5661
	c0.0332-0.3975,0.0223-0.7907-0.0344-1.1855c-1.3188-9.1698-17.7188-122.5616-22.847-126.8146
	c-3.691-3.061-54.3226-47.7415-85.2994-75.0961c-4.4709-3.9482-11.0295,1.3914-8.0759,6.5734l26.8365,47.0837
	c0.4962,0.8707,0.7344,1.8648,0.6865,2.8659l-2.1312,44.5634c-0.1346,2.8152-2.4573,5.028-5.2756,5.0261l-92.7401-0.0607
	c-2.1895-0.0014-4.1506-1.3544-4.9296-3.4006l-28.514-74.9113c-0.5771-1.5161-0.4269-3.2108,0.4109-4.6001
	c7.7952-12.9274,47.5688-78.5794,53.8356-82.7309c6.2803-4.1606,37.7941-73.6475,43.8365-87.0616
	c0.6384-1.4173,0.6166-3.0379-0.0544-4.44l-11.9578-24.9836c-2.4154-5.0466-9.9916-3.3608-10.0392,2.2338l-0.1813,21.2944
	c-0.0137,1.605-0.7568,3.1129-2.0177,4.1061c-5.49,4.3249-21.4275,16.1003-36.783,19.9713
	c-18.9468,4.7764-116.0697,9.1573-129.7571,12.3564c-12.6631,2.9598-55.8367,86.0955-62.2274,98.5216
	c-0.5167,1.0047-0.6959,2.1434-0.5143,3.2585c1.8706,11.4829,12.5511,77.1719,13.6503,86.7497
	c1.2051,10.5017-14.962,136.9554-18.1517,135.4979c-1.7289-0.79-39.5315,36.8951-73.7955,71.5798
	C1492.4208,750.7711,1485.123,744.4841,1489.0599,739.2225z"/>
<path style="fill:#F2BC51;" d="M427.731,728.2225L427.731,728.2225c-3.2277-4.3135,1.3209-10.1224,6.2826-8.0236l18.4253,7.7944
	c0.2181,0.0922,0.4254,0.1962,0.6289,0.3173c2.0268,1.2064,14.4787,8.197,15.5854-1.4468
	c1.2051-10.5017-19.471-42.3507-21.9837-51.4023c-1.7767-6.4003-15.3348-57.2941-23.125-86.5598
	c-1.4158-5.3188,5.2364-8.9764,8.9756-4.9375l28.886,31.2018c0.2477,0.2676,0.467,0.5601,0.6544,0.8728l16.8949,28.1951
	c2.2539,3.7615,7.8459,3.2936,9.4433-0.7902l22.1664-56.6677c0.1474-0.3768,0.2509-0.7693,0.3087-1.1697l13.907-96.4768
	c0.1765-1.2243,0.7774-2.3478,1.6978-3.1742l133.0019-93.2256c0.9879-0.8871,2.2737-1.3692,3.6013-1.3504l71.1758,1.008
	c3.9842,0.0564,6.4716,4.3383,4.547,7.8273l-42.8431,77.6667c-0.4035,0.7315-0.6274,1.5427-0.6538,2.3777
	c-0.3751,11.8612-50.0008,119.2557-42.2814,132.0075c6.6635,11.0075,47.0941,17.6009,62.4568,19.7365
	c3.1446,0.4371,5.955-1.9797,6-5.1542l-18.2607-12.199c0.0181-1.2736,0.496-2.4977,1.3458-3.4466l18.3609-20.5021
	c3.0977-3.4589,8.8303-1.5211,9.1941,3.1078l24.0854,24.7151c0.134,1.7062,1.087,3.2415,2.5566,4.1187l26.6718,15.9215
	c2.4926,1.4879,5.7189,0.6838,7.2216-1.8l7.8813-13.027c0.1459-0.2413,0.2723-0.4938,0.378-0.7553l24.2922-60.1365
	c0.1973-0.4884,0.4629-0.9406,0.7955-1.3491c4.6035-5.6544,39.7582-47.9995,55.454-42.166
	c14.7872,5.4958,36.1594,7.5979,41.0954,8.0247c0.682,0.059,1.3352,0.2457,1.9437,0.5593
	c6.4353,3.3178,45.6989,22.3483,62.4479,1.926c18.2737-22.2813,25.2063-64.2581,26.454-77.7645
	c0.9457-10.2375-1.9649-48.1559-3.4292-65.9108c-0.337-4.0861,3.9103-6.9731,7.5897-5.1642l20.098,9.8809
	c1.83,0.8996,2.9779,2.7727,2.9491,4.8116l-2.546,179.7619c-0.0017,0.1263,0.0006,0.2455,0.0078,0.3716
	c0.2325,4.0317,4.2565,73.64,5.22,78.0309c0.9923,4.5221,17.6566,21.2875,23.9509,24.382s46.2363,17.1843,49.4048,17.2292
	c3.1685,0.0449,88.7163,1.2565,96.0881,2.8635c7.3717,1.6071,7.2731-66.0147,7.3794-73.5266
	c0.0936-6.6075,20.8223-27.4562,25.8116-32.38c0.6967-0.6876,1.5675-1.1635,2.5215-1.3824l15.5046-3.5588
	c4.8215-1.1068,30.05-11.4175,27.0494-7.4846c-1.218,1.5965-23.7948,18.8799-24.0551,19.9237
	c-0.9945,3.989-12.8418,28.8932-13.9449,40.0763c-0.1389,1.4088,7.1611,28.0522,8.0684,29.139L1288,709c0,0,59.4055,41.4181,65,43
	c5.0593,1.4306,30.7076-69.0391,43.0354-71.438c1.3538-0.2635,2.5504-1.0399,3.3274-2.1794
	c4.8397-7.0973,57.3347,18.3565,41.6372-24.3826c-18.3085-49.8476-44.8851-67.2736-44.8536-73.2839
	c0.0315-6.0103-5.5819-57.1808-5.5181-61.6879c0.0381-2.6957,16.0217-26.1301,28.863-44.531
	c3.3363-4.7807,10.8168-1.4242,9.4629,4.2462l-6.9264,29.0085c-0.403,1.688,0.0494,3.4663,1.2102,4.7563l53.7864,59.7774
	c0.3364,0.3739,0.7175,0.6934,1.1455,0.9575c6.1636,3.8023,55.2009,34.4066,59.9493,48.5533
	c4.9053,14.6138-0.901,86.7935-1.2788,91.4128c-0.0131,0.1595-0.0327,0.3101-0.0602,0.4678l-4.6145,26.4702
	c-0.5679,3.2579,1.9656,6.2296,5.2723,6.1843l44.5559-0.6115c1.8403-0.0253,3.5347-1.0073,4.4713-2.5917l34.8909-59.0221
	c0.922-1.5596,2.5793-2.5374,4.3903-2.59l21.8207-0.635c4.2257-0.123,6.8749,4.5179,4.6174,8.0922
	c-6.5969,10.4455-16.825,27.3023-16.1493,30.3812c0.7538,3.4352,6.2604,15.6088,8.864,21.2625
	c0.8282,1.7986,2.5916,2.977,4.5699,3.0602l97.7859,4.114c3.4097,0.1434,6.0587-2.9296,5.4036-6.2788
	c-4.4023-22.5085-18.7264-95.5678-20.4213-101.9399c-2.0059-7.5418-78.4237-56.7097-81.4645-65.7689
	c-2.851-8.4937,17.0072-60.2574,19.4971-66.6857c0.1697-0.438,0.3942-0.8441,0.6732-1.2219l54.348-73.5891
	c3.2441-4.3927,10.2069-1.5704,9.4768,3.8414l-3.6421,26.998c-0.3834,2.8418,1.5653,5.469,4.3976,5.9179
	c14.3185,2.2694,53.943,8.2152,53.9954,4.5226c0.0637-4.5071-15.6035-75.3548-17.6824-85.903
	c-2.0789-10.5482,60.05-71.278,68.5631-75.6654c8.5129-4.3875,8.2363,15.1434,9.1436,25.675s17.7126,91.9141,19.7611,96.4511
	c1.4335,3.1748,9.35,23.3643,13.9747,35.202c1.4877,3.8081,6.5514,4.5465,9.071,1.3268l30.4636-38.9277
	c2.7438-3.506,8.3285-2.2495,9.3063,2.0938l11.0035,48.8798c0.2985,1.3258,0.0741,2.7157-0.6266,3.8802L1956,540
	c60.5287-30.3762-16.9982,49.3278-16,51c6.0887,10.1997-15.8674,46.3099-7,58c10.37,13.671,13.1458,28.1635,15.7822,65.7678
	c2.2981,32.7772-19.8317,90.3247-25.5509,104.5589c-0.793,1.9736-2.6892,3.2738-4.816,3.3062L-15.1742,852.102
	c-2.7748,0.0423-5.1085-2.0714-5.3403-4.8369l-15.804-188.5661c-0.0333-0.3975-0.0224-0.7907,0.0343-1.1855
	c1.3188-9.1698,17.7188-122.5616,22.8471-126.8146c3.691-3.061,54.3225-47.7415,85.2994-75.0961
	c4.471-3.9482,11.0295,1.3914,8.0759,6.5734l-26.8365,47.0837c-0.4963,0.8708-0.7344,1.8648-0.6866,2.8659l2.1312,44.5634
	c0.1346,2.8152,2.4573,5.028,5.2757,5.0261l92.74-0.0607c2.1895-0.0014,4.1507-1.3544,4.9296-3.4006l28.5141-74.9113
	c0.5771-1.5161,0.4268-3.2108-0.4109-4.6001c-7.7952-12.9274-47.5689-78.5794-53.8356-82.7309
	c-6.9534-4.6065-39.8392-74.2929-39.8392-74.2929l17.86-62.7619l0.3965,46.5886c0,0,19.8327,16.8103,38.7795,21.5867
	s78.0697,2.1573,91.757,5.3564c12.6634,2.9599,93.8388,93.0997,100.2279,105.5225c0.5164,1.004,0.6955,2.1421,0.514,3.2565
	c-1.8701,11.48-12.5513,77.1726-13.6504,86.7508c-1.2051,10.5017,14.9621,136.9554,18.1518,135.4979
	c1.7289-0.79,39.5315,36.8951,73.7955,71.5798C424.3701,739.7711,431.6679,733.4841,427.731,728.2225z"/>
<path style="fill:#F7944B;" d="M165,391l36,56v79l-65,76l-46,43l126-55l72-83c0,0-51.0957-86-48.5478-90S165,391,165,391z"/>
<path style="fill:#F7944B;" d="M152,804.7364L178.6442,722L209,709.3597c0,0-22-77.3597-20-80.3597s31-82,31-82v62l37,36l43.2602,50
	L288,747l12.2602,57.7364H152z"/>
<path style="fill:#F7944B;" d="M559.6248,776l37.2294-42c0,0,16.1458-22.2806,17.1458-24.6403S581.342,624,581.342,624L592,586
	l-1,36l68,64c0,0,11,78,11,81s-31,42.3713-31,42.3713L559.6248,776z"/>
<polygon style="fill:#F7944B;" points="879,587 826.2305,664 838,687.8682 852.6152,652 925,637.4341 986,582 930.4728,614 918,582 
	"/>
<polygon style="fill:#F7944B;" points="1019,481 1009,518 985,547 1002,540 1019,514 "/>
<polygon style="fill:#F7944B;" points="643.8542,433 549,481 549,514 549,547 619.9271,491 657,450 701,416 "/>
<polygon style="fill:#F7944B;" points="462,675.8682 467,697.6857 478,697.6857 470,686.7769 "/>
<polygon style="fill:#F7944B;" points="527.3594,602 500,657 500,697.6857 513.6797,662 "/>
<polygon style="fill:#F7944B;" points="980,697.6857 953,740 993.0392,805.4575 993.0392,776 1002,727 1008,667 "/>
<polygon style="fill:#F7944B;" points="892,662.8682 856.978,700 868,736 902.1152,693 969,654 938.8826,654 "/>
<polygon style="fill:#F7944B;" points="710,626 736,637 729,658 693,675.8682 680,742 699,768 695,736.2288 708.5424,692 
	758,686.7769 799,655 766,654 745,622.9341 "/>
<polygon style="fill:#F7944B;" points="807,714 762,741 762,756 779,749 813,749 837.6042,691 "/>
<polygon style="fill:#F7944B;" points="1008,570 1008,616 980,631 953,653 985,645 1019,629 "/>
<polygon style="fill:#F7944B;" points="527.3594,551 527.3594,593 544,622.9341 520,686.7769 500,741 513.6797,759 527.3594,723.5 
	581.342,716 564,677 567,602 581.342,570 552.179,578 "/>
<polygon style="fill:#F7944B;" points="661.8124,469 581.342,523 601.5,551 614.8124,579 614.8124,611.5 635.3246,632 661,655 
	680,645 648,635 630.671,586 630.671,514 712,432 "/>
<polygon style="fill:#F7944B;" points="288,547 247,591 257,628 288,645 310,660 316,691 307,723.5 335,709.3597 359,697.6857 
	333,686.7769 323,586 288,602 272,586 "/>
<polygon style="fill:#F7944B;" points="278,401 300.2602,436 288,473 263,448 275,432 257,391 189,377 152,345 198,352 209,365 
	238,357 "/>
<polygon style="fill:#F7944B;" points="300.2602,397 328.1822,432 328.1822,496 303,560 300.2602,526 314.2212,489.5 "/>
<polygon style="fill:#F7944B;" points="924.4728,709.3597 904,736.2288 904,763 924.4728,742 986,675.8682 "/>
<polygon style="fill:#F7944B;" points="1075,697.6857 1126.7524,730 1111,763 1100.8762,736.2288 "/>
<polygon style="fill:#F7944B;" points="1043,697.6857 1019,756 1053,768 1100.8762,759 1088,736.2288 1063,736.2288 1059.9381,691 
	"/>
<polygon style="fill:#F7944B;" points="1019,663 1019,691 1036,686.7769 "/>
<polygon style="fill:#F7944B;" points="1136,708 1221,708 1203,729.5 1174,763 1171,729.5 "/>
<path style="fill:#F7944B;" d="M1143,736.2288L1149,756c0,0-12,2-13,0S1143,736.2288,1143,736.2288z"/>
<polygon style="fill:#F7944B;" points="1248,602 1225,635.25 1236.5,708 1262,730.3428 1243.5,697.6857 1243.5,630 "/>
<polygon style="fill:#F7944B;" points="1262,697.6857 1304,736.2288 1277,735.5 "/>
<polygon style="fill:#F7944B;" points="1337,756 1362,763 1404,697.6857 1454.9915,682 1407,716.9572 1388,790 1337,776 "/>
<polygon style="fill:#F7944B;" points="1461,697.6857 1433,716.9572 1441,756 "/>
<polygon style="fill:#F7944B;" points="1413.4187,736.2288 1413.4187,756 1422.1055,756 "/>
<path style="fill:#F7944B;" d="M1413.4187,514L1403,560l34,51.5l17.9915,33.5v18L1487,622.9341c0,0-28.0171-18.9341-32.0085-20.9341
	S1413.4187,514,1413.4187,514z"/>
<path style="fill:#F7944B;" d="M1469,586l11,2.5l-9,13.5c0,0-13.0171-15-16.0085-19S1469,586,1469,586z"/>
<polygon style="fill:#F7944B;" points="1502,611.5 1529.4502,628 1524,736.2288 1510,667 "/>
<polygon style="fill:#F7944B;" points="1474,655 1491,645 1497,675.8682 1515.7251,708 1515.7251,759 1454.6384,772 
	1485.1818,735.5 "/>
<polygon style="fill:#F7944B;" points="1563,759 1586,783 1543,783 "/>
<polygon style="fill:#F7944B;" points="1626.8671,697.6857 1611,723.5 1626.8671,756 1654,771 1666,759 1626.8671,736.2288 "/>
<polygon style="fill:#F7944B;" points="842,581.7654 866,535 881,535 936.8826,551 889.4413,551 "/>
<polygon style="fill:#F7944B;" points="22,716.9572 15,602 18.5,530 46,489.5 30.5,540 46,581.7654 145,576 73,635.25 "/>
<polygon style="fill:#F7944B;" points="55,716.9572 90,673.8644 152,645 178.6442,697.6857 113,697.6857 "/>
<polygon style="fill:#F7944B;" points="96.7395,719.4341 161,708 156,746.5588 "/>
<polygon style="fill:#F7944B;" points="734,716.9572 718,749 750,763 734,739.9786 "/>
<polygon style="fill:#F7944B;" points="789,682 757,716.9572 807,697.6857 "/>
<polygon style="fill:#F7944B;" points="1723,457 1689,502 1666,564.3112 1738,622.9341 1710,558.3827 "/>
<polygon style="fill:#F7944B;" points="1744.1396,496 1724,547 1744.1396,586 "/>
<polygon style="fill:#F7944B;" points="1738,602 1856,667 1831,709.3597 1764,709.3597 1804,680.9786 "/>
<polygon style="fill:#F7944B;" points="1750,649.8428 1754,680.9786 1787,680.9786 "/>
<polygon style="fill:#F7944B;" points="1768.5,496 1754,586 1792,611.5 1773,553.75 "/>
<polygon style="fill:#F7944B;" points="1836,338 1787,385 1816,478.5 1787,514 1811.5,622.9341 1820,539.967 1868,473 1797,388 "/>
<polygon style="fill:#F7944B;" points="1837,359 1816,384 1861.4122,436 "/>
<polygon style="fill:#F7944B;" points="1907,473 1838.7061,547 1827.5,631 1868,663 1856,708 1889,734.3428 1895,759 1901,667 
	1879,691 1883,635.25 1851,622.9341 "/>
<polygon style="fill:#F7944B;" points="1907,544 1872,611.5 1889.5,627 1894,645 "/>
<linearGradient id="SVGID_1_" gradientUnits="userSpaceOnUse" x1="955" y1="1080.0309" x2="955" y2="709.3597">
	<stop  offset="0" style="stop-color:#995E69"/>
	<stop  offset="0.4125" style="stop-color:#9B6169"/>
	<stop  offset="0.6625" style="stop-color:#A36968"/>
	<stop  offset="0.8686" style="stop-color:#B07766"/>
	<stop  offset="1" style="stop-color:#BC8565"/>
</linearGradient>
<polygon style="fill:url(#SVGID_1_);" points="1901.3335,776 1894.7001,741.5753 1733.5488,709.3597 1704.8433,776 1331.1707,776 
	1319.2375,755.2991 1224.3271,724.6315 1180.6451,776 436.5938,776 437.0018,771.606 347.36,728.494 251.224,755.3155 249.3032,776 
	107.2831,776 108.585,765.4517 26.2397,728.4119 -19.1705,776 -36,776 -36,1080.0309 1946,1080.0309 1946,776 "/>
<linearGradient id="SVGID_00000118395760862650780990000001984958620575227296_" gradientUnits="userSpaceOnUse" x1="328.1822" y1="890.9456" x2="328.1822" y2="846.4505">
	<stop  offset="0" style="stop-color:#552B48"/>
	<stop  offset="0.0619" style="stop-color:#61324A"/>
	<stop  offset="0.1922" style="stop-color:#733C4E"/>
	<stop  offset="0.3482" style="stop-color:#7F4350"/>
	<stop  offset="0.5535" style="stop-color:#874852"/>
	<stop  offset="1" style="stop-color:#894952"/>
</linearGradient>
<ellipse style="fill:url(#SVGID_00000118395760862650780990000001984958620575227296_);" cx="328.1822" cy="868.698" rx="231.4427" ry="22.2475"/>
<linearGradient id="SVGID_00000091708300321988702570000014058448783598061743_" gradientUnits="userSpaceOnUse" x1="527.3594" y1="956.2976" x2="635.3246" y2="956.2976">
	<stop  offset="0" style="stop-color:#552B48"/>
	<stop  offset="0.0619" style="stop-color:#61324A"/>
	<stop  offset="0.1922" style="stop-color:#733C4E"/>
	<stop  offset="0.3482" style="stop-color:#7F4350"/>
	<stop  offset="0.5535" style="stop-color:#874852"/>
	<stop  offset="1" style="stop-color:#894952"/>
</linearGradient>
<ellipse style="fill:url(#SVGID_00000091708300321988702570000014058448783598061743_);" cx="581.342" cy="956.2976" rx="53.9826" ry="8.8063"/>
<linearGradient id="SVGID_00000075865482659278876070000001660182713636827829_" gradientUnits="userSpaceOnUse" x1="708.5424" y1="828.3744" x2="1165.2228" y2="828.3744">
	<stop  offset="0" style="stop-color:#552B48"/>
	<stop  offset="0.0619" style="stop-color:#61324A"/>
	<stop  offset="0.1922" style="stop-color:#733C4E"/>
	<stop  offset="0.3482" style="stop-color:#7F4350"/>
	<stop  offset="0.5535" style="stop-color:#874852"/>
	<stop  offset="1" style="stop-color:#894952"/>
</linearGradient>
<ellipse style="fill:url(#SVGID_00000075865482659278876070000001660182713636827829_);" cx="936.8826" cy="828.3744" rx="228.3402" ry="23.638"/>
<linearGradient id="SVGID_00000007415583305342602400000012253332328222587045_" gradientUnits="userSpaceOnUse" x1="924.4728" y1="1042.5067" x2="1126.7524" y2="1042.5067">
	<stop  offset="0" style="stop-color:#552B48"/>
	<stop  offset="0.0619" style="stop-color:#61324A"/>
	<stop  offset="0.1922" style="stop-color:#733C4E"/>
	<stop  offset="0.3482" style="stop-color:#7F4350"/>
	<stop  offset="0.5535" style="stop-color:#874852"/>
	<stop  offset="1" style="stop-color:#894952"/>
</linearGradient>
<ellipse style="fill:url(#SVGID_00000007415583305342602400000012253332328222587045_);" cx="1025.6125" cy="1042.5067" rx="101.1398" ry="12.5142"/>
<linearGradient id="SVGID_00000085962353292898154420000013946138842929502864_" gradientUnits="userSpaceOnUse" x1="820.2305" y1="948.65" x2="854.978" y2="948.65">
	<stop  offset="0" style="stop-color:#552B48"/>
	<stop  offset="0.0619" style="stop-color:#61324A"/>
	<stop  offset="0.1922" style="stop-color:#733C4E"/>
	<stop  offset="0.3482" style="stop-color:#7F4350"/>
	<stop  offset="0.5535" style="stop-color:#874852"/>
	<stop  offset="1" style="stop-color:#894952"/>
</linearGradient>
<ellipse style="fill:url(#SVGID_00000085962353292898154420000013946138842929502864_);" cx="837.6042" cy="948.65" rx="17.3737" ry="7.6476"/>
<linearGradient id="SVGID_00000153684367841664720440000003456279944939711901_" gradientUnits="userSpaceOnUse" x1="552.179" y1="809.3713" x2="596.8542" y2="809.3713">
	<stop  offset="0" style="stop-color:#552B48"/>
	<stop  offset="0.0619" style="stop-color:#61324A"/>
	<stop  offset="0.1922" style="stop-color:#733C4E"/>
	<stop  offset="0.3482" style="stop-color:#7F4350"/>
	<stop  offset="0.5535" style="stop-color:#874852"/>
	<stop  offset="1" style="stop-color:#894952"/>
</linearGradient>
<ellipse style="fill:url(#SVGID_00000153684367841664720440000003456279944939711901_);" cx="574.5166" cy="809.3713" rx="22.3376" ry="4.6349"/>
<linearGradient id="SVGID_00000166637845533125494640000013906933482874507156_" gradientUnits="userSpaceOnUse" x1="178.6442" y1="984.1071" x2="300.2602" y2="984.1071">
	<stop  offset="0" style="stop-color:#552B48"/>
	<stop  offset="0.0619" style="stop-color:#61324A"/>
	<stop  offset="0.1922" style="stop-color:#733C4E"/>
	<stop  offset="0.3482" style="stop-color:#7F4350"/>
	<stop  offset="0.5535" style="stop-color:#874852"/>
	<stop  offset="1" style="stop-color:#894952"/>
</linearGradient>
<ellipse style="fill:url(#SVGID_00000166637845533125494640000013906933482874507156_);" cx="239.4522" cy="984.1071" rx="60.808" ry="19.0031"/>
<linearGradient id="SVGID_00000044154662723921284970000006008316805913716379_" gradientUnits="userSpaceOnUse" x1="1178.8735" y1="928.0247" x2="1731.1094" y2="928.0247">
	<stop  offset="0" style="stop-color:#552B48"/>
	<stop  offset="0.0619" style="stop-color:#61324A"/>
	<stop  offset="0.1922" style="stop-color:#733C4E"/>
	<stop  offset="0.3482" style="stop-color:#7F4350"/>
	<stop  offset="0.5535" style="stop-color:#874852"/>
	<stop  offset="1" style="stop-color:#894952"/>
</linearGradient>
<ellipse style="fill:url(#SVGID_00000044154662723921284970000006008316805913716379_);" cx="1454.9915" cy="928.0247" rx="276.1179" ry="19.4666"/>
<linearGradient id="SVGID_00000065043030615499151090000000857296054396957335_" gradientUnits="userSpaceOnUse" x1="1422.1055" y1="816.7871" x2="1636.7949" y2="816.7871">
	<stop  offset="0" style="stop-color:#552B48"/>
	<stop  offset="0.0619" style="stop-color:#61324A"/>
	<stop  offset="0.1922" style="stop-color:#733C4E"/>
	<stop  offset="0.3482" style="stop-color:#7F4350"/>
	<stop  offset="0.5535" style="stop-color:#874852"/>
	<stop  offset="1" style="stop-color:#894952"/>
</linearGradient>
<ellipse style="fill:url(#SVGID_00000065043030615499151090000000857296054396957335_);" cx="1529.4502" cy="816.7871" rx="107.3447" ry="2.7809"/>
<linearGradient id="SVGID_00000021101950042010903940000007314894916375930504_" gradientUnits="userSpaceOnUse" x1="1342.6829" y1="872.4059" x2="1413.4187" y2="872.4059">
	<stop  offset="0" style="stop-color:#552B48"/>
	<stop  offset="0.0619" style="stop-color:#61324A"/>
	<stop  offset="0.1922" style="stop-color:#733C4E"/>
	<stop  offset="0.3482" style="stop-color:#7F4350"/>
	<stop  offset="0.5535" style="stop-color:#874852"/>
	<stop  offset="1" style="stop-color:#894952"/>
</linearGradient>
<ellipse style="fill:url(#SVGID_00000021101950042010903940000007314894916375930504_);" cx="1378.0508" cy="872.4059" rx="35.3679" ry="3.7079"/>
<linearGradient id="SVGID_00000108301006268528963730000015460034116889164207_" gradientUnits="userSpaceOnUse" x1="1626.8671" y1="1036.9449" x2="1861.4122" y2="1036.9449">
	<stop  offset="0" style="stop-color:#552B48"/>
	<stop  offset="0.0619" style="stop-color:#61324A"/>
	<stop  offset="0.1922" style="stop-color:#733C4E"/>
	<stop  offset="0.3482" style="stop-color:#7F4350"/>
	<stop  offset="0.5535" style="stop-color:#874852"/>
	<stop  offset="1" style="stop-color:#894952"/>
</linearGradient>
<ellipse style="fill:url(#SVGID_00000108301006268528963730000015460034116889164207_);" cx="1744.1396" cy="1036.9449" rx="117.2726" ry="18.0761"/>
<polygon style="fill:#A01E10;" points="403,691 403,663 403,645 418,622.9341 443,709.3597 409,708 "/>
<polygon style="fill:#A01E10;" points="1049,581.7654 1054,655.6798 1135.9135,682 1136,663 1086,653 1064,551 "/>
<polygon style="fill:#A01E10;" points="1173,586 1165.2228,645 1149,660 1149,682 1178.8735,682 1165.2228,673.8644 "/>
<polygon style="fill:#A01E10;" points="1178.8735,635.25 1178.5,666.1469 1203,686.7769 1215,655.6798 1196.75,663 "/>
<polygon style="fill:#A01E10;" points="1173,586 1178.8735,616 1186,601 "/>
<polygon style="fill:#A01E10;" points="1229,385 1283,467 1283,564.3112 1312,525 "/>
<polygon style="fill:#A01E10;" points="1247,385 1295,385 1370,498.1556 1308,442.5 1290,401 "/>
<polygon style="fill:#A01E10;" points="1266,405 1280,418.0778 1266,426 "/>
<path style="fill:#A01E10;" d="M1295,442.5c3,4.5,83.0508,71.5,83.0508,71.5L1385,586l-48,5.8827L1361,547L1295,442.5z"/>
<polygon style="fill:#A01E10;" points="1322,535 1304,560 1304,611.5 1271,645 1318,709.3597 1322,635.25 "/>
<polygon style="fill:#A01E10;" points="1282,603.2286 1282,611.5 1296.5,603.2286 "/>
<polygon style="fill:#A01E10;" points="1344.5,607.3643 1378.0508,601 1395.9957,663 1353,697.6857 1351,730.3428 1331,719.4341 "/>
<path style="fill:#A01E10;" d="M1395.9957,603.2286L1408,645L1395.9957,603.2286z"/>
<polygon style="fill:#A01E10;" points="491,539.967 455,575.3112 483,564.3112 "/>
<polygon style="fill:#A01E10;" points="500,508 513.6797,535 500,601 482,622.1798 455,601 491,588.5 "/>
<polygon style="fill:#A01E10;" points="90,351 116.8221,385 116.8221,514 90,503 96.7395,403 "/>
<path style="fill:#A01E10;" d="M85,386c0,0-15,67-16,70s16-15,16-15V386z"/>
<polygon style="fill:#A01E10;" points="1611,624.1143 1586,691 1548,716.9572 1586,705 "/>
<polygon style="fill:#A01E10;" points="1557,729.5 1586,716.9572 1586,730.3428 "/>
<polygon style="fill:#A01E10;" points="1675,611.5 1724,661.0134 1660,736 1666,708 1702,673.75 "/>
<polygon style="fill:#A01E10;" points="1636.7949,564.3112 1692,673.75 1666,697.6857 1660,645 1617,670.5358 1636.7949,607.3643 
	"/>
<polygon style="fill:#A01E10;" points="1595,611.5 1611,601 1617,616 1626.8671,594.5 1626.8671,457 1617,432 1724,409 1738,359 
	1702,391 1646,359 1638.5,391 1611,415 1595,457 1603,528 "/>
<polygon style="fill:#A01E10;" points="1643,436 1709,432 1702,452 1660,508 1654.5,544 1638.5,473 "/>
<polygon style="fill:#A01E10;" points="1750,363 1738,403 1744,441.3373 1768.5,409 "/>
<polygon style="fill:#A01E10;" points="1762,351 1768.5,371 1803,330 "/>
<polygon style="fill:#A01E10;" points="1673.75,359 1697,371 1714,359 "/>
<polygon style="fill:#A01E10;" points="71.9788,514 63.9576,544 133,547 "/>
<polygon style="fill:#A01E10;" points="141,496 125,518 141,530.5 145,547 186.0058,483.3428 "/>
</svg>
