<?xml version="1.0" encoding="utf-8"?>
<!-- Generator: Adobe Illustrator 26.5.1, SVG Export Plug-In . SVG Version: 6.00 Build 0)  -->
<svg version="1.1" id="Layer_3" xmlns="http://www.w3.org/2000/svg" xmlns:xlink="http://www.w3.org/1999/xlink" x="0px" y="0px"
	 viewBox="0 0 612 792" style="enable-background:new 0 0 612 792;" xml:space="preserve">
<g>
	<path style="fill:#E0493B;" d="M350.7998,713.3535c-4.5566,0-9.0068-1.1807-12.9463-3.4258h-91.4014
		c-3.938,2.2451-8.3882,3.4258-12.9448,3.4258H129.5625c-14.4395,0-26.187-11.7471-26.187-26.1865s11.7476-26.1865,26.187-26.1865
		h26.4956c-6.2695-12.4053-9.5571-26.166-9.5571-40.1904c0-26.9414,12.4067-52.4619,33.0557-69.2539H58.4775
		c-5.2358,0-9.4951-4.2598-9.4951-9.4951V97.0396c0-5.2358,4.2593-9.4956,9.4951-9.4956h1.5781l47.833,44.707h385.3486
		l55.3887-44.707h1.4131c5.2354,0,9.4951,4.2598,9.4951,9.4956V542.041c0,5.2354-4.2598,9.4951-9.4951,9.4951H398.4814
		c20.6484,16.792,33.0557,42.3125,33.0557,69.2539c0,14.0244-3.2881,27.7852-9.5576,40.1904h32.7646
		c14.4395,0,26.1865,11.7471,26.1865,26.1865s-11.7471,26.1865-26.1865,26.1865H350.7998z"/>
	<path style="fill:#42161A;" d="M550.0393,91.5442c3.0349,0,5.4952,2.4603,5.4952,5.4952v445.0015
		c0,3.0349-2.4603,5.4953-5.4952,5.4953h-164.261c24.9951,14.8338,41.7586,42.0802,41.7586,73.2537v0.0002
		c0,16.1815-4.5154,31.308-12.3533,44.1901h39.5607c12.2534,0,22.1868,9.9333,22.1868,22.1868
		c0,12.2534-9.9334,22.1868-22.1868,22.1868H350.7994c-4.3539,0-8.4115-1.259-11.838-3.4257h-93.6162
		c-3.4265,2.1667-7.484,3.4257-11.8379,3.4257h-103.945c-12.2534,0-22.1868-9.9333-22.1868-22.1868
		c0-12.2535,9.9334-22.1868,22.1868-22.1868h33.2918c-7.838-12.8821-12.3533-28.0086-12.3533-44.1901v-0.0002
		c0-31.1735,16.7635-58.4199,41.7586-73.2537H58.4778c-3.035,0-5.4953-2.4604-5.4953-5.4953V97.0394
		c0-3.0349,2.4603-5.4952,5.4953-5.4952l47.833,44.707h388.3401L550.0393,91.5442 M550.0393,83.5442h-2.8258l-2.1989,1.7748
		l-53.1896,42.9322H109.4673L63.9404,85.6996l-2.3061-2.1554h-3.1565c-7.4413,0-13.4953,6.0539-13.4953,13.4952v445.0015
		c0,7.4413,6.054,13.4953,13.4953,13.4953h110.728c-5.4388,5.5338-10.1915,11.7408-14.1122,18.4738
		c-8.2383,14.1476-12.5928,30.3239-12.5928,46.7799c0,12.4993,2.5,24.7991,7.3012,36.1903h-20.2397
		c-16.6451,0-30.1868,13.5417-30.1868,30.1868c0,16.6451,13.5417,30.1868,30.1868,30.1868h103.945
		c4.8854,0,9.666-1.1783,13.9647-3.4257h89.3626c4.2987,2.2474,9.0793,3.4257,13.9648,3.4257h103.9449
		c16.6451,0,30.1868-13.5417,30.1868-30.1868c0-16.6451-13.5417-30.1868-30.1868-30.1868h-26.5086
		c4.802-11.392,7.3012-23.6901,7.3012-36.1901c0-16.4561-4.3545-32.6324-12.5928-46.7802
		c-3.9207-6.733-8.6735-12.9399-14.1122-18.4738h141.2074c7.4413,0,13.4952-6.054,13.4952-13.4953V97.0394
		C563.5345,89.5981,557.4806,83.5442,550.0393,83.5442L550.0393,83.5442z"/>
</g>
<g>
	<rect x="372.2908" y="251.8975" style="fill:#42161A;" width="138.17" height="46.89"/>
</g>
<g>
	<rect x="97.4508" y="251.8975" style="fill:#42161A;" width="138.67" height="46.89"/>
</g>
</svg>
