<?xml version="1.0" encoding="utf-8"?>
<!-- Generator: Adobe Illustrator 26.5.1, SVG Export Plug-In . SVG Version: 6.00 Build 0)  -->
<svg version="1.1" id="Layer_3" xmlns="http://www.w3.org/2000/svg" xmlns:xlink="http://www.w3.org/1999/xlink" x="0px" y="0px"
	 viewBox="0 0 612 792" style="enable-background:new 0 0 612 792;" xml:space="preserve">
<g>
	<path style="fill:#E0493B;" d="M176.7852,755.4131c-5.4072,0-10.6104-1.6494-15.0464-4.7705
		c-11.8101-8.3066-14.6602-24.6738-6.3535-36.4844l39.5-56.1582c-29.5469-15.208-48.3843-45.8115-48.3843-79.2686
		c0-26.9414,12.4067-52.4619,33.0557-69.2539H58.4775c-5.2358,0-9.4951-4.2598-9.4951-9.4951V54.9805
		c0-5.2358,4.2593-9.4951,9.4951-9.4951h1.5781l47.833,44.707h385.3486l55.3887-44.707h1.4131c5.2354,0,9.4951,4.2593,9.4951,9.4951
		v445.002c0,5.2354-4.2598,9.4951-9.4951,9.4951H398.4814c20.6484,16.792,33.0557,42.3125,33.0557,69.2539
		c0,32.6768-18.2002,62.9414-46.7559,78.4209l41.5303,55.4717c4.1924,5.5996,5.9531,12.4961,4.958,19.4199
		s-4.627,13.0449-10.2266,17.2373c-4.5654,3.418-9.9863,5.2246-15.6768,5.2246c-8.2178,0-16.0605-3.9229-20.9805-10.4932
		l-57.0068-76.1436h-75.4038l-53.7515,76.4199C193.3247,751.2549,185.3101,755.4131,176.7852,755.4131z"/>
	<path style="fill:#42161A;" d="M550.0392,49.4854c3.035,0,5.4952,2.4603,5.4952,5.4952v445.0016
		c0,3.0349-2.4602,5.4952-5.4952,5.4952h-164.261c24.9951,14.8339,41.7585,42.0803,41.7585,73.2537v0.0002
		c0,34.0237-19.9642,63.3742-48.8114,77.0067l44.384,59.2832c7.3439,9.8089,5.3453,23.7141-4.4636,31.0577v0.0001
		c-3.9885,2.9861-8.6535,4.4274-13.28,4.4274c-6.7516,0-13.4202-3.0706-17.7779-8.8911l-58.2067-77.7458h-79.4827l-54.9469,78.1189
		c-4.3199,6.1417-11.1879,9.4242-18.1665,9.4242c-4.4096,0-8.8644-1.3117-12.7451-4.0413h-0.0001
		c-10.0224-7.0497-12.4324-20.8892-5.3829-30.9118l42.2142-60.0165c-29.6818-13.3005-50.3704-43.0806-50.3704-77.7115v-0.0002
		c0-31.1734,16.7634-58.4197,41.7585-73.2537H58.4777c-3.0349,0-5.4952-2.4603-5.4952-5.4952V54.9807
		c0-3.0349,2.4603-5.4952,5.4952-5.4952l47.833,44.707h388.3401L550.0392,49.4854 M550.0392,41.4854h-2.8257l-2.1989,1.7748
		L491.825,86.1924H109.4672L63.9404,43.6409l-2.3061-2.1554h-3.1566c-7.4413,0-13.4952,6.0539-13.4952,13.4952v445.0016
		c0,7.4413,6.0539,13.4952,13.4952,13.4952h110.7281c-5.4388,5.5338-10.1915,11.7408-14.1122,18.4738
		c-8.2382,14.1476-12.5928,30.3239-12.5928,46.7798c0,33.4169,17.9844,64.1096,46.5361,80.6314l-36.9233,52.4944
		c-9.576,13.6146-6.2906,32.4816,7.3238,42.0578c5.1137,3.5967,11.1124,5.4979,17.3478,5.4979c9.8255,0,19.063-4.7931,24.71-12.8217
		l52.5572-74.7214h71.3246l55.8068,74.5404c5.6708,7.5745,14.7108,12.0966,24.182,12.0966c6.5612,0,12.8113-2.0829,18.0747-6.0234
		c6.4546-4.8325,10.641-11.8892,11.788-19.8704c1.1471-7.9813-0.8826-15.9315-5.7151-22.386l-38.8213-51.8533
		c12.0242-7.2974,22.2741-17.2397,29.9745-29.1479c9.7282-15.0439,14.8702-32.5045,14.8702-50.4941
		c0-16.4561-4.3546-32.6323-12.5928-46.78c-3.9206-6.7329-8.6735-12.9401-14.1122-18.4739h141.2075
		c7.4413,0,13.4952-6.0539,13.4952-13.4952V54.9807C563.5345,47.5393,557.4806,41.4854,550.0392,41.4854L550.0392,41.4854z"/>
</g>
<g>
	<rect x="372.2908" y="209.8387" style="fill:#42161A;" width="138.17" height="46.89"/>
</g>
<g>
	<rect x="97.4508" y="209.8387" style="fill:#42161A;" width="138.67" height="46.89"/>
</g>
</svg>
