<?xml version="1.0" encoding="utf-8"?>
<!-- Generator: Adobe Illustrator 26.5.1, SVG Export Plug-In . SVG Version: 6.00 Build 0)  -->
<svg version="1.1" xmlns="http://www.w3.org/2000/svg" xmlns:xlink="http://www.w3.org/1999/xlink" x="0px" y="0px"
	 viewBox="0 0 800 600" style="enable-background:new 0 0 800 600;" xml:space="preserve">
<style type="text/css">
	.st0{fill:#F26456;stroke:#000000;stroke-miterlimit:10;}
	.st1{fill:#FFFFFF;}
	.st2{font-family:'Helvetica-Light';}
	.st3{font-size:24px;}
	.st4{letter-spacing:6;}
	.st5{font-size:12px;}
	.st6{display:none;fill:#42161A;}
	.st7{fill:#F26456;}
</style>
<g id="Layer_1">
	<rect class="st0" width="800" height="600"/>
	<text transform="matrix(1 0 0 1 310.7827 394.1515)" class="st1 st2 st3 st4">little guy</text>
	<text transform="matrix(1 0 0 1 345.7104 411.627)" class="st1 st2 st5">press ‘s’ to start</text>
	<text transform="matrix(1 0 0 1 332.8553 426.2466)" class="st1 st2 st5">press ‘i’ to instructions</text>
</g>
<g id="Layer_2">
	<g>
		<g>
			<path class="st1" d="M397.4,356.1c-3.3,0-5.9-2.7-5.9-5.9v-18.4h-11.4v17.9c0,3.3-2.7,5.9-5.9,5.9c-3.3,0-5.9-2.7-5.9-5.9v-18.7
				c-8.6-2.5-14.5-10.4-14.5-19.4c0-6.1,2.8-11.9,7.5-15.7h-27.4c-1.2,0-2.2-1-2.2-2.2V192.8c0-1.2,1-2.2,2.2-2.2h0.4l10.8,10.1
				h87.3l12.6-10.1h0.3c1.2,0,2.2,1,2.2,2.2v100.9c0,1.2-1,2.2-2.2,2.2h-34.4c4.7,3.8,7.5,9.6,7.5,15.7c0,4.6-1.6,9.1-4.5,12.7
				c-2.7,3.3-6.4,5.7-10.5,6.8v19.1C403.4,353.4,400.7,356.1,397.4,356.1z"/>
			<path class="st6" d="M445.2,191.6c0.7,0,1.2,0.6,1.2,1.2v100.9c0,0.7-0.6,1.2-1.2,1.2H408c5.7,3.4,9.5,9.5,9.5,16.6v0
				c0,9.2-6.4,16.9-15,18.8v19.8c0,2.8-2.3,5-5,5s-5-2.3-5-5v-19.3h-13.2v18.8c0,2.8-2.3,5-5,5h0c-2.8,0-5-2.3-5-5v-19.4
				c-8.3-2.1-14.5-9.7-14.5-18.7v0c0-7.1,3.8-13.2,9.5-16.6h-30.3c-0.7,0-1.2-0.6-1.2-1.2V192.8c0-0.7,0.6-1.2,1.2-1.2l10.8,10.1h88
				L445.2,191.6 M445.2,189.7h-0.6l-0.5,0.4l-12.1,9.7h-86.7l-10.3-9.6l-0.5-0.5h-0.7c-1.7,0-3.1,1.4-3.1,3.1v100.9
				c0,1.7,1.4,3.1,3.1,3.1h25.1c-1.2,1.3-2.3,2.7-3.2,4.2c-1.9,3.2-2.9,6.9-2.9,10.6c0,9.2,5.9,17.2,14.5,20.1v18
				c0,3.8,3.1,6.8,6.8,6.8c3.8,0,6.8-3.1,6.8-6.8v-17h9.6v17.5c0,3.8,3.1,6.8,6.8,6.8c3.8,0,6.8-3.1,6.8-6.8v-18.4
				c4-1.2,7.7-3.7,10.3-7c3-3.7,4.7-8.4,4.7-13.3c0-3.7-1-7.4-2.9-10.6c-0.9-1.5-2-2.9-3.2-4.2h32c1.7,0,3.1-1.4,3.1-3.1V192.8
				C448.3,191.1,446.9,189.7,445.2,189.7L445.2,189.7z"/>
		</g>
		<g>
			<rect x="404.9" y="227.9" class="st7" width="31.3" height="21.3"/>
		</g>
		<g>
			<rect x="342.6" y="227.9" class="st7" width="31.4" height="21.3"/>
		</g>
	</g>
</g>
</svg>
