<?xml version="1.0" encoding="utf-8"?>
<!-- Generator: Adobe Illustrator 26.5.1, SVG Export Plug-In . SVG Version: 6.00 Build 0)  -->
<svg version="1.1" id="Layer_3" xmlns="http://www.w3.org/2000/svg" xmlns:xlink="http://www.w3.org/1999/xlink" x="0px" y="0px"
	 viewBox="0 0 612 792" style="enable-background:new 0 0 612 792;" xml:space="preserve">
<g>
	<path style="fill:#E0493B;" d="M187.729,760.2061c-4.2476,0-8.4873-1.0586-12.2598-3.0615
		c-6.1782-3.2793-10.7095-8.7686-12.7588-15.457c-2.0498-6.6875-1.3721-13.7734,1.9077-19.9512l38.9326-73.3379
		c-33.4956-13.5518-55.6895-46.1865-55.6895-82.624c0-26.9414,12.4067-52.4619,33.0562-69.2539H59.8384
		c-5.2358,0-9.4951-4.2598-9.4951-9.4951V42.0239c0-5.2358,4.2593-9.4956,9.4951-9.4956h1.5781l47.833,44.707h385.3491
		l55.3877-44.707h1.4131c5.2363,0,9.4961,4.2598,9.4961,9.4956v445.0015c0,5.2354-4.2598,9.4951-9.4961,9.4951H399.8418
		c20.6484,16.792,33.0557,42.3125,33.0557,69.2539c0,32.8271-18.376,63.2324-47.165,78.6416l43.6523,75.6104
		c3.498,6.0576,4.4268,13.1143,2.6162,19.8711c-1.8096,6.7559-6.1436,12.4033-12.2012,15.9004
		c-3.9795,2.2979-8.5,3.5127-13.0723,3.5127c-9.3369,0-18.0352-5.0186-22.6992-13.0977l-51.9717-90.0186
		c-0.2422-0.418-0.4727-0.8467-0.6924-1.2822h-71.9751l-48.5112,91.3818C206.3223,754.875,197.4521,760.2061,187.729,760.2061z"/>
	<path style="fill:#42161A;" d="M551.3998,36.5284c3.035,0,5.4952,2.4603,5.4952,5.4952v445.0016
		c0,3.0349-2.4602,5.4952-5.4952,5.4952h-164.261c24.9951,14.8339,41.7585,42.0802,41.7585,73.2538v0.0001
		c0,33.9979-19.9334,63.331-48.7454,76.9769l45.7693,79.2749c6.1267,10.6118,2.4909,24.181-8.121,30.3077v0.0001
		c-3.4943,2.0175-7.3083,2.9761-11.0726,2.9761c-7.6675,0-15.1258-3.9796-19.235-11.0971L335.52,654.194
		c-0.6161-1.0673-1.1288-2.1652-1.5502-3.2816h-77.0817c-0.2444,0.5707-0.5081,1.1375-0.8045,1.6959l-48.7391,91.8099
		c-3.9858,7.5081-11.669,11.788-19.6157,11.788c-3.5084,0-7.0694-0.8349-10.3841-2.5946h-0.0001
		c-10.8229-5.7455-14.9389-19.177-9.1933-29.9999l41.0682-77.3601c-33.3748-11.5198-57.3581-43.1878-57.3581-80.4772v-0.0001
		c0-31.1736,16.7634-58.4199,41.7585-73.2538H59.8382c-3.0349,0-5.4952-2.4603-5.4952-5.4952V42.0237
		c0-3.0349,2.4603-5.4952,5.4952-5.4952l47.833,44.707h388.3401L551.3998,36.5284 M551.3998,28.5284h-2.8257l-2.1989,1.7748
		l-53.1896,42.9322H110.8278L65.3009,30.6839l-2.3061-2.1554h-3.1566c-7.4413,0-13.4952,6.0539-13.4952,13.4952v445.0016
		c0,7.4413,6.0539,13.4952,13.4952,13.4952h110.7281c-5.4388,5.5338-10.1916,11.7409-14.1122,18.4739
		c-8.2382,14.1476-12.5928,30.3238-12.5928,46.7799c0,36.5809,21.4057,69.4916,54.1255,84.5748l-36.9016,69.5115
		c-3.7808,7.1218-4.5619,15.2897-2.1994,22.999c2.3625,7.7094,7.5858,14.0372,14.7077,17.818
		c4.3487,2.3085,9.2366,3.5287,14.1353,3.5287c11.2065,0,21.4303-6.145,26.6817-16.0368l47.3838-89.257h67.2124l51.5577,89.3004
		c5.3763,9.3122,15.4016,15.0971,26.1632,15.0971c5.2739,0,10.4859-1.3998,15.0727-4.0479
		c14.415-8.3225,19.3717-26.8209,11.0492-41.236l-41.6314-72.1078c12.3962-7.3477,22.9514-17.4857,30.8309-29.6824
		c9.7139-15.0366,14.8484-32.4859,14.8484-50.4615c0-16.4561-4.3546-32.6323-12.5928-46.78
		c-3.9206-6.7329-8.6735-12.94-14.1122-18.4739h141.2075c7.4413,0,13.4952-6.0539,13.4952-13.4952V42.0237
		C564.895,34.5823,558.8411,28.5284,551.3998,28.5284L551.3998,28.5284z"/>
</g>
<g>
	<rect x="373.6513" y="196.8818" style="fill:#42161A;" width="138.17" height="93.78"/>
</g>
<g>
	<rect x="98.8113" y="196.8818" style="fill:#42161A;" width="138.67" height="93.78"/>
</g>
</svg>
