<?xml version="1.0" encoding="utf-8"?>
<!-- Generator: Adobe Illustrator 26.5.1, SVG Export Plug-In . SVG Version: 6.00 Build 0)  -->
<svg version="1.1" xmlns="http://www.w3.org/2000/svg" xmlns:xlink="http://www.w3.org/1999/xlink" x="0px" y="0px"
	 viewBox="0 0 800 600" style="enable-background:new 0 0 800 600;" xml:space="preserve">
<style type="text/css">
	.st0{fill:#F26456;stroke:#000000;stroke-miterlimit:10;}
	.st1{display:none;fill:#42161A;}
	.st2{fill:#FFFFFF;}
	.st3{display:none;fill:#5D7587;}
	.st4{fill:#F26456;}
	.st5{fill:none;stroke:#F26456;stroke-miterlimit:10;}
	.st6{font-family:'Helvetica-Light';}
	.st7{font-size:24px;}
	.st8{letter-spacing:6;}
	.st9{font-size:12px;}
</style>
<g id="Layer_1">
	<g id="Layer_1_00000130638451044523784660000005626889978960032191_">
		<g id="Layer_1_00000049913521537325755970000009502433623485955990_">
			<rect class="st0" width="800" height="600"/>
		</g>
	</g>
	<g id="Layer_2_00000114057444721235536860000009648146591631759549_">
		<g id="Layer_2_00000021094794905797539800000017913426565491983282_">
			<g>
				<g>
					<path class="st1" d="M335.9,215c0.3,0,0.5,0.2,0.5,0.5v40.9c0,0.3-0.2,0.5-0.5,0.5h-15.1c2.3,1.4,3.9,3.9,3.9,6.7l0,0
						c0,3.7-2.6,6.9-6.1,7.6v8c0,1.1-0.9,2-2,2s-2-0.9-2-2v-7.8h-5.4v7.6c0,1.1-0.9,2-2,2l0,0c-1.1,0-2-0.9-2-2v-7.9
						c-3.4-0.9-5.9-3.9-5.9-7.6l0,0c0-2.9,1.5-5.4,3.9-6.7h-12.3c-0.3,0-0.5-0.2-0.5-0.5v-40.9c0-0.3,0.2-0.5,0.5-0.5l4.4,4.1H331
						L335.9,215 M335.9,214.2h-0.2l-0.2,0.2l-4.9,3.9h-35.2l-4.2-3.9l-0.2-0.2h-0.3c-0.7,0-1.3,0.6-1.3,1.3v40.9
						c0,0.7,0.6,1.3,1.3,1.3h10.2c-0.5,0.5-0.9,1.1-1.3,1.7c-0.8,1.3-1.2,2.8-1.2,4.3c0,3.7,2.4,7,5.9,8.2v7.3
						c0,1.5,1.3,2.8,2.8,2.8s2.8-1.3,2.8-2.8v-6.9h3.9v7.1c0,1.5,1.3,2.8,2.8,2.8s2.8-1.3,2.8-2.8v-7.5c1.6-0.5,3.1-1.5,4.2-2.8
						c1.2-1.5,1.9-3.4,1.9-5.4c0-1.5-0.4-3-1.2-4.3c-0.4-0.6-0.8-1.2-1.3-1.7h13c0.7,0,1.3-0.6,1.3-1.3v-40.9
						C337.2,214.8,336.6,214.2,335.9,214.2L335.9,214.2z"/>
				</g>
			</g>
		</g>
		<g id="Layer_2_00000173125273312212035940000016978664084095320716_">
			<g>
				<g>
					<path class="st1" d="M137.7,393.8c0.3,0,0.6,0.3,0.6,0.6v49.8c0,0.3-0.3,0.6-0.6,0.6h-18.4c2.8,1.7,4.7,4.7,4.7,8.2l0,0
						c0,4.5-3.2,8.3-7.4,9.3v9.8c0,1.4-1.1,2.5-2.5,2.5s-2.5-1.1-2.5-2.5v-9.5h-6.5v9.3c0,1.4-1.1,2.5-2.5,2.5l0,0
						c-1.4,0-2.5-1.1-2.5-2.5v-9.6c-4.1-1-7.2-4.8-7.2-9.2l0,0c0-3.5,1.9-6.5,4.7-8.2h-15c-0.3,0-0.6-0.3-0.6-0.6v-49.8
						c0-0.3,0.3-0.6,0.6-0.6l5.3,5h43.4L137.7,393.8 M137.7,392.8h-0.3l-0.2,0.2l-6,4.8H88.4l-5.1-4.7l-0.2-0.2h-0.3
						c-0.8,0-1.5,0.7-1.5,1.5v49.8c0,0.8,0.7,1.5,1.5,1.5h12.4c-0.6,0.6-1.1,1.3-1.6,2.1c-0.9,1.6-1.4,3.4-1.4,5.2
						c0,4.5,2.9,8.5,7.2,9.9v8.9c0,1.9,1.5,3.4,3.4,3.4s3.4-1.5,3.4-3.4v-8.4h4.7v8.6c0,1.9,1.5,3.4,3.4,3.4s3.4-1.5,3.4-3.4v-9
						c2-0.6,3.8-1.8,5.1-3.5c1.5-1.8,2.3-4.1,2.3-6.6c0-1.8-0.5-3.7-1.4-5.2c-0.4-0.7-1-1.4-1.6-2.1h15.8c0.8,0,1.5-0.7,1.5-1.5
						v-49.8C139.2,393.5,138.5,392.8,137.7,392.8L137.7,392.8z"/>
				</g>
			</g>
		</g>
		<g id="Layer_2_00000088828143802558446500000007738404588821836725_">
			<g>
				<g>
					<path class="st1" d="M500.2,212c0.3,0,0.5,0.2,0.5,0.5v40.9c0,0.3-0.2,0.5-0.5,0.5h-15.1c2.3,1.4,3.9,3.9,3.9,6.7l0,0
						c0,3.7-2.6,6.9-6.1,7.6v8c0,1.1-0.9,2-2,2s-2-0.9-2-2v-7.8h-5.4v7.6c0,1.1-0.9,2-2,2l0,0c-1.1,0-2-0.9-2-2v-7.9
						c-3.4-0.9-5.9-3.9-5.9-7.6l0,0c0-2.9,1.5-5.4,3.9-6.7h-12.3c-0.3,0-0.5-0.2-0.5-0.5v-40.9c0-0.3,0.2-0.5,0.5-0.5l4.4,4.1h35.7
						L500.2,212 M500.2,211.2H500l-0.2,0.2l-4.9,3.9h-35.2l-4.2-3.9l-0.2-0.2H455c-0.7,0-1.3,0.6-1.3,1.3v40.9
						c0,0.7,0.6,1.3,1.3,1.3h10.2c-0.5,0.5-0.9,1.1-1.3,1.7c-0.8,1.3-1.2,2.8-1.2,4.3c0,3.7,2.4,7,5.9,8.2v7.3
						c0,1.5,1.3,2.8,2.8,2.8s2.8-1.3,2.8-2.8v-6.9h3.9v7.1c0,1.5,1.3,2.8,2.8,2.8s2.8-1.3,2.8-2.8v-7.5c1.6-0.5,3.1-1.5,4.2-2.8
						c1.2-1.5,1.9-3.4,1.9-5.4c0-1.5-0.4-3-1.2-4.3c-0.4-0.6-0.8-1.2-1.3-1.7h13c0.7,0,1.3-0.6,1.3-1.3v-40.9
						C501.4,211.8,500.8,211.2,500.2,211.2L500.2,211.2z"/>
				</g>
			</g>
		</g>
	</g>
	<g id="Layer_4">
		<g>
			<path class="st2" d="M484.1,354.3c-0.4,0-0.4,0-0.7,0c-0.7-0.4-1.5-1.1-1.1-2.2l19.7-85.3l-40.8-8.2c-0.4,0-0.7-0.4-0.7-0.4
				l-28.9-26.3c-0.4-0.4-0.4-0.7-0.7-1.1l-4.5-23.7l-48.2-7.8c-0.4,0-1.1-0.4-1.5-0.7c-0.4-0.4-0.4-1.1,0-1.5l12.6-37.5l-12.6-16.3
				c-0.4-0.4-0.4-1.1-0.4-1.9l13-33c1.5-6.7,4.5-18.9,10.8-29.7c6.3-11.1,13.7-17.4,22.6-19.7l11.9-3c8.2-1.9,19.7-3,31.9-3
				c7.4,0,14.5,0.4,21.5,1.1c13.7,1.5,26.7,7,37.1,15.6l0,0c12.6,10.8,10.4,28.6,8.5,45.3c-0.4,4.5-1.1,8.9-1.5,13l1.1,31.9
				c0,0.7-0.4,1.1-0.7,1.5l-31.5,27.1V217l33.4,35.2c0.4,0.7,0.7,1.5,0.4,2.2l-49.3,98.7C485.6,353.9,484.8,354.3,484.1,354.3z"/>
			<path class="st3" d="M250.3,63.8c7,0,14.1,0.4,21.1,1.1c13.4,1.5,26,6.7,36.4,15.2c15.2,13,7.8,37.1,6.7,57.1l1.1,31.9
				l-32.3,27.4v30l34.1,36l-49.7,99l20-87.5l-42.7-8.5l-28.9-26.3l-4.5-24.9l-38.9-6.3l-10.8-1.9l13-38.2L162,151l13-33.4
				c3.7-18.2,13.4-43.8,31.5-47.9l11.9-3C226.9,65,238.4,63.8,250.3,63.8 M250.3,60.1c-12.2,0-23.7,1.1-32.3,3l-11.9,3
				c-9.3,2.2-17.1,9.3-23.7,20.4c-2.6,4.8-7.8,14.8-10.8,30l-13,33c-0.4,1.1-0.4,2.6,0.4,3.7l11.9,15.6l-12.6,36.4
				c-0.4,1.1-0.4,2.2,0.4,3.3c0.7,1.1,1.5,1.5,2.6,1.9l10.8,1.9l36,5.9l4.1,22.3c0,0.7,0.7,1.5,1.1,2.2l28.9,26.3
				c0.4,0.4,1.1,0.7,1.9,0.7l38.9,7.4l-19.3,83.5c-0.4,1.9,0.7,3.7,2.6,4.5c0.4,0,0.7,0.4,1.1,0.4c1.5,0,2.6-0.7,3.3-2.2l49.3-98.7
				c0.7-1.5,0.4-3.3-0.7-4.5l-33-34.9v-26.7l30.8-26.3c0.7-0.7,1.5-1.9,1.5-3l-1.1-31.9c0.4-4.1,0.7-8.5,1.1-13
				c1.1-8.5,2.2-17.1,1.1-25.2c-0.7-9.6-4.5-16.7-10.4-21.9l0,0c-11.1-8.9-24.1-14.1-38.2-16C265.1,60.5,257.7,60.1,250.3,60.1
				L250.3,60.1z"/>
		</g>
		<polygon class="st4" points="396.3,106.7 390.6,136.5 395.4,146.2 409.5,129.1 		"/>
		<polygon class="st4" points="449.6,129.1 449.6,146.2 478.8,155.2 500.1,112 		"/>
		<polygon class="st4" points="413.3,143.6 403.2,163.2 410.3,163.2 417.7,166.9 		"/>
		<line class="st5" x1="392.9" y1="185.8" x2="389.1" y2="198.8"/>
		<line class="st5" x1="404.7" y1="188.1" x2="401.8" y2="201.4"/>
		<line class="st5" x1="417.7" y1="192.5" x2="415.5" y2="203.7"/>
		<g>
			<path class="st3" d="M-76.1-157.7c5.2,0,10.4,0.4,15.2,0.7c9.6,1.1,18.5,4.8,26.3,10.8c10.8,9.3,5.6,26.7,4.8,41.2l0.7,23
				l-23.4,20v21.9l24.5,26l-35.6,71.2L-49-6l-30.8-5.9l-21.1-18.9l-3.3-18.2l-27.8-4.5l-7.8-1.1l9.3-27.8l-9.3-12.2l9.3-24.1
				c2.6-13.4,9.6-31.5,23-34.5l8.5-1.9C-92.8-157-84.6-157.7-76.1-157.7 M-76.1-160.7c-8.9,0-17.4,0.7-23.4,2.2l-8.5,1.9
				c-6.7,1.5-12.6,6.7-17.1,14.8c-1.9,3.3-5.6,10.8-7.8,21.5l-9.3,23.7c-0.4,0.7-0.4,1.9,0.4,2.6l8.5,11.1l-8.9,26.3
				c-0.4,0.7,0,1.5,0.4,2.2c0.4,0.7,1.1,1.1,1.9,1.5l7.8,1.1l26,4.1l3,16c0,0.7,0.4,1.1,0.7,1.5l21.1,18.9c0.4,0.4,0.7,0.7,1.5,0.7
				l28.2,5.6l-13.7,60.5c-0.4,1.5,0.4,2.6,1.9,3.3c0.4,0,0.7,0,1.1,0c1.1,0,1.9-0.7,2.6-1.5l35.6-71.2c0.4-1.1,0.4-2.2-0.4-3
				L-48.3-42v-19.3L-26-80.2c0.7-0.4,1.1-1.5,1.1-2.2l-0.7-23c0-3,0.4-5.9,1.1-9.3c0.7-5.9,1.5-12.2,0.7-18.2c-0.7-7-3-12.2-7.4-16
				l0,0c-7.8-6.3-17.4-10.4-27.4-11.5C-65.3-160.3-70.5-160.7-76.1-160.7L-76.1-160.7z"/>
		</g>
	</g>
	<g id="Layer_6">
		<g id="Layer_2_00000005263454296870143740000016269028391184676277_">
			<g>
				<g>
					<path class="st2" d="M490.2,354.7c0,4.7-3.7,8.1-8.1,8.1h-25.3v15.7h24.8c4.7,0,8.1,3.7,8.1,8.1c0,4.7-3.7,8.1-8.1,8.1h-25.8
						c-3.4,11.8-14.2,20.1-26.8,20.1c-8.3,0-16.5-3.9-21.6-10.3v37.8c0,1.7-1.5,2.9-2.9,2.9H265.3c-1.7,0-2.9-1.5-2.9-2.9v-0.5
						l14-15V306.4l-14-17.4v-0.5c0-1.7,1.5-2.9,2.9-2.9h139.2c1.7,0,2.9,1.5,2.9,2.9v47.4c5.2-6.4,13.3-10.3,21.6-10.3
						c6.4,0,12.5,2.2,17.4,6.1c4.7,3.7,7.9,8.8,9.3,14.5h26.3C486.5,346.4,490.2,350.3,490.2,354.7z"/>
					<path class="st1" d="M103,298c0-1,0.7-1.7,1.7-1.7h139.2c1,0,1.7,0.7,1.7,1.7v51.3c4.7-7.9,13-13,22.8-13l0,0
						c12.8,0,23.3,8.8,26,20.6h27.3c3.9,0,6.9,3.2,6.9,6.9c0,3.7-3.2,6.9-6.9,6.9h-26.5v18.2h26c3.9,0,6.9,3.2,6.9,6.9l0,0
						c0,3.9-3.2,6.9-6.9,6.9h-26.8c-2.9,11.5-13.5,20.1-25.8,20.1l0,0c-9.8,0-18.2-5.2-22.8-13v41.7c0,1-0.7,1.7-1.7,1.7H105
						c-1,0-1.7-0.7-1.7-1.7l14-15V314.9L103,298 M100.3,298v0.7l0.5,0.7l13.5,16.7v119.6L101,450l-0.7,0.7v1c0,2.5,2,4.2,4.2,4.2
						h139.2c2.5,0,4.2-2,4.2-4.2v-34.6c1.7,1.7,3.7,3.2,5.9,4.4c4.4,2.7,9.6,3.9,14.7,3.9c12.8,0,23.8-8.1,27.7-20.1H321
						c5.2,0,9.3-4.2,9.3-9.3s-4.2-9.3-9.3-9.3h-23.6v-13.3h24.1c5.2,0,9.3-4.2,9.3-9.3s-4.2-9.3-9.3-9.3h-25.3
						c-1.7-5.4-5.2-10.6-9.6-14.2c-5.2-4.2-11.5-6.4-18.4-6.4c-5.2,0-10.3,1.5-14.7,3.9c-2,1.2-3.9,2.7-5.9,4.4v-44.2
						c0-2.5-2-4.2-4.2-4.2H104.2C102.3,293.8,100.3,295.8,100.3,298L100.3,298z"/>
				</g>
			</g>
			<line class="st5" x1="316.9" y1="421" x2="336.5" y2="388.4"/>
			<line class="st5" x1="337" y1="419.3" x2="318.3" y2="389.9"/>
			<line class="st5" x1="316.6" y1="345.9" x2="336.3" y2="313.5"/>
			<line class="st5" x1="336.8" y1="344.4" x2="318.1" y2="315"/>
		</g>
	</g>
</g>
<g id="Layer_2">
	<text transform="matrix(1 0 0 1 258.3521 506.3265)" class="st2 st6 st7 st8">little guy is dead :(</text>
	<text transform="matrix(1 0 0 1 363.6351 535.0085)" class="st2 st6 st9">press any key to restart</text>
</g>
</svg>
