<?xml version="1.0" encoding="utf-8"?>
<!-- Generator: Adobe Illustrator 26.5.1, SVG Export Plug-In . SVG Version: 6.00 Build 0)  -->
<svg version="1.1" xmlns="http://www.w3.org/2000/svg" xmlns:xlink="http://www.w3.org/1999/xlink" x="0px" y="0px"
	 viewBox="0 0 800 600" style="enable-background:new 0 0 800 600;" xml:space="preserve">
<style type="text/css">
	.st0{fill:#F26456;stroke:#000000;stroke-miterlimit:10;}
	.st1{fill:#FFFFFF;}
	.st2{font-family:'Helvetica-Light';}
	.st3{font-size:24px;}
	.st4{letter-spacing:6;}
	.st5{font-size:12px;}
	.st6{fill:none;stroke:#FFFFFF;stroke-miterlimit:10;}
	.st7{fill:#F26456;stroke:#FFFFFF;stroke-miterlimit:10;}
	.st8{display:none;fill:#42161A;}
	.st9{fill:#F26456;}
	.st10{display:none;fill:#5D7587;}
	.st11{fill:none;stroke:#F26456;stroke-miterlimit:10;}
	.st12{font-size:18px;}
	.st13{enable-background:new    ;}
	.st14{font-size:5px;}
	.st15{fill:none;stroke:#FFFFFF;stroke-width:3;stroke-miterlimit:10;}
	.st16{fill:none;stroke:#FFFFFF;stroke-width:0.5;stroke-miterlimit:10;}
</style>
<g id="Layer_1">
	<g id="Layer_1_00000049913521537325755970000009502433623485955990_">
		<rect class="st0" width="800" height="600"/>
		<text transform="matrix(1 0 0 1 327.1 30.471)" class="st1 st2 st3 st4">little guy</text>
		<text transform="matrix(1 0 0 1 378.1576 48.1519)" class="st1 st2 st5">tutorial</text>
	</g>
</g>
<g id="Layer_2">
	<g id="Layer_8">
		<rect x="68.8" y="344.4" class="st6" width="221.3" height="187.1"/>
		<rect x="283.4" y="105.3" class="st6" width="232.3" height="217.5"/>
		<rect x="518.9" y="344.4" class="st6" width="247.8" height="187.1"/>
		<rect x="356.8" y="94.7" class="st7" width="82.8" height="21.3"/>
		<rect x="133.3" y="333.7" class="st7" width="82.8" height="21.3"/>
		<rect x="608.7" y="331.9" class="st7" width="82.8" height="21.3"/>
	</g>
	<g id="Layer_2_00000021094794905797539800000017913426565491983282_">
		<g>
			<g>
				<path class="st1" d="M316.5,281.8c-1.3,0-2.4-1.1-2.4-2.4v-7.5h-4.6v7.3c0,1.3-1.1,2.4-2.4,2.4c-1.3,0-2.4-1.1-2.4-2.4v-7.6
					c-3.5-1-5.9-4.2-5.9-7.9c0-2.5,1.1-4.8,3-6.4h-11.1c-0.5,0-0.9-0.4-0.9-0.9v-40.9c0-0.5,0.4-0.9,0.9-0.9h0.2l4.4,4.1h35.4
					l5.1-4.1h0.1c0.5,0,0.9,0.4,0.9,0.9v40.9c0,0.5-0.4,0.9-0.9,0.9h-14c1.9,1.5,3,3.9,3,6.4c0,1.9-0.6,3.7-1.8,5.2
					c-1.1,1.3-2.6,2.3-4.3,2.8v7.8C318.9,280.7,317.8,281.8,316.5,281.8z"/>
				<path class="st8" d="M335.9,215c0.3,0,0.5,0.2,0.5,0.5v40.9c0,0.3-0.2,0.5-0.5,0.5h-15.1c2.3,1.4,3.9,3.9,3.9,6.7l0,0
					c0,3.7-2.6,6.9-6.1,7.6v8c0,1.1-0.9,2-2,2s-2-0.9-2-2v-7.8h-5.4v7.6c0,1.1-0.9,2-2,2l0,0c-1.1,0-2-0.9-2-2v-7.9
					c-3.4-0.9-5.9-3.9-5.9-7.6l0,0c0-2.9,1.5-5.4,3.9-6.7h-12.3c-0.3,0-0.5-0.2-0.5-0.5v-40.9c0-0.3,0.2-0.5,0.5-0.5l4.4,4.1h35.7
					L335.9,215 M335.9,214.2h-0.2l-0.2,0.2l-4.9,3.9h-35.2l-4.2-3.9l-0.2-0.2h-0.3c-0.7,0-1.3,0.6-1.3,1.3v40.9
					c0,0.7,0.6,1.3,1.3,1.3h10.2c-0.5,0.5-0.9,1.1-1.3,1.7c-0.8,1.3-1.2,2.8-1.2,4.3c0,3.7,2.4,7,5.9,8.2v7.3c0,1.5,1.3,2.8,2.8,2.8
					c1.5,0,2.8-1.3,2.8-2.8v-6.9h3.9v7.1c0,1.5,1.3,2.8,2.8,2.8c1.5,0,2.8-1.3,2.8-2.8v-7.5c1.6-0.5,3.1-1.5,4.2-2.8
					c1.2-1.5,1.9-3.4,1.9-5.4c0-1.5-0.4-3-1.2-4.3c-0.4-0.6-0.8-1.2-1.3-1.7h13c0.7,0,1.3-0.6,1.3-1.3v-40.9
					C337.2,214.8,336.6,214.2,335.9,214.2L335.9,214.2z"/>
			</g>
			<g>
				<rect x="319.6" y="229.7" class="st9" width="12.7" height="8.6"/>
			</g>
			<g>
				<rect x="294.3" y="229.7" class="st9" width="12.7" height="8.6"/>
			</g>
		</g>
	</g>
	<g id="Layer_2_00000173125273312212035940000016978664084095320716_">
		<g>
			<g>
				<path class="st1" d="M114.1,475c-1.6,0-2.9-1.3-2.9-2.9V463h-5.6v8.8c0,1.6-1.3,2.9-2.9,2.9c-1.6,0-2.9-1.3-2.9-2.9v-9.2
					c-4.2-1.2-7.2-5.1-7.2-9.6c0-3,1.4-5.9,3.7-7.8H82.8c-0.6,0-1.1-0.5-1.1-1.1v-49.8c0-0.6,0.5-1.1,1.1-1.1H83l5.3,5h43.1l6.2-5
					h0.1c0.6,0,1.1,0.5,1.1,1.1v49.8c0,0.6-0.5,1.1-1.1,1.1h-17c2.3,1.9,3.7,4.7,3.7,7.8c0,2.3-0.8,4.5-2.2,6.3
					c-1.3,1.6-3.2,2.8-5.2,3.4v9.4C117,473.6,115.7,475,114.1,475z"/>
				<path class="st8" d="M137.7,393.8c0.3,0,0.6,0.3,0.6,0.6v49.8c0,0.3-0.3,0.6-0.6,0.6h-18.4c2.8,1.7,4.7,4.7,4.7,8.2l0,0
					c0,4.5-3.2,8.3-7.4,9.3v9.8c0,1.4-1.1,2.5-2.5,2.5s-2.5-1.1-2.5-2.5v-9.5h-6.5v9.3c0,1.4-1.1,2.5-2.5,2.5l0,0
					c-1.4,0-2.5-1.1-2.5-2.5v-9.6c-4.1-1-7.2-4.8-7.2-9.2l0,0c0-3.5,1.9-6.5,4.7-8.2h-15c-0.3,0-0.6-0.3-0.6-0.6v-49.8
					c0-0.3,0.3-0.6,0.6-0.6l5.3,5h43.4L137.7,393.8 M137.7,392.8h-0.3l-0.2,0.2l-6,4.8H88.4l-5.1-4.7l-0.2-0.2h-0.3
					c-0.8,0-1.5,0.7-1.5,1.5v49.8c0,0.8,0.7,1.5,1.5,1.5h12.4c-0.6,0.6-1.1,1.3-1.6,2.1c-0.9,1.6-1.4,3.4-1.4,5.2
					c0,4.5,2.9,8.5,7.2,9.9v8.9c0,1.9,1.5,3.4,3.4,3.4c1.9,0,3.4-1.5,3.4-3.4v-8.4h4.7v8.6c0,1.9,1.5,3.4,3.4,3.4
					c1.9,0,3.4-1.5,3.4-3.4V463c2-0.6,3.8-1.8,5.1-3.5c1.5-1.8,2.3-4.1,2.3-6.6c0-1.8-0.5-3.7-1.4-5.2c-0.4-0.7-1-1.4-1.6-2.1h15.8
					c0.8,0,1.5-0.7,1.5-1.5v-49.8C139.2,393.5,138.5,392.8,137.7,392.8L137.7,392.8z"/>
			</g>
			<g>
				<rect x="117.8" y="411.7" class="st9" width="15.5" height="10.5"/>
			</g>
			<g>
				<rect x="87.1" y="411.7" class="st9" width="15.5" height="10.5"/>
			</g>
		</g>
	</g>
	<g id="Layer_2_00000088828143802558446500000007738404588821836725_">
		<g>
			<g>
				<path class="st1" d="M480.8,278.7c-1.3,0-2.4-1.1-2.4-2.4v-7.5h-4.6v7.3c0,1.3-1.1,2.4-2.4,2.4c-1.3,0-2.4-1.1-2.4-2.4v-7.6
					c-3.5-1-5.9-4.2-5.9-7.9c0-2.5,1.1-4.8,3-6.4H455c-0.5,0-0.9-0.4-0.9-0.9v-40.9c0-0.5,0.4-0.9,0.9-0.9h0.2l4.4,4.1H495l5.1-4.1
					h0.1c0.5,0,0.9,0.4,0.9,0.9v40.9c0,0.5-0.4,0.9-0.9,0.9h-14c1.9,1.5,3,3.9,3,6.4c0,1.9-0.6,3.7-1.8,5.2
					c-1.1,1.3-2.6,2.3-4.3,2.8v7.8C483.2,277.7,482.1,278.7,480.8,278.7z"/>
				<path class="st8" d="M500.2,212c0.3,0,0.5,0.2,0.5,0.5v40.9c0,0.3-0.2,0.5-0.5,0.5h-15.1c2.3,1.4,3.9,3.9,3.9,6.7l0,0
					c0,3.7-2.6,6.9-6.1,7.6v8c0,1.1-0.9,2-2,2s-2-0.9-2-2v-7.8h-5.4v7.6c0,1.1-0.9,2-2,2l0,0c-1.1,0-2-0.9-2-2v-7.9
					c-3.4-0.9-5.9-3.9-5.9-7.6l0,0c0-2.9,1.5-5.4,3.9-6.7h-12.3c-0.3,0-0.5-0.2-0.5-0.5v-40.9c0-0.3,0.2-0.5,0.5-0.5l4.4,4.1h35.7
					L500.2,212 M500.2,211.2h-0.2l-0.2,0.2l-4.9,3.9h-35.2l-4.2-3.9l-0.2-0.2H455c-0.7,0-1.3,0.6-1.3,1.3v40.9
					c0,0.7,0.6,1.3,1.3,1.3h10.2c-0.5,0.5-0.9,1.1-1.3,1.7c-0.8,1.3-1.2,2.8-1.2,4.3c0,3.7,2.4,7,5.9,8.2v7.3c0,1.5,1.3,2.8,2.8,2.8
					c1.5,0,2.8-1.3,2.8-2.8v-6.9h3.9v7.1c0,1.5,1.3,2.8,2.8,2.8c1.5,0,2.8-1.3,2.8-2.8v-7.5c1.6-0.5,3.1-1.5,4.2-2.8
					c1.2-1.5,1.9-3.4,1.9-5.4c0-1.5-0.4-3-1.2-4.3c-0.4-0.6-0.8-1.2-1.3-1.7h13c0.7,0,1.3-0.6,1.3-1.3v-40.9
					C501.4,211.8,500.8,211.2,500.2,211.2L500.2,211.2z"/>
			</g>
			<g>
				<rect x="483.8" y="226.7" class="st9" width="12.7" height="8.6"/>
			</g>
			<g>
				<rect x="458.5" y="226.7" class="st9" width="12.7" height="8.6"/>
			</g>
		</g>
	</g>
</g>
<g id="Layer_3">
	<g>
		<path class="st1" d="M399.3,204.8c-0.4,0-0.8-0.1-1.2-0.3h-8.2c-0.4,0.2-0.8,0.3-1.2,0.3h-9.3c-1.3,0-2.4-1.1-2.4-2.4
			c0-1.3,1.1-2.4,2.4-2.4h2.4c-0.6-1.1-0.9-2.4-0.9-3.6c0-2.4,1.1-4.7,3-6.2H373c-0.5,0-0.9-0.4-0.9-0.9v-40c0-0.5,0.4-0.9,0.9-0.9
			h0.1l4.3,4h34.6l5-4h0.1c0.5,0,0.9,0.4,0.9,0.9v40c0,0.5-0.4,0.9-0.9,0.9h-13.6c1.9,1.5,3,3.8,3,6.2c0,1.3-0.3,2.5-0.9,3.6h2.9
			c1.3,0,2.4,1.1,2.4,2.4c0,1.3-1.1,2.4-2.4,2.4H399.3z"/>
		<path class="st1" d="M417.2,148.9c0.3,0,0.5,0.2,0.5,0.5v40c0,0.3-0.2,0.5-0.5,0.5h-14.8c2.2,1.3,3.8,3.8,3.8,6.6v0
			c0,1.5-0.4,2.8-1.1,4h3.6c1.1,0,2,0.9,2,2s-0.9,2-2,2h-9.3c-0.4,0-0.8-0.1-1.1-0.3h-8.4c-0.3,0.2-0.7,0.3-1.1,0.3h-9.3
			c-1.1,0-2-0.9-2-2c0-1.1,0.9-2,2-2h3c-0.7-1.2-1.1-2.5-1.1-4v0c0-2.8,1.5-5.2,3.8-6.6h-12c-0.3,0-0.5-0.2-0.5-0.5v-40
			c0-0.3,0.2-0.5,0.5-0.5l4.3,4h34.9L417.2,148.9 M417.2,148.2H417l-0.2,0.2l-4.8,3.9h-34.4l-4.1-3.8l-0.2-0.2H373
			c-0.7,0-1.2,0.5-1.2,1.2v40c0,0.7,0.5,1.2,1.2,1.2h10c-0.5,0.5-0.9,1.1-1.3,1.7c-0.7,1.3-1.1,2.7-1.1,4.2c0,1.1,0.2,2.2,0.7,3.3
			h-1.8c-1.5,0-2.7,1.2-2.7,2.7s1.2,2.7,2.7,2.7h9.3c0.4,0,0.9-0.1,1.3-0.3h8c0.4,0.2,0.8,0.3,1.3,0.3h9.3c1.5,0,2.7-1.2,2.7-2.7
			c0-1.5-1.2-2.7-2.7-2.7h-2.4c0.4-1,0.7-2.1,0.7-3.3c0-1.5-0.4-2.9-1.1-4.2c-0.4-0.6-0.8-1.2-1.3-1.7h12.7c0.7,0,1.2-0.5,1.2-1.2
			v-40C418.4,148.7,417.9,148.2,417.2,148.2L417.2,148.2z"/>
	</g>
	<g>
		<rect x="401.2" y="163.3" class="st9" width="12.4" height="4.2"/>
	</g>
	<g>
		<rect x="376.5" y="163.3" class="st9" width="12.5" height="4.2"/>
	</g>
</g>
<g id="Layer_4">
	<g>
		<path class="st1" d="M258.2,474.5c-0.1,0-0.1,0-0.2,0c-0.2-0.1-0.3-0.3-0.3-0.5l4.7-20.2l-9.7-1.9c-0.1,0-0.2-0.1-0.2-0.1
			l-6.9-6.3c-0.1-0.1-0.1-0.2-0.1-0.3l-1-5.6l-11.4-1.9c-0.1,0-0.2-0.1-0.3-0.2s-0.1-0.3,0-0.4l3-8.8l-3-3.9
			c-0.1-0.1-0.1-0.3-0.1-0.4l3.1-7.8c0.3-1.5,1.1-4.5,2.5-7c1.5-2.6,3.3-4.2,5.3-4.7l2.8-0.7c2-0.5,4.7-0.7,7.6-0.7
			c1.7,0,3.4,0.1,5.1,0.3c3.2,0.4,6.3,1.6,8.8,3.7c0,0,0,0,0,0c3,2.6,2.5,6.7,2,10.8c-0.1,1.1-0.3,2.1-0.3,3.1l0.2,7.5
			c0,0.1-0.1,0.3-0.2,0.4l-7.5,6.4v6.7l7.9,8.4c0.1,0.1,0.2,0.3,0.1,0.5l-11.6,23.4C258.5,474.4,258.3,474.5,258.2,474.5z"/>
		<path class="st10" d="M254,403.6c1.7,0,3.4,0.1,5,0.3c3.1,0.4,6.1,1.6,8.6,3.6c3.6,3.1,1.8,8.8,1.5,13.5l0.2,7.6l-7.6,6.5v7.1
			l8.1,8.5l-11.6,23.4l4.8-20.7l-10.1-2l-6.9-6.3l-1.1-5.9l-9.2-1.5l-2.5-0.4l3.1-9.1l-3.1-4.1l3.1-7.9c0.9-4.3,3.2-10.3,7.5-11.4
			l2.8-0.7C248.5,403.8,251.2,403.6,254,403.6 M254,402.7c-2.9,0-5.7,0.3-7.7,0.7l-2.8,0.7c-2.2,0.5-4.1,2.2-5.6,4.9
			c-0.6,1.1-1.8,3.5-2.6,7.1l-3.1,7.8c-0.1,0.3-0.1,0.6,0.1,0.9l2.8,3.7l-2.9,8.6c-0.1,0.3-0.1,0.5,0.1,0.8c0.1,0.2,0.4,0.4,0.6,0.4
			l2.5,0.4l8.6,1.4l1,5.3c0,0.2,0.1,0.4,0.3,0.5l6.9,6.3c0.1,0.1,0.3,0.2,0.4,0.2l9.2,1.8l-4.6,19.8c-0.1,0.4,0.1,0.9,0.6,1.1
			c0.1,0,0.2,0.1,0.3,0.1c0.3,0,0.7-0.2,0.8-0.5l11.6-23.4c0.2-0.3,0.1-0.8-0.2-1l-7.8-8.3v-6.4l7.3-6.3c0.2-0.2,0.3-0.4,0.3-0.7
			l-0.2-7.5c0.1-1,0.2-2,0.3-3c0.2-2,0.5-4,0.3-5.9c-0.2-2.3-1-4-2.5-5.2c0,0,0,0,0,0c-2.6-2.1-5.7-3.4-9.1-3.8
			C257.5,402.8,255.7,402.7,254,402.7L254,402.7z"/>
	</g>
	<polygon class="st9" points="239.1,417.2 236,423 237.2,425.2 240.5,421.2 	"/>
	<polygon class="st9" points="254.1,416.6 250,425.2 252.8,428.5 260.2,426 	"/>
	<polygon class="st9" points="241.3,424.6 239,429.3 240.7,429.3 242.4,430.2 	"/>
	<line class="st11" x1="236.5" y1="434.7" x2="235.6" y2="437.7"/>
	<line class="st11" x1="239.3" y1="435.2" x2="238.6" y2="438.4"/>
	<line class="st11" x1="242.4" y1="436.2" x2="241.8" y2="438.8"/>
	<g>
		<path class="st1" d="M681.3,466.5c-0.1,0-0.1,0-0.2,0c-0.2-0.1-0.4-0.3-0.3-0.6l5.3-23l-11-2.2c-0.1,0-0.2-0.1-0.2-0.1l-7.8-7.1
			c-0.1-0.1-0.1-0.2-0.2-0.3l-1.2-6.4l-13-2.1c-0.1,0-0.3-0.1-0.4-0.2s-0.1-0.3,0-0.4l3.4-10.1l-3.4-4.4c-0.1-0.1-0.1-0.3-0.1-0.5
			l3.5-8.9c0.4-1.8,1.2-5.1,2.9-8c1.7-3,3.7-4.7,6.1-5.3l3.2-0.8c2.2-0.5,5.3-0.8,8.6-0.8c2,0,3.9,0.1,5.8,0.3
			c3.7,0.4,7.2,1.9,10,4.2c0,0,0,0,0,0c3.4,2.9,2.8,7.7,2.3,12.2c-0.1,1.2-0.3,2.4-0.4,3.5l0.3,8.6c0,0.2-0.1,0.3-0.2,0.4l-8.5,7.3
			v7.7l9,9.5c0.1,0.2,0.2,0.4,0.1,0.6l-13.3,26.6C681.7,466.4,681.5,466.5,681.3,466.5z"/>
		<path class="st10" d="M676.6,385.7c1.9,0,3.8,0.1,5.7,0.3c3.6,0.4,7,1.8,9.8,4.1c4.1,3.5,2.1,10,1.8,15.4l0.3,8.6l-8.7,7.4v8.1
			l9.2,9.7L681.3,466l5.4-23.6l-11.5-2.3l-7.8-7.1l-1.2-6.7l-10.5-1.7l-2.9-0.5l3.5-10.3l-3.5-4.6l3.5-9c1-4.9,3.6-11.8,8.5-12.9
			l3.2-0.8C670.3,386,673.4,385.7,676.6,385.7 M676.6,384.7c-3.3,0-6.4,0.3-8.7,0.8l-3.2,0.8c-2.5,0.6-4.6,2.5-6.4,5.5
			c-0.7,1.3-2.1,4-2.9,8.1l-3.5,8.9c-0.1,0.3-0.1,0.7,0.1,1l3.2,4.2l-3.4,9.8c-0.1,0.3-0.1,0.6,0.1,0.9c0.2,0.3,0.4,0.4,0.7,0.5
			l2.9,0.5l9.7,1.6l1.1,6c0,0.2,0.2,0.4,0.3,0.6l7.8,7.1c0.1,0.1,0.3,0.2,0.5,0.2l10.5,2l-5.2,22.5c-0.1,0.5,0.2,1,0.7,1.2
			c0.1,0,0.2,0.1,0.3,0.1c0.4,0,0.7-0.2,0.9-0.6l13.3-26.6c0.2-0.4,0.1-0.9-0.2-1.2l-8.9-9.4V422l8.3-7.1c0.2-0.2,0.4-0.5,0.4-0.8
			l-0.3-8.6c0.1-1.1,0.2-2.3,0.3-3.5c0.3-2.3,0.6-4.6,0.3-6.8c-0.2-2.6-1.2-4.5-2.8-5.9c0,0,0,0,0,0c-3-2.4-6.5-3.8-10.3-4.3
			C680.6,384.8,678.6,384.7,676.6,384.7L676.6,384.7z"/>
	</g>
	<polygon class="st9" points="659.6,401.2 656.1,407.8 657.4,410.4 661.2,405.8 	"/>
	<polygon class="st9" points="676.7,400.5 672,410.4 675.2,414.1 683.7,411.2 	"/>
	<polygon class="st9" points="662.2,409.7 659.5,415 661.4,415 663.4,416 	"/>
	<line class="st11" x1="656.7" y1="421.1" x2="655.7" y2="424.6"/>
	<line class="st11" x1="659.9" y1="421.7" x2="659.1" y2="425.3"/>
	<line class="st11" x1="663.4" y1="422.9" x2="662.8" y2="425.9"/>
	<g>
		<path class="st1" d="M400.6,280.9c0,0-0.1,0-0.1,0c-0.2-0.1-0.3-0.3-0.2-0.4l3.8-16.6l-7.9-1.6c-0.1,0-0.1,0-0.2-0.1l-5.7-5.1
			c-0.1-0.1-0.1-0.1-0.1-0.2l-0.8-4.6l-9.4-1.5c-0.1,0-0.2-0.1-0.3-0.2c-0.1-0.1-0.1-0.2,0-0.3l2.5-7.3l-2.4-3.2
			c-0.1-0.1-0.1-0.2-0.1-0.4l2.5-6.4c0.3-1.3,0.9-3.7,2.1-5.8c1.2-2.1,2.7-3.4,4.4-3.8l2.3-0.5c1.6-0.4,3.8-0.6,6.2-0.6
			c1.4,0,2.8,0.1,4.2,0.2c2.7,0.3,5.2,1.3,7.3,3c0,0,0,0,0,0c2.5,2.1,2,5.5,1.6,8.8c-0.1,0.9-0.2,1.7-0.3,2.5l0.2,6.2
			c0,0.1,0,0.2-0.1,0.3l-6.1,5.3v5.5l6.5,6.9c0.1,0.1,0.1,0.3,0.1,0.4l-9.6,19.2C400.9,280.9,400.8,280.9,400.6,280.9z"/>
		<path class="st10" d="M397.2,222.7c1.4,0,2.8,0.1,4.1,0.2c2.6,0.3,5,1.3,7.1,2.9c2.9,2.5,1.5,7.2,1.3,11.1l0.2,6.2l-6.3,5.4v5.9
			l6.6,7l-9.6,19.2l3.9-17l-8.3-1.6l-5.7-5.1l-0.9-4.9l-7.5-1.2l-2.1-0.3l2.5-7.5l-2.5-3.3l2.5-6.5c0.7-3.6,2.6-8.5,6.2-9.3l2.3-0.5
			C392.7,222.9,394.9,222.7,397.2,222.7 M397.2,221.9c-2.4,0-4.7,0.2-6.3,0.6l-2.3,0.5c-1.8,0.4-3.4,1.8-4.6,4
			c-0.5,0.9-1.5,2.9-2.1,5.8l-2.5,6.4c-0.1,0.2-0.1,0.5,0.1,0.7l2.3,3l-2.4,7.1c-0.1,0.2,0,0.4,0.1,0.6c0.1,0.2,0.3,0.3,0.5,0.4
			l2.1,0.3l7,1.1l0.8,4.3c0,0.2,0.1,0.3,0.2,0.4l5.7,5.1c0.1,0.1,0.2,0.2,0.4,0.2l7.6,1.5l-3.7,16.3c-0.1,0.4,0.1,0.7,0.5,0.9
			c0.1,0,0.2,0,0.3,0c0.3,0,0.5-0.2,0.7-0.4l9.6-19.2c0.1-0.3,0.1-0.6-0.1-0.8l-6.4-6.8v-5.2l6-5.1c0.2-0.1,0.3-0.4,0.3-0.6
			l-0.2-6.2c0-0.8,0.1-1.6,0.3-2.5c0.2-1.6,0.4-3.3,0.2-4.9c-0.2-1.9-0.8-3.3-2-4.3c0,0,0,0,0,0c-2.1-1.7-4.7-2.8-7.4-3.1
			C400.1,222,398.7,221.9,397.2,221.9L397.2,221.9z"/>
	</g>
	<polygon class="st9" points="385,233.8 382.4,238.6 383.4,240.5 386.1,237.1 	"/>
	<polygon class="st9" points="397.3,233.4 393.9,240.5 396.2,243.1 402.3,241.1 	"/>
	<polygon class="st9" points="386.8,239.9 384.9,243.8 386.3,243.8 387.7,244.5 	"/>
	<line class="st11" x1="382.9" y1="248.2" x2="382.1" y2="250.7"/>
	<line class="st11" x1="385.2" y1="248.6" x2="384.6" y2="251.2"/>
	<line class="st11" x1="387.7" y1="249.5" x2="387.2" y2="251.6"/>
</g>
<g id="Layer_5">
	<g>
		<path class="st1" d="M206.3,443.9c-0.6,0-1.1-0.1-1.7-0.2c-0.7-0.1-1.3-0.2-1.8-0.3c-1.2-0.2-1.9-0.4-3.7-1
			c-0.9-0.3-1.5-0.6-2.1-0.8c-1.2-0.5-2.1-0.9-4-1c-0.2,0-0.4,0-0.5,0c-2.1,0-2.6,0.5-3.4,1.5c0,0,0,0-0.1,0.1l0.7-1.6
			c0.8-2,2.1-3.7,3.6-5.2l1.9-1.7c0,0,0,0,0.1-0.1l0.4-0.4c0.4-0.4,0.8-0.9,0.9-1.5c0-0.1,0-0.2,0-0.3c-0.1-0.4-0.4-0.6-0.8-0.6l0,0
			c0,0-0.6,0-0.8,0.1l-0.2,0.1c0.1-0.1,0.1-0.2,0.2-0.3c0.3-0.4,0.6-0.9,0.7-1.1c1-1,1.4-1.1,1.6-1.1c0.1,0,0.1,0,0.2-0.1
			c0,0,0,0,0,0c0.1,0,0.5-0.1,0.8-0.2l0.3-0.1c1.2-0.4,2.4-0.9,3.7-1l3.9-0.4c0,0,0,0,0,0l0,0c0.6-0.1,1.1-0.2,1.7-0.2
			c0.7,0,1.4,0.1,2.1,0.3c4.3,1.2,6.8,5.7,5.7,10.1c-0.6,2.2-2,4.1-4,5.1l-0.1,0l0,0c0,0,0,0,0,0
			C210.1,443.3,208.2,443.9,206.3,443.9C206.3,443.9,206.3,443.9,206.3,443.9z"/>
		<path class="st1" d="M207.9,426.7c0.7,0,1.4,0.1,2,0.3c4.2,1.1,6.7,5.5,5.5,9.8c-0.3,1.1-0.8,2.1-1.5,3c-0.7,0.8-1.5,1.5-2.4,2
			l-0.1,0.1l0,0.1c-1.4,1.2-3.2,1.8-5,1.8c-0.5,0-1.1-0.1-1.6-0.2c-0.7-0.2-1.3-0.3-1.8-0.3c-1.2-0.2-1.9-0.3-3.7-0.9
			c-0.9-0.3-1.5-0.6-2.1-0.8c-1.2-0.5-2.2-0.9-4.1-1c-0.2,0-0.4,0-0.6,0c-1.5,0-2.2,0.2-2.8,0.8l0.2-0.6c0.8-1.9,2-3.7,3.6-5.1
			l1.9-1.7c0,0,0.1,0,0.1-0.1l0.4-0.4c0.5-0.4,0.8-1,1-1.6c0-0.1,0.1-0.3,0-0.4c-0.1-0.5-0.5-0.8-1-0.8l0,0c-0.1,0-0.3,0-0.5,0
			c0.2-0.4,0.4-0.7,0.6-0.9c1-0.9,1.3-1,1.5-1.1c0.1,0,0.1,0,0.2-0.1c0,0,0,0,0,0c0.1,0,0.5-0.1,0.8-0.3c0.1,0,0.2-0.1,0.3-0.1
			c1.2-0.5,2.4-0.9,3.6-1l3.9-0.4l0,0l0,0c0,0,0,0,0,0l0,0l0,0C206.7,426.8,207.3,426.7,207.9,426.7 M207.9,426.3
			c-0.6,0-1.2,0.1-1.7,0.2c0,0,0,0,0,0l-3.9,0.4c-1.4,0.1-2.7,0.6-4,1.1c-0.3,0.1-0.8,0.3-0.8,0.3c-0.3,0.1-0.5,0-1.8,1.3
			c-0.3,0.3-0.8,1.2-1.2,1.8c0,0.1,0,0.2,0.1,0.2c0,0,0,0,0,0l0.6-0.3c0.1,0,0.4-0.1,0.7-0.1c0,0,0,0,0,0c0.3,0,0.5,0.2,0.6,0.5
			c0,0,0,0.1,0,0.2c-0.1,0.5-0.4,1-0.8,1.4l-0.5,0.4c0,0,0,0,0,0.1l-1.9,1.7c-1.6,1.5-2.8,3.2-3.7,5.2l-0.9,2.1c0,0.1,0,0.2,0.1,0.2
			c0,0,0.1,0,0.1,0c1.1-1.3,1.3-1.9,3.6-1.9c0.2,0,0.3,0,0.5,0c2.8,0.1,3.4,0.9,6.1,1.8c2.5,0.8,3,0.8,5.5,1.3
			c0.6,0.1,1.1,0.2,1.7,0.2c1.9,0,3.8-0.7,5.3-1.9v0c0,0,0,0,0.1-0.1c2-1.1,3.5-2.9,4.1-5.3c1.2-4.5-1.4-9.1-5.8-10.3
			C209.3,426.4,208.6,426.3,207.9,426.3L207.9,426.3z"/>
	</g>
	<ellipse transform="matrix(0.9749 -0.2227 0.2227 0.9749 -91.6753 57.0287)" class="st1" cx="207" cy="435" rx="8.4" ry="6.6"/>
	<ellipse transform="matrix(0.9904 -0.138 0.138 0.9904 -57.9584 32.894)" class="st1" cx="208.2" cy="434.4" rx="5.9" ry="5.1"/>
</g>
<g id="Layer_6">
	<g id="Layer_2_00000005263454296870143740000016269028391184676277_">
		<g>
			<g>
				<path class="st1" d="M629,470.9c-1.9,0-3.3-1.5-3.3-3.3v-10.3h-6.4v10.1c0,1.9-1.5,3.3-3.3,3.3c-1.9,0-3.3-1.5-3.3-3.3v-10.5
					c-4.8-1.4-8.2-5.8-8.2-10.9c0-3.4,1.6-6.7,4.2-8.8h-15.4c-0.7,0-1.2-0.6-1.2-1.2v-56.7c0-0.7,0.6-1.2,1.2-1.2h0.2l6.1,5.7h49.1
					l7.1-5.7h0.2c0.7,0,1.2,0.6,1.2,1.2v56.7c0,0.7-0.6,1.2-1.2,1.2h-19.3c2.6,2.1,4.2,5.4,4.2,8.8c0,2.6-0.9,5.1-2.5,7.1
					c-1.5,1.9-3.6,3.2-5.9,3.8v10.7C632.4,469.4,630.8,470.9,629,470.9z"/>
				<path class="st8" d="M655.9,378.4c0.4,0,0.7,0.3,0.7,0.7v56.7c0,0.4-0.3,0.7-0.7,0.7H635c3.2,1.9,5.3,5.3,5.3,9.3l0,0
					c0,5.2-3.6,9.5-8.4,10.6v11.1c0,1.6-1.3,2.8-2.8,2.8c-1.5,0-2.8-1.3-2.8-2.8v-10.8h-7.4v10.6c0,1.6-1.3,2.8-2.8,2.8l0,0
					c-1.6,0-2.8-1.3-2.8-2.8v-10.9c-4.7-1.2-8.2-5.5-8.2-10.5l0,0c0-4,2.1-7.4,5.3-9.3h-17c-0.4,0-0.7-0.3-0.7-0.7v-56.7
					c0-0.4,0.3-0.7,0.7-0.7l6.1,5.7h49.5L655.9,378.4 M655.9,377.3h-0.3l-0.3,0.2l-6.8,5.5h-48.7l-5.8-5.4l-0.3-0.3h-0.4
					c-1,0-1.7,0.8-1.7,1.7v56.7c0,1,0.8,1.7,1.7,1.7h14.1c-0.7,0.7-1.3,1.5-1.8,2.4c-1.1,1.8-1.6,3.9-1.6,6c0,5.2,3.3,9.7,8.2,11.3
					v10.1c0,2.1,1.7,3.8,3.8,3.8c2.1,0,3.8-1.7,3.8-3.8v-9.6h5.4v9.8c0,2.1,1.7,3.8,3.8,3.8c2.1,0,3.8-1.7,3.8-3.8v-10.3
					c2.2-0.7,4.3-2.1,5.8-3.9c1.7-2.1,2.6-4.7,2.6-7.5c0-2.1-0.6-4.2-1.6-6c-0.5-0.8-1.1-1.6-1.8-2.4h18c1,0,1.7-0.8,1.7-1.7v-56.7
					C657.6,378.1,656.8,377.3,655.9,377.3L655.9,377.3z"/>
			</g>
		</g>
		<line class="st11" x1="602" y1="400.3" x2="615.3" y2="408.3"/>
		<line class="st11" x1="602.7" y1="408.5" x2="614.7" y2="400.9"/>
		<line class="st11" x1="632.6" y1="400.2" x2="645.8" y2="408.2"/>
		<line class="st11" x1="633.2" y1="408.4" x2="645.2" y2="400.8"/>
	</g>
</g>
<g id="Layer_7">
	<text transform="matrix(1 0 0 1 366.7505 109.8091)" class="st1 st2 st12">jumping</text>
	<text transform="matrix(1 0 0 1 142.4855 349.373)" class="st1 st2 st12">shooting</text>
	<text transform="matrix(1 0 0 1 105.615 502.7818)" class="st13"><tspan x="0" y="0" class="st1 st2 st5">press ‘d’ to shoot a fire ball.</tspan><tspan x="0" y="14.4" class="st1 st2 st5">this will kill the ghost. </tspan></text>
	<text transform="matrix(1 0 0 1 351.3084 67.82)" class="st1 st2 st5">press ‘s’ to start </text>
	<text transform="matrix(1 0 0 1 524.0674 490.7294)" class="st1 st2 st5">coming in contact with a ghost will kill you. :(</text>
	<text transform="matrix(1 0 0 1 354.9091 306.9707)" class="st1 st2 st5">press ‘w’ to jump.</text>
	<text transform="matrix(1 0 0 1 423.0938 167.5485)" class="st1 st2 st14">wee!</text>
	<text transform="matrix(1 0 0 1 624.6511 347.4001)" class="st1 st2 st12">dying</text>
	<g>
		<g>
			<line class="st15" x1="152.4" y1="437.7" x2="169.6" y2="437.7"/>
			<g>
				<polygon class="st1" points="163.6,442.8 168.7,437.7 163.6,432.6 167.9,432.6 173,437.7 167.9,442.8 				"/>
			</g>
		</g>
	</g>
	<g>
		<g>
			<line class="st15" x1="339.8" y1="202.5" x2="351.9" y2="190.3"/>
			<g>
				<polygon class="st1" points="351.3,198.2 351.3,191 344.1,191 347.2,187.9 354.4,187.9 354.4,195.1 				"/>
			</g>
		</g>
	</g>
	<g>
		<g>
			<line class="st15" x1="440.5" y1="181.2" x2="450.7" y2="195"/>
			<g>
				<polygon class="st1" points="443.1,193.2 450.2,194.3 451.3,187.2 453.8,190.7 452.7,197.8 445.6,196.7 				"/>
			</g>
		</g>
	</g>
	<line class="st16" x1="381.1" y1="150.7" x2="376.5" y2="143.1"/>
	<line class="st16" x1="395.1" y1="147.2" x2="395.1" y2="143.9"/>
	<line class="st16" x1="387.3" y1="148.5" x2="384.9" y2="142.6"/>
	<line class="st16" x1="403.6" y1="148.5" x2="405.9" y2="142.6"/>
	<line class="st16" x1="409.7" y1="150.9" x2="413.5" y2="142.9"/>
</g>
</svg>
