<?xml version="1.0" encoding="utf-8"?>
<!-- Generator: Adobe Illustrator 26.5.1, SVG Export Plug-In . SVG Version: 6.00 Build 0)  -->
<svg version="1.1" id="Layer_3" xmlns="http://www.w3.org/2000/svg" xmlns:xlink="http://www.w3.org/1999/xlink" x="0px" y="0px"
	 viewBox="0 0 612 792" style="enable-background:new 0 0 612 792;" xml:space="preserve">
<g>
	<path style="fill:#E0493B;" d="M339.1777,765.3262c-14.4395,0-26.1865-11.7471-26.1865-26.1865v-81.1836h-50.1973v78.8604
		c0,14.4395-11.7471,26.1865-26.1865,26.1865s-26.187-11.7471-26.187-26.1865v-82.4795
		c-37.791-11.1055-63.9194-45.833-63.9194-85.5195c0-26.9414,12.4067-52.4619,33.0557-69.2539H58.4775
		c-5.2358,0-9.4951-4.2598-9.4951-9.4951V45.0669c0-5.2354,4.2593-9.4951,9.4951-9.4951h1.5781l47.833,44.707h385.3486
		l55.3887-44.707h1.4131c5.2354,0,9.4951,4.2598,9.4951,9.4951v445.0015c0,5.2354-4.2598,9.4951-9.4951,9.4951H398.4814
		c20.6484,16.792,33.0557,42.3125,33.0557,69.2539c0,20.3174-7.0205,40.1924-19.7676,55.9629
		c-11.8809,14.6982-28.2637,25.3223-46.4043,30.1592v84.2002C365.3652,753.5791,353.6172,765.3262,339.1777,765.3262z"/>
	<path style="fill:#42161A;" d="M550.0392,39.5717c3.035,0,5.4952,2.4603,5.4952,5.4952v445.0016
		c0,3.0349-2.4602,5.4952-5.4952,5.4952h-164.261c24.9951,14.8338,41.7585,42.0801,41.7585,73.2537v0.0002
		c0,40.498-28.2856,74.3672-66.172,82.9911v87.3307c0,12.2534-9.9334,22.1869-22.1869,22.1869s-22.1868-9.9335-22.1868-22.1869
		v-85.1838H258.794v82.8603c0,12.2535-9.9333,22.1868-22.1868,22.1868h-0.0001c-12.2533,0-22.1868-9.9333-22.1868-22.1868v-85.5271
		c-36.7539-9.4284-63.9196-42.7767-63.9196-82.4712v-0.0002c0-31.1735,16.7634-58.4199,41.7585-73.2537H58.4777
		c-3.0349,0-5.4952-2.4603-5.4952-5.4952V45.0669c0-3.0349,2.4603-5.4952,5.4952-5.4952l47.833,44.707h388.3401L550.0392,39.5717
		 M550.0392,31.5717h-2.8257l-2.1989,1.7748L491.825,76.2787H109.4672L63.9404,33.7272l-2.3061-2.1554h-3.1566
		c-7.4413,0-13.4952,6.0539-13.4952,13.4952v445.0016c0,7.4413,6.0539,13.4952,13.4952,13.4952h110.7281
		c-5.4388,5.5338-10.1915,11.7408-14.1122,18.4738c-8.2382,14.1476-12.5928,30.3238-12.5928,46.7799
		c0,40.454,25.9856,75.9769,63.9196,88.4625v79.5361c0,16.645,13.5418,30.1868,30.1868,30.1868
		c16.6451,0,30.1869-13.5418,30.1869-30.1868v-74.8603h42.1971v77.1838c0,16.6451,13.5418,30.1869,30.1868,30.1869
		c16.6451,0,30.1869-13.5418,30.1869-30.1869v-81.1801c17.7708-5.3858,33.7549-16.1148,45.5151-30.6644
		c13.3208-16.4801,20.6569-37.2477,20.6569-58.4773c0-16.4562-4.3546-32.6324-12.5928-46.7802
		c-3.9206-6.7329-8.6734-12.9399-14.1122-18.4738h141.2074c7.4413,0,13.4952-6.0539,13.4952-13.4952V45.0669
		C563.5345,37.6256,557.4806,31.5717,550.0392,31.5717L550.0392,31.5717z"/>
</g>
<g>
	<rect x="372.2908" y="199.925" style="fill:#42161A;" width="138.17" height="93.78"/>
</g>
<g>
	<rect x="97.4508" y="199.925" style="fill:#42161A;" width="138.67" height="93.78"/>
</g>
</svg>
