<?xml version="1.0" encoding="utf-8"?>
<!-- Generator: Adobe Illustrator 26.5.1, SVG Export Plug-In . SVG Version: 6.00 Build 0)  -->
<svg version="1.1" id="Layer_1" xmlns="http://www.w3.org/2000/svg" xmlns:xlink="http://www.w3.org/1999/xlink" x="0px" y="0px"
	 viewBox="0 0 800 600" style="enable-background:new 0 0 800 600;" xml:space="preserve">
<path style="fill:#603862;" d="M884.7833,426.7653c0,0-5.61,1.08-14.56,2.77c-8.18,25.34-24.3,69.34-36.66,65.73
	c-17.28-5.05-215.9901-40.37-220.39-42.33c-0.57-0.25-1.94-2.62-3.89-6.53l-64.39-0.65l0.86,4.95l-108.62-6.03l-319.0601-3.22
	c-6.78,15.19-12.37,25.27-15.42,25.83c-13.3,2.43-188.22-16.96-188.22-16.96s33.25-143,36.35-147.1c0.44-0.59,1.35-3.29,2.58-7.49
	c7.37-25.08,26.25-103.47,26.25-103.47l66.79-35.25l49.8,62.5099c0,0,23.15,18.78,44.72,35.75l30.9-37.74l25.04-89.45l7.55-26.94
	l19.16,83.8l33.11,49.09c6.54-16.92,12.2-31.63,12.41-32.46c0.49-2,66.04-83.8001,66.04-83.8001l31.08,91.8001l20.82-18.98
	l13.25,36.25l18.29-5.99l9.82-66.5c0,0,28.35,38.86,43.7401,58.68l3.34-14.89l29-79.71l68.05,120.1l13.27,35.45l100.52-27.65
	l4.0099-70.04l38.98,69.09l30.19-14.55l14.5-38.57c0,0,60.91,56.33,60.91,59.42c0,1.74,15.8,56.97,29.61,104.94
	C875.2433,393.8853,884.7833,426.7653,884.7833,426.7653z"/>
<path style="fill:#684166;" d="M864.5132,356.6253c-11.33,10.76-21.16,20-21.16,20l-49.06-122.05h-25.21l-26.33,67.1l-37.36-81.82
	l-4.54,29.45l-96.87,58.68l-49.75-45.77l-31.46,29.9301l-10.83-136.34l-21.3,56.25h-39.74l-13.81-34.09l-9.37,34.09l-20.62,33.68
	l-15.14-19.93l-6.64-16.79l-10.5,10.84l-4.15-7.8l-35.85,37.25l-16.87-25.53l-22.34,16.16v-76.81l-18.71,14.84l-5.33,68.66h-45.73
	l-6.65-26.77l-38.23,5.95l-13.61,29.75l-45.39,4.06l-53.01-28.61l-53.1-33.84l-25.61,52.14l-36.88,26.43
	c7.37-25.08,26.25-103.47,26.25-103.47l66.79-35.25l49.8,62.5099c0,0,23.15,18.78,44.72,35.75l30.9-37.74l25.04-89.45l7.55-26.94
	l19.16,83.8l33.11,49.09c6.54-16.92,12.2-31.63,12.41-32.46c0.49-2,66.04-83.8001,66.04-83.8001l31.08,91.8001l20.82-18.98
	l13.25,36.25l18.29-5.99l9.82-66.5c0,0,28.35,38.86,43.7401,58.68l3.34-14.89l29-79.71l68.05,120.1l13.27,35.45l100.52-27.65
	l4.0099-70.04l38.98,69.09l30.19-14.55l14.5-38.57c0,0,60.91,56.33,60.91,59.42
	C834.9033,253.4253,850.7032,308.6553,864.5132,356.6253z"/>
</svg>
