<?xml version="1.0" encoding="utf-8"?>
<!-- Generator: Adobe Illustrator 26.5.1, SVG Export Plug-In . SVG Version: 6.00 Build 0)  -->
<svg version="1.1" id="Layer_2" xmlns="http://www.w3.org/2000/svg" xmlns:xlink="http://www.w3.org/1999/xlink" x="0px" y="0px"
	 viewBox="0 0 612 792" style="enable-background:new 0 0 612 792;" xml:space="preserve">
<g>
	<path style="fill:#3B373A;" d="M394.9779,752.9159c-2.4043-0.0225-4.3652-1.9307-4.4551-4.333l-0.4883-13.1602l-23.5605,6.8818
		l-1.9199,4.249c-0.6221,1.3789-1.8965,2.3516-3.3896,2.5908c-0.2373,0.0381-0.4746,0.0566-0.7109,0.0566
		c-1.251,0-2.458-0.5215-3.3174-1.46l-2.1758-2.374c-1.2822-0.0986-2.4902-0.7441-3.2822-1.8213
		c-0.5918-0.8057-0.8838-1.7598-0.874-2.7139l-0.7354-0.8027c-0.0361,0.0166-0.0732,0.0342-0.1104,0.0498
		c-0.5801,0.2568-1.1992,0.3838-1.8174,0.3838c-0.7256,0-1.4487-0.1748-2.106-0.5234l-10.3384-5.4756
		c-0.5854,0.6328-1.3521,1.0967-2.2246,1.3125l-42.1611,10.4004c-0.3584,0.0879-0.7202,0.1309-1.0781,0.1309
		c-1.48,0-2.895-0.7324-3.7422-2.002c-1.0527-1.5762-1.0039-3.6436,0.1211-5.1689l15.8384-21.4727l-7.667-4.8857
		c-2.0371-1.2979-2.686-3.9717-1.4712-6.0586c0.8335-1.4316,2.3398-2.2373,3.8926-2.2373c0.7114,0,1.4321,0.1689,2.1025,0.5244
		l8.9736,4.7529l6.2661-8.4961l-4.4224-4.8262c-1.1704-1.2769-1.5034-3.1128-0.8569-4.7197s2.1582-2.7002,3.8872-2.811
		l9.4058-0.6025c0.4468-2.3486,0.8281-4.5806,1.1426-6.6846c-0.1753,0.0024-0.3521,0.0039-0.5298,0.0039
		c-1.6997,0-3.5625-0.1123-5.5361-0.3335c-5.1509-0.5781-12.2051-1.3691-12.3271-6.8291
		c-0.1143-5.1045,6.2607-6.7051,11.3838-7.9912c4.3188-1.0845,10.1479-2.2275,17.3501-3.4038
		c1.4844-2.2485,3.5229-2.7993,5.1636-2.7993c1.3765,0,2.8286,0.4106,4.5791,1.311c17.8398-2.5562,37.998-4.6001,45.5205-4.6001
		c1.9951,0,6.6689,0,7.1748,4.3413c0.5186,4.4507-4.0732,5.5356-7.7617,6.4072l-1.4424,0.3408
		c0.6191,0.2563,1.1826,0.6445,1.6602,1.1509c1.3711,1.4531,1.7227,2.6099,1.5186,8.1899l5.2285-6.6016
		c0.8711-1.1006,2.1816-1.7065,3.5283-1.7065c0.5352,0,1.0752,0.0957,1.5967,0.2935c1.834,0.6963,3.0049,2.5005,2.8955,4.459
		l-2.4834,44.3062l3.5312,7.5654c0.5547,1.1904,0.5625,2.5625,0.0215,3.7588s-1.5781,2.0957-2.8379,2.4639l-1.5117,0.4414
		l-0.9121,16.2803c-0.1338,2.3857-2.1084,4.248-4.4922,4.248C395.0062,752.9159,394.9916,752.9159,394.9779,752.9159z
		 M361.5551,674.1444c3.1182,1.6885,5.9688,2.5396,8.5273,2.5391c5.0273-0.0005,8.0996-3.4844,10.1318-5.79
		c0.4492-0.5093,0.9033-1.0244,1.3945-1.4873L361.5551,674.1444z"/>
	<path style="fill:#4B4A53;" d="M389.3073,661.4772c3.7603,0,3.9383,0.5554-1.6223,1.8693l-28.0846,6.6356
		c-3.4461,0.8143-6.4984,1.368-9.1972,1.7199c-3.2676-2.6053-5.6813-4.3602-7.4839-5.4522
		C361.3595,663.5571,382.0334,661.4772,389.3073,661.4772 M339.2073,664.7663c0.8223,0.0001,1.9892,0.4398,3.7119,1.4835
		c-1.9669,0.2872-3.9079,0.5814-5.805,0.8807C337.5216,665.7356,337.9859,664.7662,339.2073,664.7663 M337.1142,667.1305
		c-0.3569,1.2222-0.6705,2.7708-1.412,4.2826c-3.8156-0.9388-5.2771-2.3701-5.8931-2.3707
		c-0.6668-0.0007-0.339,1.6752-0.9244,7.4717c-1.5536,0.3863-3.4315,0.6092-5.7119,0.6092c-1.4978,0-3.1677-0.0961-5.0344-0.3055
		C299.3302,674.7079,315.2861,670.5752,337.1142,667.1305 M335.7022,671.4131c1.8616,0.4581,4.2834,0.7993,7.439,0.7993
		c2.0838,0,4.4875-0.1486,7.2619-0.5104c0.0254,0.0203,0.0486,0.0388,0.0741,0.0591h0c8.2166,7.0803,14.6305,9.4224,19.6056,9.4224
		c9.7376,0,13.958-8.9787,15.3601-8.9783c0.9759,0.0003,0.5874,4.3495-0.2544,19.101L399.2123,673.6l-2.5461,45.4354l-2.9742-6.3733
		l0.6247,16.8218l-31.0915,9.082l13.5072-29.8942l-20.7349,31.1663l-6.9111-7.5422l10.7905-41.8724l-33.577,2.1503
		c1.5114-7.3133,2.2227-12.4749,2.5848-16.0596C332.8198,675.5356,334.6735,673.5104,335.7022,671.4131 M326.2999,692.5737
		c-0.0322,0.1556-0.0646,0.3118-0.0975,0.4694l-5.8352,7.9111l-6.9247-7.557L326.2999,692.5737 M320.3672,700.9542l28.7192,31.3416
		l-0.9449,3.6668l-38.5406-20.4121L320.3672,700.9542 M297.2009,708.9832l12.3999,6.5673l-0.6691,0.9072L297.2009,708.9832
		 M308.9317,716.4576l23.4629,14.9498l-42.1613,10.4004L308.9317,716.4576 M396.6663,719.0354l4.0091,8.5911l-4.5653,1.3336
		L396.6663,719.0354 M396.1101,728.9601l-1.0902,19.4554l-0.7031-18.9316L396.1101,728.9601 M363.2253,738.5659l-2.7719,6.1348
		l-3.8492-4.2007L363.2253,738.5659 M355.9976,739.838l0.6067,0.662l-1.2997,0.3796L355.9976,739.838 M389.3073,652.4772
		c-7.508,0-27.1343,1.9634-44.8163,4.455c-1.5707-0.6693-3.35-1.1658-5.2828-1.166l0,0c-0.0002,0-0.0002,0-0.0003,0
		c-0.0002,0,0.0001,0-0.0001,0c-1.6623-0.0001-4.9348,0.3962-7.5956,3.1406c-6.5507,1.0984-11.9249,2.1714-16.0143,3.1981
		c-3.0608,0.7684-5.4203,1.5162-7.2136,2.2861c-6.723,2.8863-7.6306,7.6111-7.5732,10.1707
		c0.0488,2.179,0.9613,7.4908,8.3616,9.7501c0.5286,0.1614,1.098,0.3127,1.7153,0.4553c-2.6002,0.7696-4.756,2.6885-5.7949,5.2706
		c-1.2932,3.2142-0.6267,6.8854,1.714,9.4398l1.9203,2.0956l-1.7664,2.3949l-5.5475-2.9381
		c-1.3407-0.7101-2.7831-1.0481-4.2053-1.0481c-3.1058,0-6.1183,1.6103-7.785,4.4735c-2.4301,4.1744-1.1317,9.5226,2.9418,12.1182
		l3.6042,2.2965l-12.9785,17.5955c-2.2505,3.0511-2.3476,7.1855-0.2428,10.3389c1.6949,2.5393,4.5252,4.0041,7.4852,4.0041
		c0.7159,0,1.4391-0.0856,2.156-0.2625l42.1613-10.4004c0.4787-0.1181,0.9413-0.2737,1.385-0.4634l7.994,4.2338
		c1.0481,0.5551,2.1813,0.8904,3.3326,1.0035c0.2245,0.4467,0.4885,0.8789,0.7917,1.2913c1.1623,1.5809,2.7737,2.6974,4.5617,3.2576
		l1.2028,1.3126c1.7188,1.8757,4.1338,2.9199,6.635,2.9199c0.4727,0,0.9481-0.0373,1.4228-0.1132
		c2.9869-0.4781,5.5339-2.4246,6.7794-5.1812l1.0674-2.3623l16.0292-4.6823l0.2744,7.3876
		c0.1784,4.8044,4.1014,8.6203,8.9089,8.6656c0.0288,0.0003,0.0577,0.0004,0.0865,0.0004c4.769,0,8.7169-3.725,8.9843-8.4965
		l0.7435-13.2673c1.8114-0.9195,3.2745-2.4341,4.1255-4.3145c1.0826-2.392,1.0666-5.1375-0.0437-7.5167l-3.0523-6.5406
		l2.4195-43.1764c0.2195-3.9169-2.1234-7.5247-5.7909-8.9174c-0.6104-0.2318-1.2342-0.3933-1.8611-0.4874
		c0.5723-1.7906,0.4692-3.3506,0.4051-3.9009c-0.385-3.3039-2.8433-7.4228-8.5042-8.1575
		C391.5901,652.5291,390.5923,652.4772,389.3073,652.4772L389.3073,652.4772z M332.7787,701.1772l15.2852-0.9789l-3.552,13.7834
		L332.7787,701.1772L332.7787,701.1772z"/>
</g>
<polygon style="fill:#4B4A53;" points="367.0389,677.6746 344.5303,695.5081 356.5212,717.7633 389.5475,677.6746 "/>
<polygon style="fill:#4B4A53;" points="324.8963,691.3062 383.1873,719.5698 411.1364,731.9596 385.6112,727.0779 "/>
<polygon style="fill:#4B4A53;" points="374.7858,667.0776 373.6427,714.9999 390.5847,714.83 407.9661,719.0085 "/>
<line style="fill:none;stroke:#4B4A53;stroke-width:9;stroke-linejoin:round;stroke-miterlimit:10;" x1="356.3535" y1="720.5877" x2="356.3535" y2="743.7321"/>
<line style="fill:none;stroke:#4B4A53;stroke-width:9;stroke-linejoin:round;stroke-miterlimit:10;" x1="385.7143" y1="725.4558" x2="372.9058" y2="695.9268"/>
<line style="fill:none;stroke:#4B4A53;stroke-width:9;stroke-linejoin:round;stroke-miterlimit:10;" x1="400.7057" y1="729.1959" x2="389.3324" y2="694.4257"/>
</svg>
