<?xml version="1.0" encoding="utf-8"?>
<!-- Generator: Adobe Illustrator 26.5.1, SVG Export Plug-In . SVG Version: 6.00 Build 0)  -->
<svg version="1.1" id="Layer_1" xmlns="http://www.w3.org/2000/svg" xmlns:xlink="http://www.w3.org/1999/xlink" x="0px" y="0px"
	 viewBox="0 0 612 792" style="enable-background:new 0 0 612 792;" xml:space="preserve">
<g>
	<path style="fill:#626D6D;" d="M366.7607,741.0029c-0.4111,0-0.8262-0.0566-1.2373-0.1738
		c-2.1123-0.6045-3.4795-2.6436-3.2363-4.8262l20.0439-179.6445l-80.4922-13.7969c-1.563-0.2686-2.8701-1.3389-3.4395-2.8193
		l-16.6948-43.3877l-49.4927-46.5537l-115.0298-18.7344c-1.3081-0.2129-2.4556-0.9912-3.1367-2.1279s-0.8267-2.5166-0.3979-3.7705
		l30.022-87.7559l-29.3389-38.3662c-0.958-1.2529-1.1904-2.9165-0.6113-4.3843l30.6611-77.7539
		c3.21-15.2725,10.6709-44.269,24.98-69.6401c14.5635-25.8223,32.3291-41.3687,52.8027-46.2061l28.0845-6.6357
		c19.5444-4.6177,46.1899-7.1606,75.0278-7.1606c17.3105,0,34.2314,0.9136,50.292,2.7153
		c32.082,3.5986,62.3867,16.1533,87.6377,36.3071c0.0449,0.0352,0.0879,0.0713,0.1309,0.1084
		c29.6689,25.5664,24.7129,66.8647,19.9189,106.8032c-1.2881,10.7363-2.5059,20.8804-3.0771,30.7446l2.3633,74.9517
		c0.043,1.3643-0.5361,2.6743-1.5732,3.5615l-74.2432,63.4912v65.6973l72.8389,27.9092c1.1719,0.4492,2.1035,1.3682,2.5693,2.5352
		c0.4648,1.166,0.4219,2.4736-0.1191,3.6064L370.8203,738.4414C370.0576,740.0371,368.457,741.0029,366.7607,741.0029z"/>
	<path style="fill:#4B4A53;" d="M325.2753,91.7649c16.5491,0,33.5685,0.8674,49.7901,2.6872
		c31.2089,3.501,60.7871,15.7623,85.3326,35.3524c35.492,30.5835,17.9448,87.3052,15.2753,134.0801l2.3693,75.1527l-75.8184,64.8376
		v70.865l75.7287,29.0166l-111.1931,232.745l20.514-183.8615l-84.6746-14.5141l-17.0636-44.3456l-51.2425-48.2005l-91.1633-14.8465
		l-25.2248-4.1081l30.8013-90.0344l-30.8013-40.2785l30.8013-78.1087c8.9803-43.0236,31.7185-102.6563,74.4916-112.7626
		l28.0845-6.6357C270.5621,94.25,297.251,91.7649,325.2753,91.7649 M325.2754,82.7649c-29.1761,0-56.1889,2.586-76.0624,7.2816
		l-28.0845,6.6357c-21.7458,5.138-40.4818,21.4137-55.6878,48.3749c-6.2761,11.128-17.8794,35.0338-25.3858,70.5523
		l-30.5223,77.4013c-1.1575,2.9352-0.6934,6.2623,1.2233,8.7687l27.8765,36.4538l-29.2428,85.4788
		c-0.8579,2.5077-0.5668,5.266,0.7955,7.5394c1.3623,2.2734,3.6574,3.8307,6.2733,4.2568l25.2248,4.1081l88.4477,14.4042
		l47.7426,44.9084l16.3261,42.429c1.1391,2.9604,3.7526,5.1026,6.8791,5.6385l76.3095,13.0802l-19.5729,175.4268
		c-0.487,4.3652,2.248,8.4444,6.4711,9.6515c0.822,0.235,1.6541,0.3478,2.4744,0.3478c3.3943,0,6.5949-1.9297,8.1198-5.1216
		l111.1931-232.745c1.0827-2.2663,1.1692-4.8818,0.2385-7.2146s-2.7938-4.1706-5.1391-5.0693l-69.9489-26.802v-60.5298
		l72.6677-62.1432c2.075-1.7744,3.2323-4.3948,3.1462-7.1236l-2.3566-74.7498c0.5682-9.664,1.7699-19.6754,3.0413-30.2673
		c2.3635-19.6915,4.8075-40.0534,3.0191-58.8864c-2.142-22.5567-10.1459-39.5215-24.4689-51.8636
		c-0.0856-0.0738-0.1725-0.1459-0.2608-0.2164c-25.9154-20.6834-57.0173-33.5684-89.9435-37.262
		C359.8426,83.6879,342.7531,82.7649,325.2754,82.7649L325.2754,82.7649z"/>
</g>
<polygon style="fill:#4B4A53;" points="177.1382,226.579 146.337,284.5012 158.3278,306.7564 191.3542,266.6677 "/>
<polygon style="fill:#4B4A53;" points="326.5589,220.9148 285.5356,306.7564 313.4847,339.0373 387.2738,314.1157 "/>
<polygon style="fill:#4B4A53;" points="199.7422,300.3478 175.9854,347.1995 192.9274,346.8304 210.3088,355.9006 "/>
<line style="fill:none;stroke:#4B4A53;stroke-width:9;stroke-linejoin:round;stroke-miterlimit:10;" x1="151.7302" y1="400.1344" x2="143.1299" y2="430.7332"/>
<line style="fill:none;stroke:#4B4A53;stroke-width:9;stroke-linejoin:round;stroke-miterlimit:10;" x1="179.5553" y1="405.6059" x2="172.4155" y2="437.0465"/>
<line style="fill:none;stroke:#4B4A53;stroke-width:9;stroke-linejoin:round;stroke-miterlimit:10;" x1="210.3088" y1="415.4338" x2="204.6042" y2="441.6332"/>
<path style="opacity:0.91;fill:#F0D282;stroke:#EB944C;stroke-width:9;stroke-linejoin:round;stroke-miterlimit:10;" d="
	M127.8082,220.9148l15.3217-24.697l-6.8679-14.9643c0,0,30.2827-49.2735,32.5836-55.8669
	c7.2188-20.6859,9.3491-33.6217,9.3491-33.6217l19.531,6.8924c0,0,30.136-8.1875,29.8448-12.178s28.9311-8.9786,30.9263-13.9667
	c1.9953-4.9881,21.9477-23.943,21.9477-23.943l-1.9952,20.9501c0.9976,3.9905,51.8764,1.9952,51.8764,1.9952l26.9358-11.9715
	c0,0,22.1985-8.9786,20.1197-5.9857c-2.0789,2.9929,9.8926,23.943,9.8926,23.943s63.7643,39.9049,66.7571,24.9406
	c2.9929-14.9643,10.9738-1.9952,10.9738-1.9952l12.9691-26.9358l4.3848,32.9216l14.57,52.874c0,0,3.9905,50.6352,6.9833,61.6091
	c2.9929,10.9738-2.9929,53.4527-9.9762,59.0613c-6.9833,5.6085-4.9881,66.0446-4.9881,66.0446l-71.8289,75.0959v41.4666
	l75.8193,37.9097l-126.1784,242.992l1.4755-180.1418l-73.8241-22.9453l-16.9596-40.9025l-41.9002-42.8978l-127.6958-28.2879
	c0,0,20.9501-81.1318,20.9501-82.2888s-19.9525-45.6729-19.9525-45.6729L127.8082,220.9148z"/>
</svg>
