<?xml version="1.0" encoding="utf-8"?>
<!-- Generator: Adobe Illustrator 26.5.1, SVG Export Plug-In . SVG Version: 6.00 Build 0)  -->
<svg version="1.1" id="Layer_1" xmlns="http://www.w3.org/2000/svg" xmlns:xlink="http://www.w3.org/1999/xlink" x="0px" y="0px"
	 viewBox="0 0 612 792" style="enable-background:new 0 0 612 792;" xml:space="preserve">
<g>
	<path style="fill:#3B373A;" d="M370.6436,722.8955c-0.4111,0-0.8262-0.0566-1.2373-0.1738
		c-2.1123-0.6035-3.4795-2.6436-3.2363-4.8262l20.0439-179.6436l-80.4927-13.7969c-1.563-0.2686-2.8701-1.3389-3.4395-2.8193
		l-16.4326-42.7061l-44.9692-22.2168l-69.2158-16.8428c-0.3623-0.0879-0.7124-0.2207-1.042-0.3955l-50.9409-26.9795
		c-2.1421-1.1348-3.001-3.7617-1.9419-5.9424l28.2261-58.1313l-27.5728-31.6787c-0.9854-1.1328-1.3413-2.6821-0.9487-4.1313
		l30.7666-113.564c3.1821-15.2061,10.6465-44.3799,25.0322-69.8862c14.5635-25.8228,32.3291-41.3687,52.8027-46.2061l28.0845-6.6357
		c19.5449-4.6177,46.1909-7.1611,75.0293-7.1611c17.3105,0,34.2305,0.9136,50.29,2.7153
		c32.083,3.5991,62.3877,16.1543,87.6377,36.3071c0.0449,0.0352,0.0879,0.0713,0.1309,0.1079
		c29.6709,25.5674,24.7139,66.8667,19.9189,106.8062c-1.2881,10.7354-2.5059,20.8789-3.0771,30.7422l2.3633,74.9521
		c0.043,1.3643-0.5361,2.6743-1.5732,3.5615l-74.2432,63.4907v65.6978l72.8389,27.9092c1.1719,0.4492,2.1035,1.3682,2.5693,2.5352
		c0.4648,1.166,0.4219,2.4736-0.1191,3.6064L374.7031,720.334C373.9404,721.9297,372.3398,722.8955,370.6436,722.8955z"/>
	<path style="fill:#4B4A53;" d="M329.1577,73.6583c16.5491,0.0002,33.5684,0.8674,49.79,2.6872
		c31.2089,3.501,60.7871,15.7623,85.3326,35.3524h0.0001c35.4919,30.5835,17.9447,87.3052,15.2752,134.0801l2.3693,75.1527
		l-75.8184,64.8377v70.8649l75.7287,29.0166l-111.1931,232.745l20.514-183.8614l-84.6746-14.5143l-17.0636-44.3455l-46.9913-23.2161
		l-69.6988-16.9596l-50.9405-26.9794l29.525-60.8075l-29.525-33.9231l30.8013-113.691
		c8.9803-43.0236,31.7185-102.6563,74.4916-112.7626l28.0845-6.6356C274.4444,76.1434,301.1334,73.6579,329.1577,73.6583
		 M329.1579,64.6583h-0.0001c-29.1746-0.0004-56.1876,2.5856-76.0626,7.2817l-28.0845,6.6356
		c-21.7458,5.138-40.4818,21.4137-55.6878,48.3749c-6.3051,11.1793-17.987,35.2567-25.4898,71.0465l-30.7326,113.4375
		c-0.7852,2.8983-0.0733,5.9972,1.898,8.2621l25.6191,29.4353l-26.9264,55.4556c-2.1175,4.361-0.4003,9.6155,3.8838,11.8845
		l50.9405,26.9794c0.6593,0.3492,1.3595,0.615,2.0844,0.7914l68.7318,16.7243l42.9487,21.2189l15.8014,41.0653
		c1.1391,2.9604,3.7526,5.1026,6.8791,5.6385l76.3095,13.0804l-19.5729,175.4267c-0.487,4.3652,2.248,8.4444,6.4711,9.6515
		c0.822,0.2349,1.6541,0.3477,2.4744,0.3477c3.3943,0,6.5949-1.9297,8.1198-5.1215l111.1931-232.745
		c1.0827-2.2663,1.1692-4.8818,0.2385-7.2146s-2.7938-4.1706-5.1391-5.0693l-69.9489-26.802V389.914l72.6677-62.1433
		c2.075-1.7744,3.2323-4.3948,3.1462-7.1236l-2.3566-74.7498c0.5682-9.664,1.7699-19.6755,3.0413-30.2674
		c2.3635-19.6914,4.8075-40.0533,3.0191-58.8863c-2.142-22.5567-10.1458-39.5215-24.4688-51.8636
		c-0.0856-0.0738-0.1725-0.1459-0.2609-0.2164c-25.9154-20.6834-57.0173-33.5684-89.9435-37.262
		C363.7276,65.5816,346.6383,64.6586,329.1579,64.6583L329.1579,64.6583z"/>
</g>
<polygon style="fill:#4B4A53;" points="181.0205,229.5885 150.2193,287.5107 162.2101,309.766 195.2365,269.6772 "/>
<polygon style="fill:#4B4A53;" points="294.1684,229.5885 253.1451,315.4301 281.0942,347.7111 354.8832,322.7895 "/>
<polygon style="fill:#4B4A53;" points="203.6245,310.0176 179.8676,356.8693 196.8097,356.5003 214.1911,365.5705 "/>
<line style="fill:none;stroke:#4B4A53;stroke-width:9;stroke-linejoin:round;stroke-miterlimit:10;" x1="159.9126" y1="395.1275" x2="151.3123" y2="425.7263"/>
<line style="fill:none;stroke:#4B4A53;stroke-width:9;stroke-linejoin:round;stroke-miterlimit:10;" x1="187.0074" y1="410.006" x2="179.8676" y2="441.4467"/>
<line style="fill:none;stroke:#4B4A53;stroke-width:9;stroke-linejoin:round;stroke-miterlimit:10;" x1="227.0438" y1="428.347" x2="221.3392" y2="454.5463"/>
</svg>
