<?xml version="1.0" encoding="utf-8"?>
<!-- Generator: Adobe Illustrator 26.5.1, SVG Export Plug-In . SVG Version: 6.00 Build 0)  -->
<svg version="1.1" id="Layer_1" xmlns="http://www.w3.org/2000/svg" xmlns:xlink="http://www.w3.org/1999/xlink" x="0px" y="0px"
	 viewBox="0 0 612 792" style="enable-background:new 0 0 612 792;" xml:space="preserve">
<g>
	<path style="fill:#E5F4F4;" d="M370.6426,722.8955c-0.4111,0-0.8262-0.0566-1.2373-0.1738
		c-2.1123-0.6035-3.4795-2.6436-3.2363-4.8262l20.0439-179.6436l-80.4927-13.7969c-1.563-0.2686-2.8701-1.3389-3.4395-2.8193
		l-16.6948-43.3877l-49.4922-46.5537L121.0635,412.96c-1.3081-0.2129-2.4556-0.9922-3.1367-2.1279
		c-0.6812-1.1367-0.8267-2.5166-0.3979-3.7705l30.022-87.7559l-29.3389-38.3667c-0.958-1.2529-1.1904-2.9165-0.6113-4.3843
		l30.6611-77.7534c3.21-15.2725,10.6709-44.269,24.98-69.6401c14.5635-25.8228,32.3291-41.3687,52.8027-46.2061l28.085-6.6357
		c19.5444-4.6177,46.1904-7.1611,75.0288-7.1611c17.3105,0,34.2305,0.9136,50.291,2.7153
		c32.082,3.5991,62.3867,16.1543,87.6367,36.3071c0.0449,0.0352,0.0879,0.0713,0.1309,0.1079
		c29.6709,25.5674,24.7139,66.8667,19.9189,106.8062c-1.2881,10.7354-2.5059,20.8789-3.0771,30.7422l2.3633,74.9521
		c0.043,1.3643-0.5361,2.6743-1.5732,3.5615l-74.2432,63.4907v65.6978l72.8389,27.9092c1.1729,0.4492,2.1045,1.3682,2.5693,2.5352
		c0.4658,1.166,0.4219,2.4736-0.1191,3.6064L374.7021,720.334C373.9395,721.9297,372.3389,722.8955,370.6426,722.8955z"/>
	<path style="fill:#5D7587;" d="M329.1567,73.6583c16.5491,0.0003,33.5685,0.8674,49.7901,2.6872
		c31.2089,3.501,60.7872,15.7623,85.3326,35.3524h0.0001c35.4919,30.5835,17.9447,87.3052,15.2752,134.0801l2.3693,75.1527
		l-75.8184,64.8376v70.865l75.7287,29.0166l-111.1931,232.745l20.514-183.8614l-84.6746-14.5143l-17.0636-44.3455l-51.2425-48.2005
		l-91.1633-14.8465l-25.2248-4.1081l30.8013-90.0344l-30.8013-40.2785l30.8013-78.1087
		c8.9803-43.0236,31.7185-102.6563,74.4916-112.7626l28.0845-6.6357C274.4435,76.1434,301.1324,73.6579,329.1567,73.6583
		 M329.157,64.6583L329.157,64.6583c-29.1745-0.0004-56.1874,2.5856-76.0626,7.2816l-28.0845,6.6357
		c-21.7458,5.138-40.4818,21.4137-55.6878,48.3749c-6.2761,11.128-17.8794,35.0338-25.3858,70.5523l-30.5223,77.4013
		c-1.1575,2.9352-0.6934,6.2623,1.2233,8.7687l27.8765,36.4538l-29.2428,85.4788c-0.8579,2.5077-0.5668,5.266,0.7955,7.5394
		c1.3623,2.2734,3.6574,3.8307,6.2733,4.2568l25.2248,4.1081l88.4477,14.4042l47.7427,44.9084l16.3261,42.4289
		c1.1391,2.9604,3.7526,5.1026,6.8791,5.6385l76.3095,13.0804l-19.5729,175.4267c-0.487,4.3652,2.248,8.4444,6.4711,9.6515
		c0.822,0.2349,1.6541,0.3477,2.4744,0.3477c3.3943,0,6.5949-1.9297,8.1198-5.1215l111.1931-232.745
		c1.0827-2.2663,1.1692-4.8818,0.2385-7.2146s-2.7938-4.1706-5.1391-5.0693l-69.9489-26.802v-60.5298l72.6677-62.1432
		c2.075-1.7744,3.2323-4.3948,3.1462-7.1236l-2.3566-74.7498c0.5682-9.664,1.7699-19.6755,3.0413-30.2674
		c2.3635-19.6914,4.8075-40.0533,3.0191-58.8863c-2.142-22.5567-10.1458-39.5215-24.4688-51.8636
		c-0.0856-0.0738-0.1725-0.1459-0.2608-0.2164c-25.9154-20.6834-57.0173-33.5683-89.9436-37.262
		C363.7268,65.5816,346.6375,64.6586,329.157,64.6583L329.157,64.6583z"/>
</g>
<polygon style="fill:#5D7587;" points="181.0197,208.4724 150.2184,266.3946 162.2092,288.6498 195.2356,248.5611 "/>
<polygon style="fill:#5D7587;" points="330.4403,202.8082 289.417,288.6498 317.3662,320.9307 391.1552,296.0091 "/>
<polygon style="fill:#5D7587;" points="203.6237,282.2412 179.8668,329.0929 196.8089,328.7238 214.1902,337.794 "/>
<line style="fill:#E5F4F4;stroke:#5D7587;stroke-width:9;stroke-linecap:round;stroke-linejoin:round;stroke-miterlimit:10;" x1="155.6116" y1="382.0278" x2="147.0113" y2="412.6266"/>
<line style="fill:#E5F4F4;stroke:#5D7587;stroke-width:9;stroke-linecap:round;stroke-linejoin:round;stroke-miterlimit:10;" x1="183.4367" y1="387.4993" x2="176.2969" y2="418.9399"/>
<line style="fill:#E5F4F4;stroke:#5D7587;stroke-width:9;stroke-linecap:round;stroke-linejoin:round;stroke-miterlimit:10;" x1="214.1902" y1="397.3272" x2="208.4857" y2="423.5266"/>
</svg>
