<?xml version="1.0" encoding="utf-8"?>
<!-- Generator: Adobe Illustrator 26.5.1, SVG Export Plug-In . SVG Version: 6.00 Build 0)  -->
<svg version="1.1" id="Layer_3" xmlns="http://www.w3.org/2000/svg" xmlns:xlink="http://www.w3.org/1999/xlink" x="0px" y="0px"
	 viewBox="0 0 612 792" style="enable-background:new 0 0 612 792;" xml:space="preserve">
<g>
	<path style="fill:#3B373A;" d="M361.4787,749.7153c-1.4072,0-2.7627-0.6611-3.626-1.834c-1.1191-1.5234-1.168-3.585-0.1201-5.1582
		l19.5156-29.334l-17.8877-20.3271l-38.7188,9.0527c-0.2881,0.0674-0.583,0.1064-0.8789,0.1162l-49.5093,1.6006L259.359,746.105
		c-0.3438,1.334-1.2798,2.4375-2.54,2.9932c-0.5801,0.2568-1.1992,0.3838-1.8174,0.3838c-0.7251,0-1.4487-0.1748-2.106-0.5234
		l-50.9404-26.9795c-1.1699-0.6191-2.0078-1.7227-2.2905-3.0166c-0.2822-1.293,0.019-2.6455,0.8242-3.6963l21.7305-28.3701
		l-29.7168,7.3311c-0.3584,0.0879-0.7202,0.1309-1.0776,0.1309c-1.4805,0-2.8955-0.7324-3.7427-2.002
		c-1.0527-1.5762-1.0039-3.6436,0.1211-5.1689l35.3838-47.9707c2.2959-11.2324,2.6187-17.0703,2.7759-19.916
		c0.1108-2.0073,0.3706-6.708,5.0376-6.708c1.3726,0,2.3833,0.5562,3.1958,1.0034c1.2783,0.7031,3.939,2.167,10.1367,2.1665
		c4.311,0,9.5005-0.71,15.4243-2.1094l28.0845-6.6357c8.4648-2,10.7944-2.5034,12.291-2.5034c3.1104,0,4.2852,2.1953,4.5713,2.8677
		c1.0039,2.3608-0.1982,4.2471-1.0566,5.2583c1.9453,0.8018,6.2451,2.0342,15.499,3.0723c1.6416,0.1846,3.167,0.2778,4.5332,0.2778
		c7.8066-0.0005,8.4873-2.5439,9.3486-5.7646c0.5273-1.9727,1.7627-6.5923,6.6846-6.5923c3.0518,0,6.6045,2.0132,14.0771,7.9775
		c0.0449,0.0352,0.0879,0.0713,0.1309,0.1084c6.416,5.5283,12.0234,8.3315,16.667,8.3311c5.0273-0.0005,8.0996-3.4844,10.1328-5.79
		c1.3818-1.5674,2.8105-3.188,5.2285-3.188c1.334,0,2.5752,0.5371,3.4951,1.5122c1.3711,1.4531,1.7227,2.6108,1.5176,8.1899
		l5.2285-6.6016c0.8711-1.1006,2.1816-1.7065,3.5283-1.7065c0.5352,0,1.0752,0.0957,1.5967,0.2935
		c1.834,0.6963,3.0049,2.5005,2.8955,4.459l-4.1641,74.3047l4.1523,24.1182l6.7285,14.418
		c0.5547,1.1895,0.5625,2.5625,0.0215,3.7588s-1.5781,2.0957-2.8379,2.4639l-45.3711,13.2529
		C362.3234,749.6567,361.8986,749.7153,361.4787,749.7153z"/>
	<path style="fill:#4B4A53;" d="M339.7132,608.1328c1.6893,0.0002,4.8279,1.8534,11.2699,6.9948
		c8.2166,7.0803,14.6305,9.4224,19.6056,9.4224c9.7376,0,13.958-8.9787,15.3601-8.9783c0.9759,0.0004,0.5875,4.3496-0.2544,19.101
		l14.0237-17.7062l-4.1925,74.8156l4.3409,25.2162l6.9833,14.9644l-45.3709,13.2532l21.4279-32.208l-21.9477-24.9406l-41.3423,9.666
		l-52.8798,1.7098l-11.7355,45.5392l-50.9405-26.9794l29.525-38.5454l-42.1613,10.4004l35.9691-48.7647
		c4.078-19.537,2.5187-24.0019,3.6067-24.0008c0.9165,0.001,3.7086,3.17,13.3321,3.17c4.1108,0,9.4704-0.579,16.4591-2.2302
		l28.0846-6.6357c7.1664-1.6932,10.2226-2.3828,11.2562-2.3827c3.389,0.0002-14.969,7.4147,18.5115,11.1706
		c1.8667,0.2094,3.5366,0.3055,5.0344,0.3055C340.65,620.4898,335.3508,608.1324,339.7132,608.1328 M339.714,599.1328
		C339.7138,599.1328,339.7142,599.1328,339.714,599.1328c-3.8587-0.0004-7.3389,2.0179-9.3097,5.399
		c-0.9463,1.6234-1.3773,3.2351-1.7238,4.5302c-0.1546,0.5782-0.3827,1.4308-0.5547,1.7625
		c-0.2533,0.1376-1.424,0.6654-4.4471,0.6654c-1.1992,0-2.5555-0.0839-4.0312-0.2495c-4.6049-0.5165-7.8345-1.0675-10.0757-1.5567
		c0.0955-1.6743-0.3125-3.0899-0.7259-4.0623c-1.4701-3.4587-4.8086-5.6075-8.7124-5.6078
		c-2.0293-0.0001-4.1825,0.4635-13.3264,2.6239l-28.0845,6.6357c-5.5862,1.3198-10.4276,1.9891-14.3896,1.9891
		c-5.043,0-6.9458-1.047-7.968-1.6095c-1.0589-0.5827-2.8311-1.5579-5.3548-1.5605c-4.5742-0.0002-8.3714,3.2415-9.2427,7.8834
		c-0.1808,0.9631-0.2298,1.8495-0.2977,3.0765c-0.1469,2.6562-0.4436,8.0205-2.4962,18.2951l-34.7914,47.1681
		c-2.2505,3.0511-2.3476,7.1854-0.2428,10.3389c1.6949,2.5392,4.5251,4.004,7.4851,4.004c0.7159,0,1.4391-0.0856,2.1561-0.2625
		l17.273-4.2609L196.9164,712.53c-1.6101,2.1021-2.2128,4.8065-1.6478,7.3933s2.2404,4.7936,4.5804,6.0329l50.9405,26.9794
		c1.3144,0.6961,2.7622,1.0466,4.2125,1.0466c1.2365,0,2.4747-0.2546,3.6347-0.7667c2.5207-1.1129,4.3927-3.3192,5.0803-5.9874
		l10.0523-39.0078l46.1385-1.4918c0.5923-0.0191,1.1812-0.0967,1.7582-0.2316l36.0961-8.4395l13.8275,15.7131l-17.6038,26.46
		c-2.0945,3.1482-1.9977,7.2698,0.2421,10.3163c1.725,2.3463,4.4378,3.6694,7.2517,3.6694c0.8398,0,1.6886-0.1179,2.5229-0.3616
		l45.3709-13.2532c2.5203-0.7362,4.5934-2.5362,5.6759-4.9282s1.0666-5.1375-0.0437-7.5167l-6.4738-13.8725l-3.963-23.0204
		l4.1353-73.7937c0.2195-3.9168-2.1234-7.5247-5.7909-8.9174c-1.0422-0.3958-2.1234-0.5867-3.1928-0.5867
		c-2.2874-0.0001-4.5217,0.8734-6.2113,2.4848c-0.2357-0.325-0.4981-0.6433-0.7906-0.9534
		c-1.7527-1.8585-4.2191-2.9247-6.7669-2.9255c-0.0011,0-0.0023,0-0.0034,0c-4.4489-0.0001-6.949,2.8358-8.6036,4.7126
		c-2.1309,2.4169-3.9814,4.2656-6.7559,4.2656c-1.99,0-6.4199-0.9406-13.7306-7.2403c-0.0855-0.0737-0.1725-0.1459-0.2608-0.2164
		C347.1077,600.5195,343.4656,599.1333,339.714,599.1328L339.714,599.1328L339.714,599.1328z"/>
</g>
<polygon style="fill:#4B4A53;" points="268.2306,625.7246 245.722,643.558 257.7128,665.8133 290.7392,625.7246 "/>
<polygon style="fill:#4B4A53;" points="325.4022,634.6727 284.3789,667.6198 312.328,680.0096 386.1171,670.4443 "/>
<polygon style="fill:#4B4A53;" points="275.9774,615.1276 274.8343,663.0499 291.7764,662.8799 309.1577,667.0585 "/>
<line style="fill:none;stroke:#4B4A53;stroke-width:9;stroke-linejoin:round;stroke-miterlimit:10;" x1="257.5452" y1="668.6377" x2="257.5452" y2="691.782"/>
<line style="fill:none;stroke:#4B4A53;stroke-width:9;stroke-linejoin:round;stroke-miterlimit:10;" x1="286.9059" y1="673.5058" x2="279.7661" y2="704.9464"/>
<line style="fill:none;stroke:#4B4A53;stroke-width:9;stroke-linejoin:round;stroke-miterlimit:10;" x1="301.8973" y1="677.2459" x2="296.1927" y2="703.4453"/>
</svg>
