<?xml version="1.0" encoding="utf-8"?>
<!-- Generator: Adobe Illustrator 26.5.0, SVG Export Plug-In . SVG Version: 6.00 Build 0)  -->
<svg version="1.1" id="Layer_1" xmlns="http://www.w3.org/2000/svg" xmlns:xlink="http://www.w3.org/1999/xlink" x="0px" y="0px"
	 viewBox="0 0 595.2756 841.8898" style="enable-background:new 0 0 595.2756 841.8898;" xml:space="preserve">
<path style="fill:#E15F5F;" d="M543.8967,540.2506H52.3352c-3.0349,0-5.4952-2.4603-5.4952-5.4952V89.7539
	c0-3.0349,2.4603-5.4952,5.4952-5.4952l47.833,44.707h388.3401l55.3885-44.707c3.0349,0,5.4952,2.4603,5.4952,5.4952v445.0015
	C549.392,537.7903,546.9316,540.2506,543.8967,540.2506z"/>
<rect x="94.1742" y="260.6251" style="fill:#1A1D0F;stroke:#000000;stroke-miterlimit:10;" width="136.2905" height="43.7988"/>
<rect x="335.6223" y="256.5541" style="fill:#1A1D0F;stroke:#000000;stroke-miterlimit:10;" width="155.3078" height="55.7005"/>
<path style="fill:#E15F5F;" d="M336.2562,698.6426H229.4963c-47.0204,0-85.1381-38.1176-85.1381-85.1381v-0.0002
	c0-47.0204,38.1176-85.1381,85.1381-85.1381h106.7599c47.0204,0,85.1381,38.1176,85.1381,85.1381v0.0002
	C421.3943,660.525,383.2767,698.6426,336.2562,698.6426z"/>
<path style="fill:#E15F5F;" d="M111.9456,746.5137L111.9456,746.5137c-7.3438-9.809-5.3454-23.714,4.4636-31.0578l83.2087-62.2966
	c9.809-7.3438,23.714-5.3453,31.0578,4.4636l0,0.0001c7.3438,9.809,5.3453,23.714-4.4636,31.0577l-83.2087,62.2966
	C133.1944,758.3211,119.2894,756.3226,111.9456,746.5137z"/>
<path style="fill:#E15F5F;" d="M464.4592,742.951L464.4592,742.951c-6.1267,10.6118-19.696,14.2477-30.3078,8.121l-90.019-51.9725
	c-10.6118-6.1267-14.2477-19.696-8.1209-30.3077l0-0.0001c6.1267-10.6118,19.696-14.2476,30.3077-8.1209l90.019,51.9725
	C466.95,718.77,470.5859,732.3392,464.4592,742.951z"/>
</svg>
